{
.appVersion = "3151";
.formatVersion = 3;
axes = (
{
name = Weight;
tag = wght;
},
{
name = Italic;
tag = ital;
}
);
customParameters = (
{
name = fsType;
value = (
);
},
{
name = "Use Typo Metrics";
value = 1;
},
{
name = "Variable Font Origin";
value = m01;
},
{
name = "Axis Mappings";
value = {
ital = {
0 = 0;
11 = 11;
};
wght = {
300 = 300;
350 = 350;
400 = 400;
500 = 500;
600 = 600;
700 = 700;
};
};
},
{
name = "Use Extension Kerning";
value = 1;
},
{
name = "Write DisplayStrings";
value = 0;
},
{
name = "Write lastChange";
value = 0;
},
{
name = "Export Mac Name Table Entries";
value = 0;
}
);
date = "2023-09-04 21:04:04 +0000";
familyName = "Uncut Sans";
featurePrefixes = (
{
automatic = 1;
code = "languagesystem DFLT dflt;

languagesystem latn dflt;
languagesystem latn AZE;
languagesystem latn CRT;
languagesystem latn KAZ;
languagesystem latn TAT;
languagesystem latn TRK;
languagesystem latn ROM;
languagesystem latn MOL;
languagesystem latn CAT;
languagesystem latn NLD;
";
name = Languagesystems;
}
);
features = (
{
automatic = 1;
code = "feature locl;
feature subs;
feature sinf;
feature sups;
feature numr;
feature dnom;
feature frac;
feature ordn;
feature pnum;
feature tnum;
feature case;
feature zero;
feature ss01;
feature ss02;
feature ss03;
feature ss04;
feature ss05;
feature ss06;
feature ss07;
feature ss08;
";
tag = aalt;
},
{
automatic = 1;
code = "lookup locl_latn_0 {
	script latn;
	language AZE;
	sub i by idotaccent;
	language CRT;
	sub i by idotaccent;
	language KAZ;
	sub i by idotaccent;
	language TAT;
	sub i by idotaccent;
	language TRK;
	sub i by idotaccent;
} locl_latn_0;

lookup locl_latn_1 {
	script latn;
	language ROM;
	sub Scedilla by Scommaaccent;
	sub scedilla by scommaaccent;
	sub Tcedilla by Tcommaaccent;
	sub tcedilla by tcommaaccent;
	language MOL;
	sub Scedilla by Scommaaccent;
	sub scedilla by scommaaccent;
	sub Tcedilla by Tcommaaccent;
	sub tcedilla by tcommaaccent;
} locl_latn_1;

lookup locl_latn_2 {
	script latn;

glyphs = (
{
glyphname = A;
kernLeft = A;
kernRight = A;
layers = (
{
layerId = m01;
shapes = (
{
closed = 1;
nodes = (
(99,0,l),
(333,678,l),
(303,678,l),
(536,0,l),
(615,0,l),
(374,700,l),
(261,700,l),
(20,0,l)
);
},
{
closed = 1;
nodes = (
(474,226,l),
(474,299,l),
(161,299,l),
(161,226,l)
);
}
);
width = 635;
},
{
layerId = m005;
shapes = (
{
closed = 1;
nodes = (
(156,0,l),
(384,678,l),
(319,678,l),
(545,0,l),
(685,0,l),
(451,700,l),
(250,700,l),
(16,0,l)
);
},
{
closed = 1;
nodes = (
(537,196,l),
(537,309,l),
(164,309,l),
(164,196,l)
);
}
);
width = 701;
},
{
layerId = m007;
shapes = (
{
closed = 1;
nodes = (
(80,0,l),
(317,678,l),
(305,678,l),
(541,0,l),
(599,0,l),
(355,700,l),
(266,700,l),
(22,0,l)
);
},
{
closed = 1;
nodes = (
(472,236,l),
(472,289,l),
(149,289,l),
(149,236,l)
);
}
);
width = 621;
},
{
layerId = m004;
shapes = (
{
closed = 1;
nodes = (
(53,0,l),
(419,678,l),
(389,678,l),
(490,0,l),
(566,0,l),
(461,700,l),
(348,700,l),
(-29,0,l)
);
},
{
closed = 1;
nodes = (
(472,226,l),
(486,299,l),
(173,299,l),
(159,226,l)
);
}
);
width = 635;
},
{
layerId = m008;
shapes = (
{
closed = 1;
nodes = (
(112,0,l),
(472,678,l),
(407,678,l),
(501,0,l),
(636,0,l),
(538,700,l),
(337,700,l),
(-33,0,l)
);
},
{
closed = 1;
nodes = (
(533,196,l),
(555,309,l),
(182,309,l),
(160,196,l)
);
}
);
width = 701;
},
{
layerId = m006;
shapes = (
{
closed = 1;
nodes = (
(34,0,l),
(403,678,l),
(391,678,l),
(495,0,l),
(550,0,l),
(442,700,l),
(353,700,l),
(-27,0,l)
);
},
{
closed = 1;
nodes = (
(472,236,l),
(482,289,l),
(159,289,l),
(149,236,l)
);
}
);
width = 621;
}
);
unicode = 65;
},
{
glyphname = AE;
kernLeft = A;
kernRight = E;
layers = (
{
layerId = m01;
shapes = (
{
closed = 1;
nodes = (
(795,627,l),
(795,700,l),
(364,700,l),
(364,627,l)
);
},
{
ref = A;
},
{
closed = 1;
nodes = (
(795,0,l),
(795,73,l),
(549,73,l),
(549,0,l)
);
},
{
closed = 1;
nodes = (
(735,327,l),
(735,400,l),
(445,400,l),
(445,327,l)
);
}
);
width = 850;
},
{
layerId = m005;
shapes = (
{
closed = 1;
nodes = (
(845,587,l),
(845,700,l),
(435,700,l),
(435,587,l)
);
},
{
ref = A;
},
{
closed = 1;
nodes = (
(845,0,l),
(845,113,l),
(586,113,l),
(586,0,l)
);
},
{
closed = 1;
nodes = (
(785,307,l),
(785,420,l),
(515,420,l),
(515,307,l)
);
}
);
width = 889;
},
{
layerId = m007;
shapes = (
{
closed = 1;
nodes = (
(785,647,l),
(785,700,l),
(344,700,l),
(344,647,l)
);
},
{
ref = A;
},
{
closed = 1;
nodes = (
(785,0,l),
(785,53,l),
(559,53,l),
(559,0,l)
);
},
{
closed = 1;
nodes = (
(725,337,l),
(725,390,l),
(445,390,l),
(445,337,l)
);
}
);
width = 846;
},
{
layerId = m004;
shapes = (
{
closed = 1;
nodes = (
(849,627,l),
(863,700,l),
(432,700,l),
(418,627,l)
);
},
{
ref = A;
},
{
closed = 1;
nodes = (
(727,0,l),
(741,73,l),
(495,73,l),
(481,0,l)
);
},
{
closed = 1;
nodes = (
(731,327,l),
(745,400,l),
(455,400,l),
(441,327,l)
);
}
);
width = 831;
},
{
layerId = m008;
shapes = (
{
closed = 1;
nodes = (
(891,587,l),
(913,700,l),
(503,700,l),
(481,587,l)
);
},
{
ref = A;
},
{
closed = 1;
nodes = (
(777,0,l),
(799,113,l),
(540,113,l),
(518,0,l)
);
},
{
closed = 1;
nodes = (
(777,307,l),
(799,420,l),
(529,420,l),
(507,307,l)
);
}
);
width = 870;
},
{
layerId = m006;
shapes = (
{
closed = 1;
nodes = (
(843,647,l),
(853,700,l),
(412,700,l),
(402,647,l)
);
},
{
ref = A;
},
{
closed = 1;
nodes = (
(717,0,l),
(727,53,l),
(501,53,l),
(491,0,l)
);
},
{
closed = 1;
nodes = (
(722,337,l),
(733,390,l),
(453,390,l),
(442,337,l)
);
}
);
width = 827;
}
);
metricLeft = A;
metricRight = E;
unicode = 198;
},
{
glyphname = B;
kernLeft = H;
kernRight = B;
layers = (
{
layerId = m01;
shapes = (
{
closed = 1;
nodes = (
(315,0,ls),
(444,0,o),
(536,80,o),
(536,193,cs),
(536,293,o),
(465,362,o),
(364,362,c),
(368,358,l),
(443,358,o),
(496,421,o),
(496,510,cs),
(496,624,o),
(407,700,o),
(275,700,cs),
(85,700,l),
(85,0,l)
);
},
{
closed = 1;
nodes = (
(158,319,l),
(315,319,ls),
(399,319,o),
(458,269,o),
(458,196,cs),
(458,123,o),
(399,73,o),
(315,73,cs),
(158,73,l)
);
},
{
closed = 1;
nodes = (
(158,627,l),
(275,627,ls),
(361,627,o),
(418,580,o),
(418,510,cs),
(418,440,o),
(360,392,o),
(275,392,cs),
(158,392,l)
);
}
);
width = 586;
},
{
layerId = m005;
shapes = (
{
closed = 1;
nodes = (
(308,0,ls),
(470,0,o),
(579,80,o),
(579,200,cs),
(579,303,o),
(499,369,o),
(374,369,c),
(378,354,l),
(475,354,o),
(539,414,o),
(539,506,cs),
(539,624,o),
(432,700,o),
(268,700,cs),
(68,700,l),
(68,0,l)
);
},
{
closed = 1;
nodes = (
(201,299,l),
(308,299,ls),
(391,299,o),
(441,264,o),
(441,206,cs),
(441,148,o),
(391,113,o),
(308,113,cs),
(201,113,l)
);
},
{
closed = 1;
nodes = (
(201,587,l),
(268,587,ls),
(353,587,o),
(401,555,o),
(401,499,cs),
(401,443,o),
(353,411,o),
(268,411,cs),
(201,411,l)
);
}
);
width = 619;
},
{
layerId = m007;
shapes = (
{
closed = 1;
nodes = (
(304,0,ls),
(435,0,o),
(525,77,o),
(525,189,cs),
(525,292,o),
(449,361,o),
(335,361,c),
(340,357,l),
(425,357,o),
(485,423,o),
(485,515,cs),
(485,626,o),
(396,700,o),
(264,700,cs),
(94,700,l),
(94,0,l)
);
},
{
closed = 1;
nodes = (
(147,329,l),
(304,329,ls),
(402,329,o),
(467,274,o),
(467,191,cs),
(467,108,o),
(402,53,o),
(304,53,cs),
(147,53,l)
);
},
{
closed = 1;
nodes = (
(147,647,l),
(264,647,ls),
(362,647,o),
(427,595,o),
(427,515,cs),
(427,435,o),
(362,382,o),
(264,382,cs),
(147,382,l)
);
}
);
width = 580;
},
{
layerId = m004;
shapes = (
{
closed = 1;
nodes = (
(270,0,ls),
(423,0,o),
(523,79,o),
(523,200,cs),
(523,294,o),
(463,361,o),
(380,361,c),
(378,358,l),
(475,358,o),
(545,428,o),
(545,525,cs),
(545,630,o),
(463,700,o),
(338,700,cs),
(172,700,l),
(36,0,l)
);
},
{
closed = 1;
nodes = (
(171,319,l),
(318,319,ls),
(393,319,o),
(447,269,o),
(447,198,cs),
(447,120,o),
(381,73,o),
(270,73,cs),
(123,73,l)
);
},
{
closed = 1;
nodes = (
(231,627,l),
(338,627,ls),
(416,627,o),
(467,584,o),
(467,518,cs),
(467,441,o),
(399,392,o),
(292,392,cs),
(185,392,l)
);
}
);
width = 587;
},
{
layerId = m008;
shapes = (
{
closed = 1;
nodes = (
(281,0,ls),
(453,0,o),
(565,81,o),
(565,204,cs),
(565,301,o),
(496,364,o),
(391,364,c),
(398,353,l),
(510,353,o),
(587,421,o),
(587,521,cs),
(587,632,o),
(491,700,o),
(333,700,cs),
(155,700,l),
(19,0,l)
);
},
{
closed = 1;
nodes = (
(210,299,l),
(317,299,ls),
(388,299,o),
(431,266,o),
(431,211,cs),
(431,150,o),
(375,113,o),
(281,113,cs),
(174,113,l)
);
},
{
closed = 1;
nodes = (
(266,587,l),
(333,587,ls),
(405,587,o),
(448,556,o),
(448,503,cs),
(448,444,o),
(395,411,o),
(299,411,cs),
(232,411,l)
);
}
);
width = 618;
},
{
layerId = m006;
shapes = (
{
closed = 1;
nodes = (
(265,0,ls),
(411,0,o),
(511,82,o),
(511,201,cs),
(511,296,o),
(448,361,o),
(358,361,c),
(359,357,l),
(462,357,o),
(536,429,o),
(536,530,cs),
(536,633,o),
(459,700,o),
(341,700,cs),
(181,700,l),
(45,0,l)
);
},
{
closed = 1;
nodes = (
(162,329,l),
(319,329,ls),
(399,329,o),
(454,276,o),
(454,201,cs),
(454,113,o),
(378,53,o),
(265,53,cs),
(108,53,l)
);
},
{
closed = 1;
nodes = (
(224,647,l),
(341,647,ls),
(422,647,o),
(477,596,o),
(477,523,cs),
(477,438,o),
(403,382,o),
(289,382,cs),
(172,382,l)
);
}
);
width = 579;
}
);
metricLeft = H;
unicode = 66;
},
{
glyphname = C;
kernLeft = O;
kernRight = O;
layers = (
{
layerId = m01;
shapes = (
{
closed = 1;
nodes = (
(536,-16,o),
(655,97,o),
(672,267,c),
(593,277,l),
(581,145,o),
(493,57,o),
(373,57,cs),
(232,57,o),
(133,178,o),
(133,350,cs),
(133,522,o),
(232,642,o),
(372,642,cs),
(491,642,o),
(577,555,o),
(592,418,c),
(672,428,l),
(656,601,o),
(537,716,o),
(374,716,cs),
(187,716,o),
(55,564,o),
(55,350,cs),
(55,136,o),
(187,-16,o),
(374,-16,cs)
);
}
);
width = 737;
},
{
layerId = m005;
shapes = (
{
closed = 1;
nodes = (
(572,-16,o),
(699,99,o),
(713,273,c),
(575,283,l),
(557,164,o),
(493,97,o),
(396,97,cs),
(272,97,o),
(182,203,o),
(182,350,cs),
(182,494,o),
(274,602,o),
(396,602,cs),
(493,602,o),
(559,533,o),
(575,412,c),
(713,422,l),
(699,599,o),
(573,716,o),
(396,716,cs),
(191,716,o),
(44,563,o),
(44,350,cs),
(44,137,o),
(192,-16,o),
(396,-16,cs)
);
}
);
width = 767;
},
{
layerId = m007;
shapes = (
{
closed = 1;
nodes = (
(526,-16,o),
(638,92,o),
(657,258,c),
(598,266,l),
(581,125,o),
(494,37,o),
(373,37,cs),
(226,37,o),
(119,168,o),
(119,350,cs),
(119,531,o),
(226,662,o),
(373,662,cs),
(493,662,o),
(576,575,o),
(597,428,c),
(657,437,l),
(638,607,o),
(527,716,o),
(373,716,cs),
(191,716,o),
(61,563,o),
(61,350,cs),
(61,137,o),
(191,-16,o),
(373,-16,cs)
);
}
);
width = 728;
},
{
layerId = m004;
shapes = (
{
closed = 1;
nodes = (
(500,-16,o),
(631,91,o),
(683,267,c),
(606,277,l),
(568,141,o),
(467,57,o),
(341,57,cs),
(228,57,o),
(150,151,o),
(150,286,cs),
(150,499,o),
(262,642,o),
(429,642,cs),
(530,642,o),
(603,557,o),
(622,417,c),
(704,427,l),
(687,602,o),
(581,716,o),
(436,716,cs),
(219,716,o),
(72,538,o),
(72,276,cs),
(72,105,o),
(182,-16,o),
(338,-16,cs)
);
}
);
width = 745;
},
{
layerId = m008;
shapes = (
{
closed = 1;
nodes = (
(542,-16,o),
(684,95,o),
(728,273,c),
(592,284,l),
(558,167,o),
(472,97,o),
(363,97,cs),
(267,97,o),
(200,179,o),
(200,297,cs),
(200,481,o),
(293,602,o),
(435,602,cs),
(519,602,o),
(579,533,o),
(603,412,c),
(744,422,l),
(727,597,o),
(607,716,o),
(446,716,cs),
(220,716,o),
(62,540,o),
(62,287,cs),
(62,111,o),
(188,-16,o),
(362,-16,cs)
);
}
);
width = 778;
},
{
layerId = m006;
shapes = (
{
closed = 1;
nodes = (
(498,-16,o),
(624,92,o),
(657,259,c),
(600,266,l),
(560,123,o),
(460,37,o),
(334,37,cs),
(216,37,o),
(137,139,o),
(137,291,cs),
(137,514,o),
(253,662,o),
(426,662,cs),
(532,662,o),
(608,573,o),
(623,428,c),
(686,436,l),
(666,607,o),
(565,716,o),
(427,716,cs),
(220,716,o),
(79,540,o),
(79,282,cs),
(79,106,o),
(184,-16,o),
(334,-16,cs)
);
}
);
width = 726;
}
);
metricLeft = O;
metricRight = "=O+10";
unicode = 67;
},
{
glyphname = D;
kernLeft = H;
kernRight = O;
layers = (
{
layerId = m01;
shapes = (
{
closed = 1;
nodes = (
(295,0,ls),
(491,0,o),
(623,141,o),
(623,350,cs),
(623,559,o),
(491,700,o),
(295,700,cs),
(85,700,l),
(85,0,l)
);
},
{
closed = 1;
nodes = (
(163,627,l),
(295,627,ls),
(444,627,o),
(545,515,o),
(545,350,cs),
(545,185,o),
(444,73,o),
(295,73,cs),
(163,73,l)
);
}
);
width = 678;
},
{
layerId = m005;
shapes = (
{
closed = 1;
nodes = (
(318,0,ls),
(522,0,o),
(666,144,o),
(666,350,cs),
(666,556,o),
(522,700,o),
(318,700,cs),
(68,700,l),
(68,0,l)
);
},
{
closed = 1;
nodes = (
(206,587,l),
(318,587,ls),
(442,587,o),
(528,490,o),
(528,350,cs),
(528,210,o),
(442,113,o),
(318,113,cs),
(206,113,l)
);
}
);
width = 710;
},
{
layerId = m007;
shapes = (
{
closed = 1;
nodes = (
(284,0,ls),
(481,0,o),
(612,140,o),
(612,350,cs),
(612,560,o),
(481,700,o),
(284,700,cs),
(94,700,l),
(94,0,l)
);
},
{
closed = 1;
nodes = (
(152,647,l),
(284,647,ls),
(446,647,o),
(554,529,o),
(554,350,cs),
(554,172,o),
(446,53,o),
(284,53,cs),
(152,53,l)
);
}
);
width = 673;
},
{
layerId = m004;
shapes = (
{
closed = 1;
nodes = (
(260,0,ls),
(486,0,o),
(649,160,o),
(649,381,cs),
(649,568,o),
(533,700,o),
(368,700,cs),
(172,700,l),
(36,0,l)
);
},
{
closed = 1;
nodes = (
(236,627,l),
(368,627,ls),
(489,627,o),
(573,527,o),
(573,384,cs),
(573,204,o),
(441,73,o),
(260,73,cs),
(128,73,l)
);
}
);
width = 687;
},
{
layerId = m008;
shapes = (
{
closed = 1;
nodes = (
(289,0,ls),
(522,0,o),
(688,158,o),
(688,378,cs),
(688,568,o),
(563,700,o),
(383,700,cs),
(155,700,l),
(19,0,l)
);
},
{
closed = 1;
nodes = (
(271,587,l),
(383,587,ls),
(487,587,o),
(557,504,o),
(557,380,cs),
(557,223,o),
(446,113,o),
(289,113,cs),
(179,113,l)
);
}
);
width = 715;
},
{
layerId = m006;
shapes = (
{
closed = 1;
nodes = (
(245,0,ls),
(467,0,o),
(628,163,o),
(628,387,cs),
(628,572,o),
(519,700,o),
(361,700,cs),
(181,700,l),
(45,0,l)
);
},
{
closed = 1;
nodes = (
(229,647,l),
(361,647,ls),
(486,647,o),
(571,542,o),
(571,389,cs),
(571,194,o),
(434,53,o),
(245,53,cs),
(113,53,l)
);
}
);
width = 671;
}
);
metricLeft = H;
metricRight = "=O";
unicode = 68;
},
{
glyphname = Eth;
kernLeft = H;
kernRight = O;
layers = (
{
layerId = m01;
shapes = (
{
closed = 1;
nodes = (
(305,323,l),
(305,377,l),
(15,377,l),
(15,323,l)
);
},
{
ref = D;
}
);
width = 678;
},
{
layerId = m005;
shapes = (
{
closed = 1;
nodes = (
(326,294,l),
(326,407,l),
(-2,407,l),
(-2,294,l)
);
},
{
pos = (-12,0);
ref = D;
}
);
width = 698;
},
{
layerId = m007;
shapes = (
{
closed = 1;
nodes = (
(304,330,l),
(304,370,l),
(24,370,l),
(24,330,l)
);
},
{
pos = (4,0);
ref = D;
}
);
width = 677;
},
{
layerId = m004;
shapes = (
{
closed = 1;
nodes = (
(320,323,l),
(330,377,l),
(40,377,l),
(30,323,l)
);
},
{
ref = D;
}
);
width = 687;
},
{
layerId = m008;
shapes = (
{
closed = 1;
nodes = (
(335,294,l),
(357,407,l),
(29,407,l),
(7,294,l)
);
},
{
pos = (-12,0);
ref = D;
}
);
width = 703;
},
{
layerId = m006;
shapes = (
{
closed = 1;
nodes = (
(320,330,l),
(328,370,l),
(48,370,l),
(40,330,l)
);
},
{
pos = (4,0);
ref = D;
}
);
width = 675;
}
);
metricLeft = "=D-70";
metricRight = D;
unicode = 208;
},
{
glyphname = Dcroat;
kernLeft = H;
kernRight = O;
layers = (
{
layerId = m01;
shapes = (
{
closed = 1;
nodes = (
(305,323,l),
(305,377,l),
(15,377,l),
(15,323,l)
);
},
{
pos = (20,0);
ref = D;
}
);
width = 698;
},
{
layerId = m005;
shapes = (
{
closed = 1;
nodes = (
(326,294,l),
(326,407,l),
(-2,407,l),
(-2,294,l)
);
},
{
pos = (8,0);
ref = D;
}
);
width = 718;
},
{
layerId = m007;
shapes = (
{
closed = 1;
nodes = (
(304,330,l),
(304,370,l),
(24,370,l),
(24,330,l)
);
},
{
pos = (19,0);
ref = D;
}
);
width = 692;
},
{
layerId = m004;
shapes = (
{
closed = 1;
nodes = (
(320,323,l),
(330,377,l),
(40,377,l),
(30,323,l)
);
},
{
pos = (10,0);
ref = D;
}
);
width = 697;
},
{
layerId = m008;
shapes = (
{
closed = 1;
nodes = (
(335,294,l),
(357,407,l),
(29,407,l),
(7,294,l)
);
},
{
pos = (-2,0);
ref = D;
}
);
width = 713;
},
{
layerId = m006;
shapes = (
{
closed = 1;
nodes = (
(320,330,l),
(328,370,l),
(48,370,l),
(40,330,l)
);
},
{
pos = (-1,0);
ref = D;
}
);
width = 670;
}
);
metricLeft = "=D-70";
metricRight = D;
unicode = 272;
},
{
glyphname = E;
kernLeft = H;
kernRight = E;
layers = (
{
layerId = m01;
shapes = (
{
closed = 1;
nodes = (
(493,0,l),
(493,73,l),
(163,73,l),
(163,327,l),
(433,327,l),
(433,400,l),
(163,400,l),
(163,627,l),
(493,627,l),
(493,700,l),
(85,700,l),
(85,0,l)
);
}
);
width = 548;
},
{
layerId = m005;
shapes = (
{
closed = 1;
nodes = (
(536,0,l),
(536,113,l),
(206,113,l),
(206,307,l),
(476,307,l),
(476,420,l),
(206,420,l),
(206,587,l),
(536,587,l),
(536,700,l),
(68,700,l),
(68,0,l)
);
}
);
width = 580;
},
{
layerId = m007;
shapes = (
{
closed = 1;
nodes = (
(482,0,l),
(482,53,l),
(152,53,l),
(152,337,l),
(422,337,l),
(422,390,l),
(152,390,l),
(152,647,l),
(482,647,l),
(482,700,l),
(94,700,l),
(94,0,l)
);
}
);
width = 543;
},
{
layerId = m004;
shapes = (
{
closed = 1;
nodes = (
(444,0,l),
(458,73,l),
(128,73,l),
(178,327,l),
(448,327,l),
(462,400,l),
(192,400,l),
(236,627,l),
(566,627,l),
(580,700,l),
(172,700,l),
(36,0,l)
);
}
);
width = 548;
},
{
layerId = m008;
shapes = (
{
closed = 1;
nodes = (
(487,0,l),
(509,113,l),
(179,113,l),
(217,307,l),
(487,307,l),
(509,420,l),
(239,420,l),
(271,587,l),
(601,587,l),
(623,700,l),
(155,700,l),
(19,0,l)
);
}
);
width = 580;
},
{
layerId = m006;
shapes = (
{
closed = 1;
nodes = (
(433,0,l),
(443,53,l),
(113,53,l),
(168,337,l),
(438,337,l),
(449,390,l),
(179,390,l),
(229,647,l),
(559,647,l),
(569,700,l),
(181,700,l),
(45,0,l)
);
}
);
width = 543;
}
);
metricLeft = H;
unicode = 69;
},
{
glyphname = F;
kernLeft = H;
kernRight = F;
layers = (
{
layerId = m01;
shapes = (
{
closed = 1;
nodes = (
(163,0,l),
(163,327,l),
(443,327,l),
(443,400,l),
(163,400,l),
(163,627,l),
(493,627,l),
(493,700,l),
(85,700,l),
(85,0,l)
);
}
);
width = 533;
},
{
layerId = m005;
shapes = (
{
closed = 1;
nodes = (
(206,0,l),
(206,307,l),
(486,307,l),
(486,420,l),
(206,420,l),
(206,587,l),
(536,587,l),
(536,700,l),
(68,700,l),
(68,0,l)
);
}
);
width = 568;
},
{
layerId = m007;
shapes = (
{
closed = 1;
nodes = (
(152,0,l),
(152,337,l),
(432,337,l),
(432,390,l),
(152,390,l),
(152,647,l),
(482,647,l),
(482,700,l),
(94,700,l),
(94,0,l)
);
}
);
width = 526;
},
{
layerId = m004;
shapes = (
{
closed = 1;
nodes = (
(114,0,l),
(178,327,l),
(458,327,l),
(472,400,l),
(192,400,l),
(236,627,l),
(566,627,l),
(580,700,l),
(172,700,l),
(36,0,l)
);
}
);
width = 533;
},
{
layerId = m008;
shapes = (
{
closed = 1;
nodes = (
(153,0,l),
(214,307,l),
(497,307,l),
(519,420,l),
(237,420,l),
(270,587,l),
(601,587,l),
(623,700,l),
(155,700,l),
(19,0,l)
);
}
);
width = 568;
},
{
layerId = m006;
shapes = (
{
closed = 1;
nodes = (
(103,0,l),
(168,337,l),
(448,337,l),
(459,390,l),
(179,390,l),
(229,647,l),
(559,647,l),
(569,700,l),
(181,700,l),
(45,0,l)
);
}
);
width = 526;
}
);
metricLeft = H;
unicode = 70;
},
{
glyphname = G;
kernLeft = O;
kernRight = G;
layers = (
{
layerId = m01;
shapes = (
{
closed = 1;
nodes = (
(548,-16,o),
(660,113,o),
(660,311,c),
(652,262,l),
(637,0,l),
(710,0,l),
(710,354,l),
(382,354,l),
(382,281,l),
(625,281,l),
(605,148,o),
(504,57,o),
(377,57,cs),
(232,57,o),
(133,176,o),
(133,350,cs),
(133,524,o),
(232,642,o),
(377,642,cs),
(504,642,o),
(599,551,o),
(607,421,c),
(685,431,l),
(673,597,o),
(545,715,o),
(377,715,cs),
(188,715,o),
(55,564,o),
(55,351,cs),
(55,137,o),
(190,-16,o),
(377,-16,cs)
);
}
);
width = 795;
},
{
layerId = m005;
shapes = (
{
closed = 1;
nodes = (
(570,-16,o),
(670,96,o),
(679,301,c),
(659,291,l),
(625,0,l),
(759,0,l),
(759,354,l),
(371,354,l),
(371,241,l),
(609,241,l),
(597,160,o),
(504,97,o),
(397,97,cs),
(264,97,o),
(182,194,o),
(182,350,cs),
(182,506,o),
(263,602,o),
(396,602,cs),
(510,602,o),
(590,531,o),
(596,425,c),
(735,435,l),
(730,593,o),
(583,715,o),
(397,715,cs),
(191,715,o),
(44,564,o),
(44,351,cs),
(44,138,o),
(192,-16,o),
(396,-16,cs)
);
}
);
width = 827;
},
{
layerId = m007;
shapes = (
{
closed = 1;
nodes = (
(537,-16,o),
(650,107,o),
(666,301,c),
(658,309,l),
(644,0,l),
(696,0,l),
(696,344,l),
(388,344,l),
(388,291,l),
(632,291,l),
(616,142,o),
(509,37,o),
(373,37,cs),
(223,37,o),
(119,165,o),
(119,350,cs),
(119,535,o),
(222,662,o),
(373,662,cs),
(502,662,o),
(598,570,o),
(612,432,c),
(670,440,l),
(653,602,o),
(532,715,o),
(373,715,cs),
(190,715,o),
(61,564,o),
(61,350,cs),
(61,136,o),
(190,-16,o),
(373,-16,cs)
);
}
);
width = 790;
},
{
layerId = m004;
shapes = (
{
closed = 1;
nodes = (
(520,-16,o),
(641,108,o),
(680,311,c),
(663,262,l),
(597,0,l),
(670,0,l),
(739,354,l),
(411,354,l),
(397,281,l),
(640,281,l),
(590,140,o),
(491,57,o),
(372,57,cs),
(243,57,o),
(151,156,o),
(151,295,cs),
(151,499,o),
(269,642,o),
(438,642,cs),
(554,642,o),
(637,555,o),
(649,421,c),
(729,431,l),
(714,601,o),
(599,715,o),
(440,715,cs),
(224,715,o),
(73,538,o),
(73,285,cs),
(73,109,o),
(193,-16,o),
(361,-16,cs)
);
}
);
width = 804;
},
{
layerId = m008;
shapes = (
{
closed = 1;
nodes = (
(514,-16,o),
(633,99,o),
(676,287,c),
(650,245,l),
(579,0,l),
(713,0,l),
(790,354,l),
(402,354,l),
(380,241,l),
(618,241,l),
(556,148,o),
(474,97,o),
(385,97,cs),
(275,97,o),
(198,178,o),
(198,294,cs),
(198,475,o),
(302,602,o),
(452,602,cs),
(556,602,o),
(631,530,o),
(636,424,c),
(776,434,l),
(768,601,o),
(640,715,o),
(459,715,cs),
(225,715,o),
(60,534,o),
(60,277,cs),
(60,107,o),
(186,-16,o),
(360,-16,cs)
);
}
);
width = 838;
},
{
layerId = m006;
shapes = (
{
closed = 1;
nodes = (
(510,-16,o),
(635,101,o),
(691,298,c),
(665,249,l),
(606,0,l),
(658,0,l),
(723,334,l),
(415,334,l),
(405,281,l),
(650,281,l),
(605,130,o),
(497,37,o),
(366,37,cs),
(231,37,o),
(137,139,o),
(137,285,cs),
(137,510,o),
(258,662,o),
(437,662,cs),
(554,662,o),
(635,573,o),
(645,432,c),
(705,440,l),
(697,605,o),
(590,715,o),
(439,715,cs),
(227,715,o),
(79,537,o),
(79,281,cs),
(79,107,o),
(193,-16,o),
(354,-16,cs)
);
}
);
width = 801;
}
);
metricLeft = O;
metricRight = "=H";
unicode = 71;
},
{
glyphname = H;
kernLeft = H;
kernRight = H;
layers = (
{
layerId = m01;
shapes = (
{
closed = 1;
nodes = (
(163,0,l),
(163,327,l),
(503,327,l),
(503,0,l),
(581,0,l),
(581,700,l),
(503,700,l),
(503,400,l),
(163,400,l),
(163,700,l),
(85,700,l),
(85,0,l)
);
}
);
width = 666;
},
{
layerId = m005;
shapes = (
{
closed = 1;
nodes = (
(206,0,l),
(206,307,l),
(486,307,l),
(486,0,l),
(624,0,l),
(624,700,l),
(486,700,l),
(486,420,l),
(206,420,l),
(206,700,l),
(68,700,l),
(68,0,l)
);
}
);
width = 692;
},
{
layerId = m007;
shapes = (
{
closed = 1;
nodes = (
(152,0,l),
(152,337,l),
(512,337,l),
(512,0,l),
(570,0,l),
(570,700,l),
(512,700,l),
(512,390,l),
(152,390,l),
(152,700,l),
(94,700,l),
(94,0,l)
);
}
);
width = 664;
},
{
layerId = m004;
shapes = (
{
closed = 1;
nodes = (
(114,0,l),
(178,327,l),
(518,327,l),
(454,0,l),
(532,0,l),
(668,700,l),
(590,700,l),
(532,400,l),
(192,400,l),
(250,700,l),
(172,700,l),
(36,0,l)
);
}
);
width = 666;
},
{
layerId = m008;
shapes = (
{
closed = 1;
nodes = (
(157,0,l),
(217,307,l),
(497,307,l),
(437,0,l),
(575,0,l),
(711,700,l),
(573,700,l),
(519,420,l),
(239,420,l),
(293,700,l),
(155,700,l),
(19,0,l)
);
}
);
width = 692;
},
{
layerId = m006;
shapes = (
{
closed = 1;
nodes = (
(103,0,l),
(168,337,l),
(528,337,l),
(463,0,l),
(521,0,l),
(657,700,l),
(599,700,l),
(539,390,l),
(179,390,l),
(239,700,l),
(181,700,l),
(45,0,l)
);
}
);
width = 664;
}
);
unicode = 72;
},
{
glyphname = Hbar;
kernLeft = H;
kernRight = H;
layers = (
{
layerId = m01;
shapes = (
{
closed = 1;
nodes = (
(656,530,l),
(656,590,l),
(20,590,l),
(20,530,l)
);
},
{
pos = (5,0);
ref = H;
}
);
width = 676;
},
{
layerId = m005;
shapes = (
{
closed = 1;
nodes = (
(669,520,l),
(669,600,l),
(3,600,l),
(3,520,l)
);
},
{
pos = (-10,0);
ref = H;
}
);
width = 672;
},
{
layerId = m007;
shapes = (
{
closed = 1;
nodes = (
(645,540,l),
(645,580,l),
(29,580,l),
(29,540,l)
);
},
{
pos = (5,0);
ref = H;
}
);
width = 674;
},
{
layerId = m004;
shapes = (
{
closed = 1;
nodes = (
(710,530,l),
(722,590,l),
(86,590,l),
(74,530,l)
);
},
{
pos = (4,0);
ref = H;
}
);
width = 676;
},
{
layerId = m008;
shapes = (
{
closed = 1;
nodes = (
(711,520,l),
(727,600,l),
(71,600,l),
(55,520,l)
);
},
{
pos = (-16,0);
ref = H;
}
);
width = 662;
},
{
layerId = m006;
shapes = (
{
closed = 1;
nodes = (
(701,540,l),
(709,580,l),
(93,580,l),
(85,540,l)
);
},
{
pos = (3,0);
ref = H;
}
);
width = 674;
}
);
metricLeft = "=H-65";
metricRight = "=H-65";
unicode = 294;
},
{
glyphname = I;
kernLeft = H;
kernRight = H;
layers = (
{
layerId = m01;
shapes = (
{
closed = 1;
nodes = (
(163,0,l),
(163,700,l),
(85,700,l),
(85,0,l)
);
}
);
width = 248;
},
{
layerId = m005;
shapes = (
{
closed = 1;
nodes = (
(206,0,l),
(206,700,l),
(68,700,l),
(68,0,l)
);
}
);
width = 274;
},
{
layerId = m007;
shapes = (
{
closed = 1;
nodes = (
(152,0,l),
(152,700,l),
(94,700,l),
(94,0,l)
);
}
);
width = 246;
},
{
layerId = m004;
shapes = (
{
closed = 1;
nodes = (
(114,0,l),
(250,700,l),
(172,700,l),
(36,0,l)
);
}
);
width = 248;
},
{
layerId = m008;
shapes = (
{
closed = 1;
nodes = (
(157,0,l),
(293,700,l),
(155,700,l),
(19,0,l)
);
}
);
width = 274;
},
{
layerId = m006;
shapes = (
{
closed = 1;
nodes = (
(103,0,l),
(239,700,l),
(181,700,l),
(45,0,l)
);
}
);
width = 246;
}
);
metricLeft = H;
metricRight = H;
unicode = 73;
},
{
glyphname = J;
kernLeft = J;
kernRight = U;
layers = (
{
layerId = m01;
shapes = (
{
closed = 1;
nodes = (
(386,-16,o),
(475,78,o),
(475,212,cs),
(475,700,l),
(397,700,l),
(397,212,ls),
(397,120,o),
(341,57,o),
(258,57,cs),
(175,57,o),
(118,120,o),
(118,212,cs),
(118,270,l),
(40,270,l),
(40,212,ls),
(40,78,o),
(130,-16,o),
(258,-16,cs)
);
}
);
width = 555;
},
{
layerId = m005;
shapes = (
{
closed = 1;
nodes = (
(425,-16,o),
(527,86,o),
(527,232,cs),
(527,700,l),
(389,700,l),
(389,232,ls),
(389,151,o),
(345,97,o),
(280,97,cs),
(215,97,o),
(170,152,o),
(170,232,cs),
(170,270,l),
(32,270,l),
(32,232,ls),
(32,87,o),
(135,-16,o),
(280,-16,cs)
);
}
);
width = 591;
},
{
layerId = m007;
shapes = (
{
closed = 1;
nodes = (
(375,-16,o),
(459,72,o),
(459,202,cs),
(459,700,l),
(401,700,l),
(401,202,ls),
(401,103,o),
(341,37,o),
(252,37,cs),
(162,37,o),
(102,103,o),
(102,202,cs),
(102,270,l),
(44,270,l),
(44,202,ls),
(44,72,o),
(128,-16,o),
(251,-16,cs)
);
}
);
width = 547;
},
{
layerId = m004;
shapes = (
{
closed = 1;
nodes = (
(341,-16,o),
(437,73,o),
(464,212,cs),
(559,700,l),
(481,700,l),
(386,212,ls),
(368,119,o),
(302,57,o),
(223,57,cs),
(141,57,o),
(94,123,o),
(111,212,cs),
(122,270,l),
(44,270,l),
(33,212,ls),
(8,84,o),
(90,-16,o),
(219,-16,cs)
);
}
);
width = 552;
},
{
layerId = m008;
shapes = (
{
closed = 1;
nodes = (
(383,-16,o),
(485,82,o),
(516,242,cs),
(605,700,l),
(467,700,l),
(378,242,ls),
(360,149,o),
(316,97,o),
(255,97,cs),
(189,97,o),
(154,156,o),
(169,242,cs),
(174,270,l),
(36,270,l),
(31,242,ls),
(4,98,o),
(100,-16,o),
(247,-16,cs)
);
}
);
width = 582;
},
{
layerId = m006;
shapes = (
{
closed = 1;
nodes = (
(326,-16,o),
(413,67,o),
(440,202,cs),
(537,700,l),
(479,700,l),
(382,202,ls),
(363,101,o),
(299,37,o),
(216,37,cs),
(128,37,o),
(74,109,o),
(93,202,cs),
(106,270,l),
(48,270,l),
(35,202,ls),
(12,80,o),
(91,-16,o),
(213,-16,cs)
);
}
);
width = 538;
}
);
unicode = 74;
},
{
glyphname = K;
kernLeft = H;
kernRight = K;
layers = (
{
layerId = m01;
shapes = (
{
closed = 1;
nodes = (
(557,700,l),
(467,700,l),
(101,280,l),
(154,234,l)
);
},
{
closed = 1;
nodes = (
(163,0,l),
(163,700,l),
(85,700,l),
(85,0,l)
);
},
{
closed = 1;
nodes = (
(586,0,l),
(307,422,l),
(239,392,l),
(496,0,l)
);
}
);
width = 606;
},
{
layerId = m005;
shapes = (
{
closed = 1;
nodes = (
(621,700,l),
(463,700,l),
(79,279,l),
(171,199,l)
);
},
{
closed = 1;
nodes = (
(206,0,l),
(206,700,l),
(68,700,l),
(68,0,l)
);
},
{
closed = 1;
nodes = (
(645,0,l),
(333,451,l),
(215,399,l),
(490,0,l)
);
}
);
width = 661;
},
{
layerId = m007;
shapes = (
{
closed = 1;
nodes = (
(534,700,l),
(471,700,l),
(114,281,l),
(152,248,l)
);
},
{
closed = 1;
nodes = (
(152,0,l),
(152,700,l),
(94,700,l),
(94,0,l)
);
},
{
closed = 1;
nodes = (
(566,0,l),
(284,437,l),
(253,388,l),
(500,0,l)
);
}
);
width = 588;
},
{
layerId = m004;
shapes = (
{
closed = 1;
nodes = (
(644,700,l),
(544,700,l),
(96,280,l),
(150,234,l)
);
},
{
closed = 1;
nodes = (
(114,0,l),
(250,700,l),
(172,700,l),
(36,0,l)
);
},
{
closed = 1;
nodes = (
(537,0,l),
(340,422,l),
(274,392,l),
(455,0,l)
);
}
);
width = 606;
},
{
layerId = m008;
shapes = (
{
closed = 1;
nodes = (
(708,700,l),
(535,700,l),
(107,313,l),
(161,199,l)
);
},
{
closed = 1;
nodes = (
(157,0,l),
(293,700,l),
(155,700,l),
(19,0,l)
);
},
{
closed = 1;
nodes = (
(596,0,l),
(372,451,l),
(252,399,l),
(449,0,l)
);
}
);
width = 661;
},
{
layerId = m006;
shapes = (
{
closed = 1;
nodes = (
(621,700,l),
(553,700,l),
(115,281,l),
(151,248,l)
);
},
{
closed = 1;
nodes = (
(103,0,l),
(239,700,l),
(181,700,l),
(45,0,l)
);
},
{
closed = 1;
nodes = (
(517,0,l),
(320,437,l),
(287,388,l),
(459,0,l)
);
}
);
width = 588;
}
);
metricLeft = H;
unicode = 75;
},
{
glyphname = L;
kernLeft = H;
kernRight = L;
layers = (
{
layerId = m01;
shapes = (
{
closed = 1;
nodes = (
(488,0,l),
(488,73,l),
(163,73,l),
(163,700,l),
(85,700,l),
(85,0,l)
);
}
);
width = 508;
},
{
layerId = m005;
shapes = (
{
closed = 1;
nodes = (
(531,0,l),
(531,113,l),
(206,113,l),
(206,700,l),
(68,700,l),
(68,0,l)
);
}
);
width = 547;
},
{
layerId = m007;
shapes = (
{
closed = 1;
nodes = (
(477,0,l),
(477,53,l),
(152,53,l),
(152,700,l),
(94,700,l),
(94,0,l)
);
}
);
width = 499;
},
{
layerId = m004;
shapes = (
{
closed = 1;
nodes = (
(439,0,l),
(453,73,l),
(128,73,l),
(250,700,l),
(172,700,l),
(36,0,l)
);
}
);
width = 508;
},
{
layerId = m008;
shapes = (
{
closed = 1;
nodes = (
(482,0,l),
(504,113,l),
(179,113,l),
(293,700,l),
(155,700,l),
(19,0,l)
);
}
);
width = 547;
},
{
layerId = m006;
shapes = (
{
closed = 1;
nodes = (
(428,0,l),
(438,53,l),
(113,53,l),
(239,700,l),
(181,700,l),
(45,0,l)
);
}
);
width = 499;
}
);
metricLeft = H;
unicode = 76;
},
{
glyphname = Lslash;
kernLeft = Lslash;
kernRight = L;
layers = (
{
layerId = m01;
shapes = (
{
closed = 1;
nodes = (
(365,390,l),
(365,450,l),
(25,310,l),
(25,250,l)
);
},
{
pos = (20,0);
ref = L;
}
);
width = 528;
},
{
layerId = m005;
shapes = (
{
closed = 1;
nodes = (
(368,373,l),
(368,475,l),
(8,327,l),
(8,225,l)
);
},
{
pos = (19,0);
ref = L;
}
);
width = 566;
},
{
layerId = m007;
shapes = (
{
closed = 1;
nodes = (
(354,402,l),
(354,440,l),
(34,298,l),
(34,260,l)
);
},
{
pos = (24,0);
ref = L;
}
);
width = 523;
},
{
layerId = m004;
shapes = (
{
closed = 1;
nodes = (
(393,390,l),
(404,450,l),
(37,310,l),
(26,250,l)
);
},
{
pos = (20,0);
ref = L;
}
);
width = 528;
},
{
layerId = m008;
shapes = (
{
closed = 1;
nodes = (
(391,373,l),
(411,475,l),
(23,327,l),
(3,225,l)
);
},
{
pos = (13,0);
ref = L;
}
);
width = 560;
},
{
layerId = m006;
shapes = (
{
closed = 1;
nodes = (
(383,402,l),
(390,440,l),
(43,298,l),
(36,260,l)
);
},
{
pos = (23,0);
ref = L;
}
);
width = 522;
}
);
metricLeft = "=L-60";
metricRight = L;
unicode = 321;
},
{
glyphname = M;
kernLeft = H;
kernRight = H;
layers = (
{
layerId = m01;
shapes = (
{
closed = 1;
nodes = (
(163,0,l),
(163,645,l),
(153,645,l),
(386,0,l),
(462,0,l),
(695,645,l),
(685,645,l),
(685,0,l),
(763,0,l),
(763,700,l),
(641,700,l),
(425,101,l),
(423,101,l),
(206,700,l),
(85,700,l),
(85,0,l)
);
}
);
width = 848;
},
{
layerId = m005;
shapes = (
{
closed = 1;
nodes = (
(206,0,l),
(206,572,l),
(165,572,l),
(386,0,l),
(488,0,l),
(709,572,l),
(668,572,l),
(668,0,l),
(806,0,l),
(806,700,l),
(626,700,l),
(410,131,l),
(464,131,l),
(247,700,l),
(68,700,l),
(68,0,l)
);
}
);
width = 874;
},
{
layerId = m007;
shapes = (
{
closed = 1;
nodes = (
(152,0,l),
(152,632,l),
(149,632,l),
(390,0,l),
(436,0,l),
(677,632,l),
(674,632,l),
(674,0,l),
(732,0,l),
(732,700,l),
(645,700,l),
(409,81,l),
(417,81,l),
(180,700,l),
(94,700,l),
(94,0,l)
);
}
);
width = 826;
},
{
layerId = m004;
shapes = (
{
closed = 1;
nodes = (
(114,0,l),
(242,657,l),
(226,665,l),
(337,0,l),
(417,0,l),
(787,667,l),
(765,665,l),
(636,0,l),
(714,0,l),
(850,700,l),
(728,700,l),
(376,65,l),
(400,65,l),
(293,700,l),
(172,700,l),
(36,0,l)
);
}
);
width = 848;
},
{
layerId = m008;
shapes = (
{
closed = 1;
nodes = (
(152,0,l),
(263,572,l),
(222,572,l),
(332,0,l),
(439,0,l),
(771,572,l),
(725,572,l),
(614,0,l),
(757,0,l),
(893,700,l),
(708,700,l),
(381,131,l),
(435,131,l),
(329,700,l),
(155,700,l),
(19,0,l)
);
}
);
width = 874;
},
{
layerId = m006;
shapes = (
{
closed = 1;
nodes = (
(103,0,l),
(226,632,l),
(223,632,l),
(341,0,l),
(387,0,l),
(751,632,l),
(748,632,l),
(625,0,l),
(683,0,l),
(819,700,l),
(732,700,l),
(376,81,l),
(384,81,l),
(267,700,l),
(181,700,l),
(45,0,l)
);
}
);
width = 826;
}
);
metricLeft = H;
metricRight = H;
unicode = 77;
},
{
glyphname = N;
kernLeft = H;
kernRight = H;
layers = (
{
layerId = m01;
shapes = (
{
closed = 1;
nodes = (
(164,0,l),
(164,648,l),
(138,641,l),
(532,0,l),
(631,0,l),
(631,700,l),
(552,700,l),
(552,52,l),
(577,59,l),
(184,700,l),
(85,700,l),
(85,0,l)
);
}
);
width = 716;
},
{
layerId = m005;
shapes = (
{
closed = 1;
nodes = (
(207,0,l),
(207,534,l),
(183,527,l),
(515,0,l),
(664,0,l),
(664,700,l),
(525,700,l),
(525,166,l),
(549,173,l),
(217,700,l),
(68,700,l),
(68,0,l)
);
}
);
width = 732;
},
{
layerId = m007;
shapes = (
{
closed = 1;
nodes = (
(152,0,l),
(152,677,l),
(126,670,l),
(536,0,l),
(613,0,l),
(613,700,l),
(555,700,l),
(555,23,l),
(581,30,l),
(171,700,l),
(94,700,l),
(94,0,l)
);
}
);
width = 707;
},
{
layerId = m004;
shapes = (
{
closed = 1;
nodes = (
(115,0,l),
(241,647,l),
(219,645,l),
(483,0,l),
(582,0,l),
(718,700,l),
(639,700,l),
(513,53,l),
(535,55,l),
(271,700,l),
(172,700,l),
(36,0,l)
);
}
);
width = 716;
},
{
layerId = m008;
shapes = (
{
closed = 1;
nodes = (
(153,0,l),
(257,533,l),
(230,530,l),
(461,0,l),
(615,0,l),
(751,700,l),
(607,700,l),
(503,167,l),
(530,170,l),
(299,700,l),
(155,700,l),
(19,0,l)
);
}
);
width = 732;
},
{
layerId = m006;
shapes = (
{
closed = 1;
nodes = (
(104,0,l),
(236,676,l),
(210,674,l),
(488,0,l),
(566,0,l),
(702,700,l),
(643,700,l),
(511,24,l),
(537,26,l),
(259,700,l),
(181,700,l),
(45,0,l)
);
}
);
width = 709;
}
);
metricLeft = H;
metricRight = H;
unicode = 78;
},
{
glyphname = Eng;
kernLeft = H;
kernRight = H;
layers = (
{
layerId = m01;
shapes = (
{
closed = 1;
nodes = (
(491,-200,ls),
(585,-200,o),
(631,-154,o),
(631,-60,cs),
(631,0,l),
(556,0,l),
(556,-67,ls),
(556,-107,o),
(536,-127,o),
(496,-127,cs),
(406,-127,l),
(406,-200,l)
);
},
{
ref = N;
}
);
width = 716;
},
{
layerId = m005;
shapes = (
{
closed = 1;
nodes = (
(494,-200,ls),
(608,-200,o),
(664,-147,o),
(664,-40,cs),
(664,0,l),
(529,0,l),
(529,-27,ls),
(529,-67,o),
(509,-87,o),
(469,-87,cs),
(379,-87,l),
(379,-200,l)
);
},
{
ref = N;
}
);
width = 732;
},
{
layerId = m007;
shapes = (
{
closed = 1;
nodes = (
(483,-200,ls),
(570,-200,o),
(613,-157,o),
(613,-70,cs),
(613,0,l),
(558,0,l),
(558,-77,ls),
(558,-124,o),
(535,-147,o),
(488,-147,cs),
(408,-147,l),
(408,-200,l)
);
},
{
ref = N;
}
);
width = 707;
},
{
layerId = m004;
shapes = (
{
closed = 1;
nodes = (
(422,-200,ls),
(490,-200,o),
(553,-146,o),
(570,-60,cs),
(582,0,l),
(507,0,l),
(494,-67,ls),
(487,-104,o),
(459,-127,o),
(422,-127,cs),
(332,-127,l),
(318,-200,l)
);
},
{
ref = N;
}
);
width = 716;
},
{
layerId = m008;
shapes = (
{
closed = 1;
nodes = (
(413,-200,ls),
(514,-200,o),
(586,-149,o),
(602,-67,cs),
(615,0,l),
(480,0,l),
(475,-27,ls),
(468,-64,o),
(444,-87,o),
(413,-87,cs),
(313,-87,l),
(291,-200,l)
);
},
{
ref = N;
}
);
width = 732;
},
{
layerId = m006;
shapes = (
{
closed = 1;
nodes = (
(412,-200,ls),
(484,-200,o),
(535,-152,o),
(552,-70,cs),
(566,0,l),
(511,0,l),
(496,-77,ls),
(487,-121,o),
(456,-147,o),
(412,-147,cs),
(332,-147,l),
(322,-200,l)
);
},
{
ref = N;
}
);
width = 709;
}
);
metricLeft = N;
metricRight = H;
unicode = 330;
},
{
glyphname = O;
kernLeft = O;
kernRight = O;
layers = (
{
layerId = m01;
shapes = (
{
closed = 1;
nodes = (
(566,-16,o),
(699,135,o),
(699,350,cs),
(699,565,o),
(566,716,o),
(377,716,cs),
(188,716,o),
(55,565,o),
(55,350,cs),
(55,135,o),
(188,-16,o),
(377,-16,cs)
);
},
{
closed = 1;
nodes = (
(233,57,o),
(133,177,o),
(133,350,cs),
(133,523,o),
(233,643,o),
(377,643,cs),
(521,643,o),
(621,523,o),
(621,350,cs),
(621,177,o),
(521,57,o),
(377,57,cs)
);
}
);
width = 754;
},
{
layerId = m005;
shapes = (
{
closed = 1;
nodes = (
(603,-16,o),
(748,135,o),
(748,350,cs),
(748,565,o),
(603,716,o),
(396,716,cs),
(189,716,o),
(44,565,o),
(44,350,cs),
(44,135,o),
(189,-16,o),
(396,-16,cs)
);
},
{
closed = 1;
nodes = (
(269,97,o),
(182,199,o),
(182,350,cs),
(182,501,o),
(269,603,o),
(396,603,cs),
(523,603,o),
(610,501,o),
(610,350,cs),
(610,199,o),
(523,97,o),
(396,97,cs)
);
}
);
width = 792;
},
{
layerId = m007;
shapes = (
{
closed = 1;
nodes = (
(557,-16,o),
(685,134,o),
(685,350,cs),
(685,566,o),
(557,716,o),
(373,716,cs),
(189,716,o),
(61,566,o),
(61,350,cs),
(61,134,o),
(189,-16,o),
(373,-16,cs)
);
},
{
closed = 1;
nodes = (
(223,37,o),
(119,165,o),
(119,350,cs),
(119,535,o),
(223,663,o),
(373,663,cs),
(523,663,o),
(627,535,o),
(627,350,cs),
(627,165,o),
(523,37,o),
(373,37,cs)
);
}
);
width = 746;
},
{
layerId = m004;
shapes = (
{
closed = 1;
nodes = (
(572,-16,o),
(718,182,o),
(718,420,cs),
(718,583,o),
(601,716,o),
(457,716,cs),
(218,716,o),
(71,516,o),
(71,277,cs),
(71,115,o),
(189,-16,o),
(334,-16,cs)
);
},
{
closed = 1;
nodes = (
(220,57,o),
(149,164,o),
(149,287,cs),
(149,477,o),
(269,643,o),
(448,643,cs),
(571,643,o),
(640,535,o),
(640,412,cs),
(640,223,o),
(521,57,o),
(343,57,cs)
);
}
);
width = 750;
},
{
layerId = m008;
shapes = (
{
closed = 1;
nodes = (
(604,-16,o),
(770,169,o),
(770,410,cs),
(770,579,o),
(636,716,o),
(470,716,cs),
(227,716,o),
(61,530,o),
(61,287,cs),
(61,120,o),
(196,-16,o),
(363,-16,cs)
);
},
{
closed = 1;
nodes = (
(269,97,o),
(199,187,o),
(199,297,cs),
(199,460,o),
(301,603,o),
(454,603,cs),
(564,603,o),
(632,512,o),
(632,402,cs),
(632,240,o),
(531,97,o),
(379,97,cs)
);
}
);
width = 792;
},
{
layerId = m006;
shapes = (
{
closed = 1;
nodes = (
(570,-16,o),
(703,194,o),
(703,430,cs),
(703,588,o),
(588,716,o),
(447,716,cs),
(209,716,o),
(76,505,o),
(76,267,cs),
(76,111,o),
(192,-16,o),
(334,-16,cs)
);
},
{
closed = 1;
nodes = (
(213,37,o),
(134,147,o),
(134,277,cs),
(134,479,o),
(251,663,o),
(438,663,cs),
(568,663,o),
(645,552,o),
(645,422,cs),
(645,220,o),
(529,37,o),
(343,37,cs)
);
}
);
width = 740;
}
);
unicode = 79;
},
{
glyphname = Oslash;
kernLeft = O;
kernRight = O;
layers = (
{
layerId = m01;
shapes = (
{
closed = 1;
nodes = (
(113,-66,l),
(768,765,l),
(680,765,l),
(25,-66,l)
);
},
{
pos = (20,0);
ref = O;
}
);
width = 793;
},
{
layerId = m005;
shapes = (
{
closed = 1;
nodes = (
(133,-66,l),
(779,765,l),
(660,765,l),
(14,-66,l)
);
},
{
pos = (1,0);
ref = O;
}
);
width = 793;
},
{
layerId = m007;
shapes = (
{
closed = 1;
nodes = (
(93,-56,l),
(732,755,l),
(670,755,l),
(31,-56,l)
);
},
{
pos = (9,0);
ref = O;
}
);
width = 763;
},
{
layerId = m004;
shapes = (
{
closed = 1;
nodes = (
(52,-66,l),
(799,765,l),
(711,765,l),
(-36,-66,l)
);
},
{
pos = (-13,0);
ref = O;
}
);
width = 724;
},
{
layerId = m008;
shapes = (
{
closed = 1;
nodes = (
(88,-66,l),
(806,765,l),
(682,765,l),
(-36,-66,l)
);
},
{
pos = (-30,0);
ref = O;
}
);
width = 732;
},
{
layerId = m006;
shapes = (
{
closed = 1;
nodes = (
(34,-56,l),
(761,755,l),
(699,755,l),
(-28,-56,l)
);
},
{
pos = (-23,0);
ref = O;
}
);
width = 694;
}
);
metricLeft = "=O-30";
metricRight = "=O-30";
unicode = 216;
},
{
glyphname = OE;
kernLeft = O;
kernRight = E;
layers = (
{
layerId = m01;
shapes = (
{
closed = 1;
nodes = (
(575,-16,o),
(679,152,o),
(679,350,cs),
(679,548,o),
(575,716,o),
(377,716,cs),
(188,716,o),
(55,565,o),
(55,350,cs),
(55,135,o),
(188,-16,o),
(377,-16,cs)
);
},
{
closed = 1;
nodes = (
(233,57,o),
(133,177,o),
(133,350,cs),
(133,523,o),
(233,643,o),
(377,643,cs),
(521,643,o),
(621,523,o),
(621,350,cs),
(621,177,o),
(521,57,o),
(377,57,cs)
);
},
{
closed = 1;
nodes = (
(1029,0,l),
(1029,73,l),
(699,73,l),
(699,327,l),
(969,327,l),
(969,400,l),
(699,400,l),
(699,627,l),
(1029,627,l),
(1029,700,l),
(621,700,l),
(621,0,l)
);
}
);
width = 1084;
},
{
layerId = m005;
shapes = (
{
closed = 1;
nodes = (
(594,-16,o),
(688,152,o),
(688,350,cs),
(688,548,o),
(594,716,o),
(396,716,cs),
(189,716,o),
(44,565,o),
(44,350,cs),
(44,135,o),
(189,-16,o),
(396,-16,cs)
);
},
{
closed = 1;
nodes = (
(269,97,o),
(182,199,o),
(182,350,cs),
(182,501,o),
(269,603,o),
(396,603,cs),
(523,603,o),
(610,501,o),
(610,350,cs),
(610,199,o),
(523,97,o),
(396,97,cs)
);
},
{
closed = 1;
nodes = (
(1078,0,l),
(1078,113,l),
(748,113,l),
(748,307,l),
(1018,307,l),
(1018,420,l),
(748,420,l),
(748,587,l),
(1078,587,l),
(1078,700,l),
(610,700,l),
(610,0,l)
);
}
);
width = 1122;
},
{
layerId = m007;
shapes = (
{
closed = 1;
nodes = (
(570,-16,o),
(675,153,o),
(675,350,cs),
(675,547,o),
(570,716,o),
(373,716,cs),
(189,716,o),
(61,566,o),
(61,350,cs),
(61,134,o),
(189,-16,o),
(373,-16,cs)
);
},
{
closed = 1;
nodes = (
(223,37,o),
(119,165,o),
(119,350,cs),
(119,535,o),
(223,663,o),
(373,663,cs),
(523,663,o),
(627,535,o),
(627,350,cs),
(627,165,o),
(523,37,o),
(373,37,cs)
);
},
{
closed = 1;
nodes = (
(1015,0,l),
(1015,53,l),
(685,53,l),
(685,337,l),
(955,337,l),
(955,390,l),
(685,390,l),
(685,647,l),
(1015,647,l),
(1015,700,l),
(627,700,l),
(627,0,l)
);
}
);
width = 1076;
},
{
layerId = m004;
shapes = (
{
closed = 1;
nodes = (
(571,-16,o),
(698,183,o),
(698,420,cs),
(698,577,o),
(614,716,o),
(457,716,cs),
(218,716,o),
(71,516,o),
(71,277,cs),
(71,115,o),
(189,-16,o),
(334,-16,cs)
);
},
{
closed = 1;
nodes = (
(220,57,o),
(149,164,o),
(149,287,cs),
(149,477,o),
(269,643,o),
(448,643,cs),
(571,643,o),
(640,535,o),
(640,412,cs),
(640,223,o),
(521,57,o),
(343,57,cs)
);
},
{
closed = 1;
nodes = (
(977,0,l),
(991,73,l),
(661,73,l),
(711,327,l),
(981,327,l),
(995,400,l),
(725,400,l),
(769,627,l),
(1099,627,l),
(1113,700,l),
(705,700,l),
(569,0,l)
);
}
);
width = 1081;
},
{
layerId = m008;
shapes = (
{
closed = 1;
nodes = (
(596,-16,o),
(720,177,o),
(720,410,cs),
(720,575,o),
(635,716,o),
(470,716,cs),
(227,716,o),
(61,530,o),
(61,287,cs),
(61,120,o),
(196,-16,o),
(363,-16,cs)
);
},
{
closed = 1;
nodes = (
(269,97,o),
(199,187,o),
(199,297,cs),
(199,460,o),
(301,603,o),
(454,603,cs),
(564,603,o),
(632,512,o),
(632,402,cs),
(632,240,o),
(531,97,o),
(379,97,cs)
);
},
{
closed = 1;
nodes = (
(1030,0,l),
(1052,113,l),
(722,113,l),
(760,307,l),
(1030,307,l),
(1052,420,l),
(782,420,l),
(814,587,l),
(1144,587,l),
(1166,700,l),
(698,700,l),
(562,0,l)
);
}
);
width = 1123;
},
{
layerId = m006;
shapes = (
{
closed = 1;
nodes = (
(572,-16,o),
(693,192,o),
(693,430,cs),
(693,585,o),
(602,716,o),
(447,716,cs),
(209,716,o),
(76,505,o),
(76,267,cs),
(76,111,o),
(192,-16,o),
(334,-16,cs)
);
},
{
closed = 1;
nodes = (
(213,37,o),
(134,147,o),
(134,277,cs),
(134,479,o),
(251,663,o),
(438,663,cs),
(568,663,o),
(645,552,o),
(645,422,cs),
(645,220,o),
(529,37,o),
(343,37,cs)
);
},
{
closed = 1;
nodes = (
(962,0,l),
(972,53,l),
(642,53,l),
(697,337,l),
(967,337,l),
(978,390,l),
(708,390,l),
(758,647,l),
(1088,647,l),
(1098,700,l),
(710,700,l),
(574,0,l)
);
}
);
width = 1072;
}
);
metricLeft = O;
metricRight = E;
unicode = 338;
},
{
glyphname = P;
kernLeft = H;
kernRight = P;
layers = (
{
layerId = m01;
shapes = (
{
closed = 1;
nodes = (
(163,0,l),
(163,309,l),
(325,309,ls),
(450,309,o),
(536,388,o),
(536,504,cs),
(536,621,o),
(450,700,o),
(325,700,cs),
(85,700,l),
(85,0,l)
);
},
{
closed = 1;
nodes = (
(163,627,l),
(325,627,ls),
(404,627,o),
(458,577,o),
(458,504,cs),
(458,431,o),
(405,382,o),
(325,382,cs),
(163,382,l)
);
}
);
width = 576;
},
{
layerId = m005;
shapes = (
{
closed = 1;
nodes = (
(206,0,l),
(206,278,l),
(308,278,ls),
(471,278,o),
(579,362,o),
(579,489,cs),
(579,616,o),
(471,700,o),
(308,700,cs),
(68,700,l),
(68,0,l)
);
},
{
closed = 1;
nodes = (
(206,587,l),
(308,587,ls),
(389,587,o),
(441,549,o),
(441,489,cs),
(441,429,o),
(389,391,o),
(308,391,cs),
(206,391,l)
);
}
);
width = 611;
},
{
layerId = m007;
shapes = (
{
closed = 1;
nodes = (
(152,0,l),
(152,319,l),
(304,319,ls),
(436,319,o),
(525,396,o),
(525,509,cs),
(525,623,o),
(436,700,o),
(304,700,cs),
(94,700,l),
(94,0,l)
);
},
{
closed = 1;
nodes = (
(152,647,l),
(304,647,ls),
(402,647,o),
(467,592,o),
(467,509,cs),
(467,426,o),
(403,372,o),
(304,372,cs),
(152,372,l)
);
}
);
width = 569;
},
{
layerId = m004;
shapes = (
{
closed = 1;
nodes = (
(114,0,l),
(174,309,l),
(330,309,ls),
(479,309,o),
(582,393,o),
(582,516,cs),
(582,626,o),
(499,700,o),
(378,700,cs),
(172,700,l),
(36,0,l)
);
},
{
closed = 1;
nodes = (
(236,627,l),
(378,627,ls),
(455,627,o),
(506,581,o),
(506,513,cs),
(506,434,o),
(436,382,o),
(330,382,cs),
(188,382,l)
);
}
);
width = 574;
},
{
layerId = m008;
shapes = (
{
closed = 1;
nodes = (
(157,0,l),
(211,278,l),
(323,278,ls),
(503,278,o),
(622,365,o),
(622,497,cs),
(622,619,o),
(519,700,o),
(363,700,cs),
(155,700,l),
(19,0,l)
);
},
{
closed = 1;
nodes = (
(271,587,l),
(363,587,ls),
(440,587,o),
(486,553,o),
(486,497,cs),
(486,432,o),
(423,391,o),
(323,391,cs),
(233,391,l)
);
}
);
width = 610;
},
{
layerId = m006;
shapes = (
{
closed = 1;
nodes = (
(103,0,l),
(167,329,l),
(329,329,ls),
(476,329,o),
(575,408,o),
(575,525,cs),
(575,629,o),
(497,700,o),
(381,700,cs),
(181,700,l),
(45,0,l)
);
},
{
closed = 1;
nodes = (
(229,647,l),
(381,647,ls),
(464,647,o),
(519,599,o),
(519,525,cs),
(519,439,o),
(443,382,o),
(329,382,cs),
(177,382,l)
);
}
);
width = 569;
}
);
metricLeft = H;
unicode = 80;
},
{
glyphname = Thorn;
kernLeft = H;
kernRight = o;
layers = (
{
layerId = m01;
shapes = (
{
closed = 1;
nodes = (
(163,0,l),
(163,155,l),
(325,155,ls),
(450,155,o),
(536,234,o),
(536,350,cs),
(536,467,o),
(450,546,o),
(325,546,cs),
(163,546,l),
(163,700,l),
(85,700,l),
(85,0,l)
);
},
{
closed = 1;
nodes = (
(163,473,l),
(325,473,ls),
(404,473,o),
(458,423,o),
(458,350,cs),
(458,277,o),
(405,228,o),
(325,228,cs),
(163,228,l)
);
}
);
width = 586;
},
{
layerId = m005;
shapes = (
{
closed = 1;
nodes = (
(206,0,l),
(206,134,l),
(308,134,ls),
(471,134,o),
(579,220,o),
(579,350,cs),
(579,480,o),
(471,566,o),
(308,566,cs),
(206,566,l),
(206,700,l),
(68,700,l),
(68,0,l)
);
},
{
closed = 1;
nodes = (
(206,453,l),
(308,453,ls),
(390,453,o),
(441,414,o),
(441,350,cs),
(441,286,o),
(390,247,o),
(308,247,cs),
(206,247,l)
);
}
);
width = 619;
},
{
layerId = m007;
shapes = (
{
closed = 1;
nodes = (
(152,0,l),
(152,165,l),
(304,165,ls),
(441,165,o),
(525,235,o),
(525,350,cs),
(525,466,o),
(442,536,o),
(304,536,cs),
(152,536,l),
(152,700,l),
(94,700,l),
(94,0,l)
);
},
{
closed = 1;
nodes = (
(152,483,l),
(304,483,ls),
(410,483,o),
(467,437,o),
(467,350,cs),
(467,263,o),
(411,218,o),
(304,218,cs),
(152,218,l)
);
}
);
width = 580;
},
{
layerId = m004;
shapes = (
{
closed = 1;
nodes = (
(114,0,l),
(144,154,l),
(300,154,ls),
(449,154,o),
(552,238,o),
(552,361,cs),
(552,471,o),
(469,545,o),
(348,545,cs),
(220,545,l),
(250,700,l),
(172,700,l),
(36,0,l)
);
},
{
closed = 1;
nodes = (
(206,472,l),
(348,472,ls),
(425,472,o),
(476,426,o),
(476,358,cs),
(476,279,o),
(406,227,o),
(300,227,cs),
(158,227,l)
);
}
);
width = 584;
},
{
layerId = m008;
shapes = (
{
closed = 1;
nodes = (
(157,0,l),
(183,134,l),
(307,134,ls),
(479,134,o),
(596,225,o),
(596,360,cs),
(596,484,o),
(497,566,o),
(347,566,cs),
(267,566,l),
(293,700,l),
(155,700,l),
(19,0,l)
);
},
{
closed = 1;
nodes = (
(245,453,l),
(347,453,ls),
(417,453,o),
(460,418,o),
(460,361,cs),
(460,293,o),
(399,247,o),
(307,247,cs),
(205,247,l)
);
}
);
width = 619;
},
{
layerId = m006;
shapes = (
{
closed = 1;
nodes = (
(103,0,l),
(135,165,l),
(297,165,ls),
(444,165,o),
(543,244,o),
(543,361,cs),
(543,465,o),
(465,536,o),
(349,536,cs),
(207,536,l),
(239,700,l),
(181,700,l),
(45,0,l)
);
},
{
closed = 1;
nodes = (
(197,483,l),
(349,483,ls),
(432,483,o),
(487,435,o),
(487,361,cs),
(487,275,o),
(411,218,o),
(297,218,cs),
(145,218,l)
);
}
);
width = 580;
}
);
metricLeft = H;
metricRight = B;
unicode = 222;
},
{
glyphname = Q;
kernLeft = O;
kernRight = O;
layers = (
{
layerId = m01;
shapes = (
{
closed = 1;
nodes = (
(731,-66,l),
(416,346,l),
(328,346,l),
(643,-66,l)
);
},
{
ref = O;
}
);
width = 776;
},
{
layerId = m005;
shapes = (
{
closed = 1;
nodes = (
(761,-66,l),
(463,366,l),
(308,366,l),
(606,-66,l)
);
},
{
ref = O;
}
);
width = 795;
},
{
layerId = m007;
shapes = (
{
closed = 1;
nodes = (
(710,-66,l),
(401,346,l),
(339,346,l),
(648,-66,l)
);
},
{
ref = O;
}
);
width = 761;
},
{
layerId = m004;
shapes = (
{
closed = 1;
nodes = (
(670,-66,l),
(435,346,l),
(352,346,l),
(587,-66,l)
);
},
{
ref = O;
}
);
width = 776;
},
{
layerId = m008;
shapes = (
{
closed = 1;
nodes = (
(700,-66,l),
(486,366,l),
(356,366,l),
(570,-66,l)
);
},
{
ref = O;
}
);
width = 795;
},
{
layerId = m006;
shapes = (
{
closed = 1;
nodes = (
(649,-66,l),
(420,346,l),
(363,346,l),
(592,-66,l)
);
},
{
ref = O;
}
);
width = 761;
}
);
metricLeft = O;
metricRight = "=O-10";
unicode = 81;
},
{
glyphname = R;
kernLeft = H;
kernRight = R;
layers = (
{
layerId = m01;
shapes = (
{
closed = 1;
nodes = (
(163,0,l),
(163,309,l),
(316,309,ls),
(402,309,o),
(445,266,o),
(451,174,cs),
(463,0,l),
(541,0,l),
(531,159,ls),
(523,283,o),
(468,347,o),
(370,347,c),
(350,340,l),
(462,340,o),
(536,406,o),
(536,508,cs),
(536,619,o),
(447,700,o),
(325,700,cs),
(85,700,l),
(85,0,l)
);
},
{
closed = 1;
nodes = (
(163,627,l),
(325,627,ls),
(403,627,o),
(458,576,o),
(458,504,cs),
(458,432,o),
(403,382,o),
(325,382,cs),
(163,382,l)
);
}
);
width = 611;
},
{
layerId = m005;
shapes = (
{
closed = 1;
nodes = (
(206,0,l),
(206,278,l),
(318,278,ls),
(396,278,o),
(432,244,o),
(437,163,cs),
(448,0,l),
(586,0,l),
(578,140,ls),
(571,266,o),
(511,327,o),
(393,327,c),
(383,317,l),
(498,317,o),
(579,392,o),
(579,498,cs),
(579,620,o),
(472,700,o),
(308,700,cs),
(68,700,l),
(68,0,l)
);
},
{
closed = 1;
nodes = (
(206,587,l),
(308,587,ls),
(389,587,o),
(441,549,o),
(441,489,cs),
(441,429,o),
(389,391,o),
(308,391,cs),
(206,391,l)
);
}
);
width = 642;
},
{
layerId = m007;
shapes = (
{
closed = 1;
nodes = (
(152,0,l),
(152,329,l),
(295,329,ls),
(408,329,o),
(453,287,o),
(460,175,cs),
(471,0,l),
(529,0,l),
(520,168,ls),
(513,291,o),
(458,355,o),
(359,355,c),
(359,350,l),
(456,350,o),
(525,420,o),
(525,517,cs),
(525,627,o),
(437,700,o),
(304,700,cs),
(94,700,l),
(94,0,l)
);
},
{
closed = 1;
nodes = (
(152,647,l),
(304,647,ls),
(401,647,o),
(467,593,o),
(467,514,cs),
(467,435,o),
(401,382,o),
(304,382,cs),
(152,382,l)
);
}
);
width = 606;
},
{
layerId = m004;
shapes = (
{
closed = 1;
nodes = (
(114,0,l),
(174,309,l),
(327,309,ls),
(411,309,o),
(454,266,o),
(444,194,cs),
(417,0,l),
(497,0,l),
(520,179,ls),
(534,284,o),
(476,347,o),
(367,347,c),
(367,340,l),
(495,340,o),
(583,413,o),
(583,521,cs),
(583,627,o),
(499,700,o),
(378,700,cs),
(172,700,l),
(36,0,l)
);
},
{
closed = 1;
nodes = (
(236,627,l),
(378,627,ls),
(456,627,o),
(507,582,o),
(507,514,cs),
(507,434,o),
(437,382,o),
(330,382,cs),
(188,382,l)
);
}
);
width = 616;
},
{
layerId = m008;
shapes = (
{
closed = 1;
nodes = (
(157,0,l),
(211,278,l),
(311,278,ls),
(394,278,o),
(428,239,o),
(418,152,cs),
(401,0,l),
(541,0,l),
(557,162,ls),
(567,266,o),
(507,327,o),
(395,327,c),
(394,317,l),
(529,317,o),
(622,395,o),
(622,508,cs),
(622,624,o),
(524,700,o),
(373,700,cs),
(155,700,l),
(19,0,l)
);
},
{
closed = 1;
nodes = (
(271,587,l),
(373,587,ls),
(443,587,o),
(486,552,o),
(486,496,cs),
(486,431,o),
(427,391,o),
(333,391,cs),
(233,391,l)
);
}
);
width = 646;
},
{
layerId = m006;
shapes = (
{
closed = 1;
nodes = (
(103,0,l),
(167,329,l),
(330,329,ls),
(420,329,o),
(466,283,o),
(455,205,cs),
(425,0,l),
(485,0,l),
(512,188,ls),
(527,291,o),
(472,355,o),
(368,355,c),
(378,350,l),
(493,350,o),
(575,425,o),
(574,531,cs),
(573,633,o),
(496,700,o),
(380,700,cs),
(181,700,l),
(45,0,l)
);
},
{
closed = 1;
nodes = (
(228,647,l),
(380,647,ls),
(463,647,o),
(518,599,o),
(518,525,cs),
(518,439,o),
(442,382,o),
(328,382,cs),
(176,382,l)
);
}
);
width = 611;
}
);
metricLeft = H;
unicode = 82;
},
{
glyphname = S;
kernLeft = S;
kernRight = S;
layers = (
{
layerId = m01;
shapes = (
{
closed = 1;
nodes = (
(445,-16,o),
(541,70,o),
(541,197,cs),
(541,452,o),
(157,353,o),
(157,531,cs),
(157,601,o),
(217,643,o),
(292,643,cs),
(370,643,o),
(431,597,o),
(441,518,c),
(519,528,l),
(509,647,o),
(414,716,o),
(297,716,cs),
(174,716,o),
(79,641,o),
(79,524,cs),
(79,290,o),
(463,381,o),
(463,187,cs),
(463,110,o),
(398,57,o),
(303,57,cs),
(187,57,o),
(118,135,o),
(118,266,c),
(40,256,l),
(40,90,o),
(143,-16,o),
(302,-16,cs)
);
}
);
width = 591;
},
{
layerId = m005;
shapes = (
{
closed = 1;
nodes = (
(480,-16,o),
(588,70,o),
(588,198,cs),
(588,438,o),
(209,382,o),
(209,524,cs),
(209,574,o),
(256,603,o),
(312,603,cs),
(371,603,o),
(422,571,o),
(432,511,c),
(570,521,l),
(559,654,o),
(438,716,o),
(312,716,cs),
(177,716,o),
(71,644,o),
(71,513,cs),
(71,266,o),
(450,338,o),
(450,185,cs),
(450,131,o),
(402,97,o),
(326,97,cs),
(227,97,o),
(171,156,o),
(171,263,c),
(32,253,l),
(32,88,o),
(143,-16,o),
(320,-16,cs)
);
}
);
width = 628;
},
{
layerId = m007;
shapes = (
{
closed = 1;
nodes = (
(426,-16,o),
(520,66,o),
(520,185,cs),
(520,427,o),
(136,342,o),
(136,533,cs),
(136,611,o),
(201,663,o),
(284,663,cs),
(367,663,o),
(431,611,o),
(440,529,c),
(498,537,l),
(487,650,o),
(396,716,o),
(284,716,cs),
(168,716,o),
(78,644,o),
(78,531,cs),
(78,299,o),
(462,379,o),
(462,179,cs),
(462,95,o),
(391,37,o),
(288,37,cs),
(168,37,o),
(102,115,o),
(102,255,c),
(44,247,l),
(44,83,o),
(136,-16,o),
(288,-16,cs)
);
}
);
width = 575;
},
{
layerId = m004;
shapes = (
{
closed = 1;
nodes = (
(441,-16,o),
(536,69,o),
(536,191,cs),
(536,415,o),
(224,368,o),
(224,533,cs),
(224,604,o),
(282,643,o),
(354,643,cs),
(432,643,o),
(497,597,o),
(497,518,c),
(577,528,l),
(577,648,o),
(478,716,o),
(361,716,cs),
(241,716,o),
(147,645,o),
(147,526,cs),
(147,310,o),
(459,364,o),
(459,186,cs),
(459,100,o),
(385,57,o),
(305,57,cs),
(187,57,o),
(121,151,o),
(121,266,c),
(41,256,l),
(41,100,o),
(143,-16,o),
(303,-16,cs)
);
}
);
width = 602;
},
{
layerId = m008;
shapes = (
{
closed = 1;
nodes = (
(494,-16,o),
(603,71,o),
(603,198,cs),
(603,425,o),
(270,387,o),
(270,521,cs),
(270,577,o),
(327,603,o),
(386,603,cs),
(450,603,o),
(505,572,o),
(505,511,c),
(645,521,l),
(645,653,o),
(522,716,o),
(392,716,cs),
(253,716,o),
(132,645,o),
(132,507,cs),
(132,279,o),
(465,329,o),
(465,189,cs),
(465,128,o),
(402,97,o),
(337,97,cs),
(239,97,o),
(174,167,o),
(174,263,c),
(33,253,l),
(33,85,o),
(162,-16,o),
(334,-16,cs)
);
}
);
width = 657;
},
{
layerId = m006;
shapes = (
{
closed = 1;
nodes = (
(434,-16,o),
(528,67,o),
(528,185,cs),
(528,411,o),
(208,365,o),
(208,540,cs),
(208,614,o),
(266,663,o),
(355,663,cs),
(449,663,o),
(513,608,o),
(513,527,c),
(572,537,l),
(562,648,o),
(480,716,o),
(358,716,cs),
(234,716,o),
(152,646,o),
(152,539,cs),
(152,328,o),
(472,368,o),
(472,180,cs),
(472,87,o),
(392,37,o),
(301,37,cs),
(174,37,o),
(102,133,o),
(102,257,c),
(43,247,l),
(43,95,o),
(143,-16,o),
(299,-16,cs)
);
}
);
width = 600;
}
);
unicode = 83;
},
{
glyphname = Germandbls;
kernLeft = H;
kernRight = B;
layers = (
{
layerId = m01;
shapes = (
{
closed = 1;
nodes = (
(373,0,ls),
(524,0,o),
(625,82,o),
(625,205,cs),
(625,328,o),
(524,409,o),
(371,410,c),
(371,364,l),
(557,587,ls),
(571,604,o),
(577,622,o),
(577,638,cs),
(577,672,o),
(550,700,o),
(505,700,cs),
(85,700,l),
(85,0,l),
(163,0,l),
(163,627,l),
(494,627,l),
(323,413,l),
(323,337,l),
(373,337,ls),
(479,337,o),
(547,286,o),
(547,207,cs),
(547,128,o),
(480,78,o),
(373,78,cs),
(293,78,l),
(293,0,l)
);
}
);
width = 680;
},
{
layerId = m005;
shapes = (
{
closed = 1;
nodes = (
(386,0,ls),
(556,0,o),
(668,82,o),
(668,207,cs),
(668,323,o),
(572,399,o),
(415,406,c),
(425,370,l),
(576,536,ls),
(599,561,o),
(611,590,o),
(611,618,cs),
(611,667,o),
(574,700,o),
(518,700,cs),
(68,700,l),
(68,0,l),
(206,0,l),
(206,587,l),
(468,587,l),
(306,406,l),
(306,306,l),
(386,306,ls),
(477,306,o),
(530,272,o),
(530,213,cs),
(530,153,o),
(477,118,o),
(386,118,cs),
(296,118,l),
(296,0,l)
);
}
);
width = 713;
},
{
layerId = m007;
shapes = (
{
closed = 1;
nodes = (
(342,0,ls),
(486,0,o),
(584,84,o),
(584,206,cs),
(584,329,o),
(484,410,o),
(330,410,c),
(330,378,l),
(518,603,ls),
(530,617,o),
(536,633,o),
(536,647,cs),
(536,676,o),
(512,700,o),
(474,700,cs),
(94,700,l),
(94,0,l),
(152,0,l),
(152,647,l),
(484,647,l),
(302,419,l),
(302,357,l),
(352,357,ls),
(455,357,o),
(526,297,o),
(526,208,cs),
(526,119,o),
(455,58,o),
(352,58,cs),
(272,58,l),
(272,0,l)
);
}
);
width = 644;
},
{
layerId = m004;
shapes = (
{
closed = 1;
nodes = (
(339,0,ls),
(504,0,o),
(613,85,o),
(613,212,cs),
(613,328,o),
(522,407,o),
(389,407,c),
(402,373,l),
(622,587,ls),
(641,606,o),
(651,627,o),
(651,647,cs),
(651,678,o),
(627,700,o),
(592,700,cs),
(172,700,l),
(36,0,l),
(114,0,l),
(236,627,l),
(567,627,l),
(354,413,l),
(339,337,l),
(389,337,ls),
(480,337,o),
(538,289,o),
(538,215,cs),
(538,130,o),
(462,78,o),
(339,78,cs),
(259,78,l),
(244,0,l)
);
}
);
width = 679;
},
{
layerId = m008;
shapes = (
{
closed = 1;
nodes = (
(377,0,ls),
(545,0,o),
(655,84,o),
(655,211,cs),
(655,332,o),
(555,407,o),
(396,407,c),
(452,374,l),
(631,536,ls),
(661,564,o),
(677,595,o),
(677,626,cs),
(677,670,o),
(644,700,o),
(595,700,cs),
(155,700,l),
(19,0,l),
(157,0,l),
(271,587,l),
(533,587,l),
(336,406,l),
(316,306,l),
(396,306,ls),
(475,306,o),
(522,272,o),
(522,215,cs),
(522,154,o),
(468,118,o),
(377,118,cs),
(270,118,l),
(247,0,l)
);
}
);
width = 711;
},
{
layerId = m006;
shapes = (
{
closed = 1;
nodes = (
(314,0,ls),
(466,0,o),
(573,89,o),
(573,216,cs),
(573,333,o),
(482,410,o),
(342,410,c),
(355,378,l),
(586,603,ls),
(602,619,o),
(611,638,o),
(611,656,cs),
(611,683,o),
(592,700,o),
(561,700,cs),
(181,700,l),
(45,0,l),
(103,0,l),
(229,647,l),
(556,647,l),
(329,419,l),
(317,357,l),
(342,357,ls),
(449,357,o),
(517,303,o),
(517,217,cs),
(517,123,o),
(434,58,o),
(314,58,cs),
(234,58,l),
(223,0,l)
);
}
);
width = 644;
}
);
metricLeft = H;
metricRight = "=B+5";
unicode = 7838;
},
{
glyphname = T;
kernLeft = T;
kernRight = T;
layers = (
{
layerId = m01;
shapes = (
{
closed = 1;
nodes = (
(348,0,l),
(348,627,l),
(598,627,l),
(598,700,l),
(20,700,l),
(20,627,l),
(270,627,l),
(270,0,l)
);
}
);
width = 618;
},
{
layerId = m005;
shapes = (
{
closed = 1;
nodes = (
(404,0,l),
(404,587,l),
(654,587,l),
(654,700,l),
(16,700,l),
(16,587,l),
(266,587,l),
(266,0,l)
);
}
);
width = 670;
},
{
layerId = m007;
shapes = (
{
closed = 1;
nodes = (
(330,0,l),
(330,647,l),
(580,647,l),
(580,700,l),
(22,700,l),
(22,647,l),
(272,647,l),
(272,0,l)
);
}
);
width = 602;
},
{
layerId = m004;
shapes = (
{
closed = 1;
nodes = (
(299,0,l),
(421,627,l),
(671,627,l),
(685,700,l),
(107,700,l),
(93,627,l),
(343,627,l),
(221,0,l)
);
}
);
width = 618;
},
{
layerId = m008;
shapes = (
{
closed = 1;
nodes = (
(356,0,l),
(470,587,l),
(720,587,l),
(742,700,l),
(104,700,l),
(82,587,l),
(332,587,l),
(218,0,l)
);
}
);
width = 671;
},
{
layerId = m006;
shapes = (
{
closed = 1;
nodes = (
(281,0,l),
(407,647,l),
(657,647,l),
(667,700,l),
(109,700,l),
(99,647,l),
(349,647,l),
(223,0,l)
);
}
);
width = 602;
}
);
unicode = 84;
},
{
glyphname = Tbar;
kernLeft = T;
kernRight = T;
layers = (
{
layerId = m01;
shapes = (
{
closed = 1;
nodes = (
(479,320,l),
(479,380,l),
(139,380,l),
(139,320,l)
);
},
{
ref = T;
}
);
width = 618;
},
{
layerId = m005;
shapes = (
{
closed = 1;
nodes = (
(515,305,l),
(515,395,l),
(155,395,l),
(155,305,l)
);
},
{
ref = T;
}
);
width = 670;
},
{
layerId = m007;
shapes = (
{
closed = 1;
nodes = (
(461,330,l),
(461,370,l),
(141,370,l),
(141,330,l)
);
},
{
ref = T;
}
);
width = 602;
},
{
layerId = m004;
shapes = (
{
closed = 1;
nodes = (
(498,320,l),
(510,380,l),
(170,380,l),
(158,320,l)
);
},
{
ref = T;
}
);
width = 618;
},
{
layerId = m008;
shapes = (
{
closed = 1;
nodes = (
(525,305,l),
(543,395,l),
(183,395,l),
(165,305,l)
);
},
{
ref = T;
}
);
width = 671;
},
{
layerId = m006;
shapes = (
{
closed = 1;
nodes = (
(485,330,l),
(493,370,l),
(173,370,l),
(165,330,l)
);
},
{
ref = T;
}
);
width = 602;
}
);
metricLeft = T;
metricRight = T;
unicode = 358;
},
{
glyphname = U;
kernLeft = U;
kernRight = U;
layers = (
{
layerId = m01;
shapes = (
{
closed = 1;
nodes = (
(470,-16,o),
(565,84,o),
(565,242,cs),
(565,700,l),
(487,700,l),
(487,242,ls),
(487,128,o),
(422,57,o),
(318,57,cs),
(213,57,o),
(148,128,o),
(148,242,cs),
(148,700,l),
(70,700,l),
(70,242,ls),
(70,84,o),
(167,-16,o),
(318,-16,cs)
);
}
);
width = 635;
},
{
layerId = m005;
shapes = (
{
closed = 1;
nodes = (
(497,-16,o),
(611,99,o),
(611,262,cs),
(611,700,l),
(473,700,l),
(473,262,ls),
(473,172,o),
(424,97,o),
(334,97,cs),
(244,97,o),
(194,172,o),
(194,262,cs),
(194,700,l),
(56,700,l),
(56,262,ls),
(56,99,o),
(171,-16,o),
(334,-16,cs)
);
}
);
width = 667;
},
{
layerId = m007;
shapes = (
{
closed = 1;
nodes = (
(456,-16,o),
(552,88,o),
(552,242,cs),
(552,700,l),
(494,700,l),
(494,242,ls),
(494,120,o),
(422,37,o),
(315,37,cs),
(208,37,o),
(135,120,o),
(135,242,cs),
(135,700,l),
(77,700,l),
(77,242,ls),
(77,89,o),
(174,-16,o),
(315,-16,cs)
);
}
);
width = 629;
},
{
layerId = m004;
shapes = (
{
closed = 1;
nodes = (
(425,-16,o),
(532,84,o),
(563,242,cs),
(652,700,l),
(574,700,l),
(485,242,ls),
(463,130,o),
(385,57,o),
(288,57,cs),
(186,57,o),
(125,137,o),
(146,242,cs),
(235,700,l),
(157,700,l),
(68,242,ls),
(40,97,o),
(136,-16,o),
(285,-16,cs)
);
}
);
width = 635;
},
{
layerId = m008;
shapes = (
{
closed = 1;
nodes = (
(462,-16,o),
(579,93,o),
(615,272,cs),
(698,700,l),
(559,700,l),
(476,272,ls),
(455,162,o),
(394,97,o),
(312,97,cs),
(225,97,o),
(176,171,o),
(197,272,cs),
(280,700,l),
(143,700,l),
(60,272,ls),
(30,112,o),
(140,-16,o),
(307,-16,cs)
);
}
);
width = 667;
},
{
layerId = m006;
shapes = (
{
closed = 1;
nodes = (
(414,-16,o),
(518,83,o),
(550,242,cs),
(639,700,l),
(581,700,l),
(492,242,ls),
(467,117,o),
(385,37,o),
(282,37,cs),
(175,37,o),
(111,124,o),
(133,242,cs),
(222,700,l),
(164,700,l),
(75,242,ls),
(47,97,o),
(137,-16,o),
(280,-16,cs)
);
}
);
width = 629;
}
);
unicode = 85;
},
{
glyphname = V;
kernLeft = V;
kernRight = V;
layers = (
{
layerId = m01;
shapes = (
{
closed = 1;
nodes = (
(345,0,l),
(578,700,l),
(500,700,l),
(279,36,l),
(308,36,l),
(88,700,l),
(10,700,l),
(243,0,l)
);
}
);
width = 588;
},
{
layerId = m005;
shapes = (
{
closed = 1;
nodes = (
(395,0,l),
(632,700,l),
(493,700,l),
(269,36,l),
(371,36,l),
(147,700,l),
(8,700,l),
(245,0,l)
);
}
);
width = 640;
},
{
layerId = m007;
shapes = (
{
closed = 1;
nodes = (
(319,0,l),
(545,700,l),
(488,700,l),
(274,36,l),
(281,36,l),
(68,700,l),
(11,700,l),
(237,0,l)
);
}
);
width = 556;
},
{
layerId = m004;
shapes = (
{
closed = 1;
nodes = (
(296,0,l),
(665,700,l),
(585,700,l),
(235,36,l),
(261,36,l),
(170,700,l),
(97,700,l),
(194,0,l)
);
}
);
width = 588;
},
{
layerId = m008;
shapes = (
{
closed = 1;
nodes = (
(346,0,l),
(719,700,l),
(570,700,l),
(217,36,l),
(319,36,l),
(224,700,l),
(95,700,l),
(196,0,l)
);
}
);
width = 640;
},
{
layerId = m006;
shapes = (
{
closed = 1;
nodes = (
(270,0,l),
(632,700,l),
(568,700,l),
(225,36,l),
(237,36,l),
(153,700,l),
(98,700,l),
(188,0,l)
);
}
);
width = 556;
}
);
unicode = 86;
},
{
glyphname = W;
kernLeft = V;
kernRight = V;
layers = (
{
layerId = m01;
shapes = (
{
closed = 1;
nodes = (
(305,0,l),
(433,587,l),
(413,587,l),
(541,0,l),
(644,0,l),
(816,700,l),
(743,700,l),
(580,38,l),
(601,38,l),
(457,700,l),
(389,700,l),
(245,38,l),
(266,38,l),
(103,700,l),
(30,700,l),
(202,0,l)
);
}
);
width = 846;
},
{
layerId = m005;
shapes = (
{
closed = 1;
nodes = (
(354,0,l),
(491,587,l),
(441,587,l),
(578,0,l),
(751,0,l),
(903,700,l),
(771,700,l),
(628,38,l),
(679,38,l),
(526,700,l),
(406,700,l),
(253,38,l),
(304,38,l),
(161,700,l),
(28,700,l),
(180,0,l)
);
}
);
width = 931;
},
{
layerId = m007;
shapes = (
{
closed = 1;
nodes = (
(267,0,l),
(401,587,l),
(400,587,l),
(534,0,l),
(603,0,l),
(770,700,l),
(717,700,l),
(563,38,l),
(580,38,l),
(430,700,l),
(371,700,l),
(221,38,l),
(242,38,l),
(84,700,l),
(31,700,l),
(198,0,l)
);
}
);
width = 801;
},
{
layerId = m004;
shapes = (
{
closed = 1;
nodes = (
(256,0,l),
(498,587,l),
(478,587,l),
(492,0,l),
(595,0,l),
(903,700,l),
(827,700,l),
(535,38,l),
(555,38,l),
(540,700,l),
(472,700,l),
(199,38,l),
(221,38,l),
(187,700,l),
(117,700,l),
(153,0,l)
);
}
);
width = 846;
},
{
layerId = m008;
shapes = (
{
closed = 1;
nodes = (
(300,0,l),
(551,587,l),
(501,587,l),
(524,0,l),
(702,0,l),
(990,700,l),
(853,700,l),
(581,38,l),
(632,38,l),
(608,700,l),
(488,700,l),
(206,38,l),
(257,38,l),
(243,700,l),
(115,700,l),
(131,0,l)
);
}
);
width = 931;
},
{
layerId = m006;
shapes = (
{
closed = 1;
nodes = (
(218,0,l),
(466,587,l),
(465,587,l),
(485,0,l),
(554,0,l),
(857,700,l),
(797,700,l),
(514,38,l),
(537,38,l),
(516,700,l),
(458,700,l),
(179,38,l),
(203,38,l),
(174,700,l),
(118,700,l),
(149,0,l)
);
}
);
width = 801;
}
);
metricLeft = "=V+20";
metricRight = "=V+20";
unicode = 87;
},
{
glyphname = X;
kernLeft = X;
kernRight = X;
layers = (
{
layerId = m01;
shapes = (
{
closed = 1;
nodes = (
(577,0,l),
(106,700,l),
(20,700,l),
(491,0,l)
);
},
{
closed = 1;
nodes = (
(106,0,l),
(577,700,l),
(491,700,l),
(20,0,l)
);
}
);
width = 597;
},
{
layerId = m005;
shapes = (
{
closed = 1;
nodes = (
(660,0,l),
(172,700,l),
(18,700,l),
(506,0,l)
);
},
{
closed = 1;
nodes = (
(172,0,l),
(660,700,l),
(506,700,l),
(18,0,l)
);
}
);
width = 678;
},
{
layerId = m007;
shapes = (
{
closed = 1;
nodes = (
(540,0,l),
(83,700,l),
(21,700,l),
(478,0,l)
);
},
{
closed = 1;
nodes = (
(83,0,l),
(540,700,l),
(478,700,l),
(21,0,l)
);
}
);
width = 561;
},
{
layerId = m004;
shapes = (
{
closed = 1;
nodes = (
(528,0,l),
(193,700,l),
(113,700,l),
(448,0,l)
);
},
{
closed = 1;
nodes = (
(67,0,l),
(674,700,l),
(578,700,l),
(-29,0,l)
);
}
);
width = 607;
},
{
layerId = m008;
shapes = (
{
closed = 1;
nodes = (
(611,0,l),
(259,700,l),
(111,700,l),
(463,0,l)
);
},
{
closed = 1;
nodes = (
(133,0,l),
(757,700,l),
(593,700,l),
(-31,0,l)
);
}
);
width = 688;
},
{
layerId = m006;
shapes = (
{
closed = 1;
nodes = (
(496,0,l),
(175,700,l),
(116,700,l),
(437,0,l)
);
},
{
closed = 1;
nodes = (
(39,0,l),
(632,700,l),
(565,700,l),
(-28,0,l)
);
}
);
width = 566;
}
);
metricLeft = "=V+10";
metricRight = "=V+10";
unicode = 88;
},
{
glyphname = Y;
kernLeft = Y;
kernRight = Y;
layers = (
{
layerId = m01;
shapes = (
{
closed = 1;
nodes = (
(222,0,l),
(527,700,l),
(445,700,l),
(140,0,l)
);
},
{
closed = 1;
nodes = (
(295,246,l),
(97,700,l),
(15,700,l),
(248,165,l)
);
}
);
width = 542;
},
{
layerId = m005;
shapes = (
{
closed = 1;
nodes = (
(278,0,l),
(601,700,l),
(458,700,l),
(135,0,l)
);
},
{
closed = 1;
nodes = (
(364,245,l),
(157,700,l),
(13,700,l),
(282,104,l)
);
}
);
width = 614;
},
{
layerId = m007;
shapes = (
{
closed = 1;
nodes = (
(199,0,l),
(496,700,l),
(438,700,l),
(141,0,l)
);
},
{
closed = 1;
nodes = (
(268,247,l),
(74,700,l),
(16,700,l),
(235,187,l)
);
}
);
width = 512;
},
{
layerId = m004;
shapes = (
{
closed = 1;
nodes = (
(173,0,l),
(614,700,l),
(528,700,l),
(87,0,l)
);
},
{
closed = 1;
nodes = (
(290,246,l),
(180,700,l),
(102,700,l),
(231,165,l)
);
}
);
width = 542;
},
{
layerId = m008;
shapes = (
{
closed = 1;
nodes = (
(224,0,l),
(683,700,l),
(530,700,l),
(71,0,l)
);
},
{
closed = 1;
nodes = (
(348,245,l),
(229,700,l),
(100,700,l),
(253,104,l)
);
}
);
width = 609;
},
{
layerId = m006;
shapes = (
{
closed = 1;
nodes = (
(154,0,l),
(587,700,l),
(525,700,l),
(92,0,l)
);
},
{
closed = 1;
nodes = (
(261,247,l),
(155,700,l),
(103,700,l),
(222,187,l)
);
}
);
width = 516;
}
);
metricLeft = "=V+5";
metricRight = "=V+5";
unicode = 89;
},
{
glyphname = Z;
kernLeft = Z;
kernRight = Z;
layers = (
{
layerId = m01;
shapes = (
{
closed = 1;
nodes = (
(510,0,l),
(510,73,l),
(128,73,l),
(128,35,l),
(510,627,l),
(510,700,l),
(70,700,l),
(70,627,l),
(452,627,l),
(452,665,l),
(70,73,l),
(70,0,l)
);
}
);
width = 580;
},
{
layerId = m005;
shapes = (
{
closed = 1;
nodes = (
(546,0,l),
(546,113,l),
(176,113,l),
(176,76,l),
(546,587,l),
(546,700,l),
(56,700,l),
(56,587,l),
(426,587,l),
(426,624,l),
(56,113,l),
(56,0,l)
);
}
);
width = 602;
},
{
layerId = m007;
shapes = (
{
closed = 1;
nodes = (
(507,0,l),
(507,53,l),
(112,53,l),
(112,15,l),
(507,647,l),
(507,700,l),
(77,700,l),
(77,647,l),
(472,647,l),
(472,685,l),
(77,53,l),
(77,0,l)
);
}
);
width = 584;
},
{
layerId = m004;
shapes = (
{
closed = 1;
nodes = (
(462,0,l),
(476,73,l),
(95,73,l),
(95,38,l),
(584,627,l),
(598,700,l),
(158,700,l),
(144,627,l),
(525,627,l),
(525,662,l),
(36,73,l),
(22,0,l)
);
}
);
width = 581;
},
{
layerId = m008;
shapes = (
{
closed = 1;
nodes = (
(498,0,l),
(520,113,l),
(150,113,l),
(150,80,l),
(612,587,l),
(634,700,l),
(144,700,l),
(122,587,l),
(492,587,l),
(492,620,l),
(30,113,l),
(8,0,l)
);
}
);
width = 603;
},
{
layerId = m006;
shapes = (
{
closed = 1;
nodes = (
(459,0,l),
(469,53,l),
(74,53,l),
(74,18,l),
(585,647,l),
(595,700,l),
(165,700,l),
(155,647,l),
(550,647,l),
(550,682,l),
(39,53,l),
(29,0,l)
);
}
);
width = 585;
}
);
unicode = 90;
},
{
glyphname = R.ss01;
kernLeft = H;
kernRight = R;
layers = (
{
layerId = m01;
shapes = (
{
closed = 1;
nodes = (
(163,0,l),
(163,309,l),
(325,309,ls),
(450,309,o),
(536,388,o),
(536,504,cs),
(536,621,o),
(450,700,o),
(325,700,cs),
(85,700,l),
(85,0,l)
);
},
{
closed = 1;
nodes = (
(550,0,l),
(366,350,l),
(282,343,l),
(461,0,l)
);
},
{
closed = 1;
nodes = (
(163,627,l),
(325,627,ls),
(404,627,o),
(458,577,o),
(458,504,cs),
(458,431,o),
(405,382,o),
(325,382,cs),
(163,382,l)
);
}
);
width = 600;
},
{
layerId = m005;
shapes = (
{
closed = 1;
nodes = (
(206,0,l),
(206,278,l),
(308,278,ls),
(471,278,o),
(579,362,o),
(579,489,cs),
(579,616,o),
(471,700,o),
(308,700,cs),
(68,700,l),
(68,0,l)
);
},
{
closed = 1;
nodes = (
(590,0,l),
(384,372,l),
(238,359,l),
(436,0,l)
);
},
{
closed = 1;
nodes = (
(206,587,l),
(308,587,ls),
(389,587,o),
(441,549,o),
(441,489,cs),
(441,429,o),
(389,391,o),
(308,391,cs),
(206,391,l)
);
}
);
width = 626;
},
{
layerId = m007;
shapes = (
{
closed = 1;
nodes = (
(152,0,l),
(152,319,l),
(304,319,ls),
(436,319,o),
(525,396,o),
(525,509,cs),
(525,623,o),
(436,700,o),
(304,700,cs),
(94,700,l),
(94,0,l)
);
},
{
closed = 1;
nodes = (
(532,0,l),
(359,349,l),
(295,344,l),
(464,0,l)
);
},
{
closed = 1;
nodes = (
(152,647,l),
(304,647,ls),
(402,647,o),
(467,592,o),
(467,509,cs),
(467,426,o),
(403,372,o),
(304,372,cs),
(152,372,l)
);
}
);
width = 589;
},
{
layerId = m004;
shapes = (
{
closed = 1;
nodes = (
(114,0,l),
(174,309,l),
(330,309,ls),
(479,309,o),
(582,393,o),
(582,516,cs),
(582,626,o),
(499,700,o),
(378,700,cs),
(172,700,l),
(36,0,l)
);
},
{
closed = 1;
nodes = (
(501,0,l),
(385,350,l),
(308,343,l),
(420,0,l)
);
},
{
closed = 1;
nodes = (
(236,627,l),
(378,627,ls),
(455,627,o),
(506,581,o),
(506,513,cs),
(506,434,o),
(436,382,o),
(330,382,cs),
(188,382,l)
);
}
);
width = 600;
},
{
layerId = m008;
shapes = (
{
closed = 1;
nodes = (
(157,0,l),
(211,278,l),
(323,278,ls),
(503,278,o),
(622,365,o),
(622,497,cs),
(622,619,o),
(519,700,o),
(363,700,cs),
(155,700,l),
(19,0,l)
);
},
{
closed = 1;
nodes = (
(541,0,l),
(407,372,l),
(269,359,l),
(397,0,l)
);
},
{
closed = 1;
nodes = (
(271,587,l),
(363,587,ls),
(440,587,o),
(486,553,o),
(486,497,cs),
(486,432,o),
(423,391,o),
(323,391,cs),
(233,391,l)
);
}
);
width = 626;
},
{
layerId = m006;
shapes = (
{
closed = 1;
nodes = (
(103,0,l),
(167,329,l),
(329,329,ls),
(476,329,o),
(575,408,o),
(575,525,cs),
(575,629,o),
(497,700,o),
(381,700,cs),
(181,700,l),
(45,0,l)
);
},
{
closed = 1;
nodes = (
(483,0,l),
(378,349,l),
(318,344,l),
(420,0,l)
);
},
{
closed = 1;
nodes = (
(229,647,l),
(381,647,ls),
(464,647,o),
(519,599,o),
(519,525,cs),
(519,439,o),
(443,382,o),
(329,382,cs),
(177,382,l)
);
}
);
width = 589;
}
);
metricLeft = R;
metricRight = "=R-20";
},
{
glyphname = Y.ss02;
kernLeft = Yalt;
kernRight = Yalt;
layers = (
{
layerId = m01;
shapes = (
{
closed = 1;
nodes = (
(326,276,l),
(583,700,l),
(495,700,l),
(266,322,l),
(312,322,l),
(83,700,l),
(-5,700,l),
(252,276,l)
);
},
{
closed = 1;
nodes = (
(328,0,l),
(328,317,l),
(250,317,l),
(250,0,l)
);
}
);
width = 578;
},
{
layerId = m005;
shapes = (
{
closed = 1;
nodes = (
(382,257,l),
(669,700,l),
(517,700,l),
(306,377,l),
(356,377,l),
(145,700,l),
(-7,700,l),
(280,257,l)
);
},
{
closed = 1;
nodes = (
(400,0,l),
(400,337,l),
(262,337,l),
(262,0,l)
);
}
);
width = 662;
},
{
layerId = m007;
shapes = (
{
closed = 1;
nodes = (
(288,260,l),
(548,700,l),
(484,700,l),
(249,302,l),
(295,302,l),
(60,700,l),
(-4,700,l),
(256,260,l)
);
},
{
closed = 1;
nodes = (
(301,0,l),
(301,324,l),
(243,324,l),
(243,0,l)
);
}
);
width = 544;
},
{
layerId = m004;
shapes = (
{
closed = 1;
nodes = (
(324,266,l),
(670,700,l),
(574,700,l),
(274,325,l),
(316,325,l),
(162,700,l),
(82,700,l),
(260,267,l)
);
},
{
closed = 1;
nodes = (
(279,0,l),
(341,317,l),
(263,317,l),
(201,0,l)
);
}
);
width = 578;
},
{
layerId = m008;
shapes = (
{
closed = 1;
nodes = (
(383,257,l),
(756,700,l),
(590,700,l),
(320,381,l),
(365,381,l),
(218,700,l),
(80,700,l),
(281,257,l)
);
},
{
closed = 1;
nodes = (
(351,0,l),
(416,337,l),
(278,337,l),
(213,0,l)
);
}
);
width = 662;
},
{
layerId = m006;
shapes = (
{
closed = 1;
nodes = (
(290,260,l),
(635,700,l),
(569,700,l),
(257,303,l),
(299,303,l),
(141,700,l),
(83,700,l),
(258,260,l)
);
},
{
closed = 1;
nodes = (
(252,0,l),
(315,324,l),
(257,324,l),
(194,0,l)
);
}
);
width = 544;
}
);
metricLeft = "=Y-20";
metricRight = "=Y-20";
},
{
glyphname = Oslash.ss03;
kernLeft = O;
kernRight = O;
layers = (
{
layerId = m01;
shapes = (
{
closed = 1;
nodes = (
(113,0,l),
(768,700,l),
(680,700,l),
(25,0,l)
);
},
{
pos = (20,0);
ref = O;
}
);
width = 793;
},
{
layerId = m005;
shapes = (
{
closed = 1;
nodes = (
(143,0,l),
(809,700,l),
(680,700,l),
(14,0,l)
);
},
{
pos = (16,0);
ref = O;
}
);
width = 823;
},
{
layerId = m007;
shapes = (
{
closed = 1;
nodes = (
(92,0,l),
(728,700,l),
(667,700,l),
(31,0,l)
);
},
{
pos = (7,0);
ref = O;
}
);
width = 759;
},
{
layerId = m004;
shapes = (
{
closed = 1;
nodes = (
(68,0,l),
(819,700,l),
(727,700,l),
(-24,0,l)
);
},
{
pos = (3,0);
ref = O;
}
);
width = 757;
},
{
layerId = m008;
shapes = (
{
closed = 1;
nodes = (
(104,0,l),
(826,700,l),
(687,700,l),
(-35,0,l)
);
},
{
pos = (-20,0);
ref = O;
}
);
width = 753;
},
{
layerId = m006;
shapes = (
{
closed = 1;
nodes = (
(48,0,l),
(775,700,l),
(709,700,l),
(-18,0,l)
);
},
{
pos = (-11,0);
ref = O;
}
);
width = 719;
}
);
metricLeft = Oslash;
metricRight = Oslash;
},
{
glyphname = Q.ss03;
kernLeft = O;
kernRight = O;
layers = (
{
layerId = m01;
shapes = (
{
closed = 1;
nodes = (
(717,0,l),
(416,346,l),
(328,346,l),
(629,0,l)
);
},
{
ref = O;
}
);
width = 767;
},
{
layerId = m005;
shapes = (
{
closed = 1;
nodes = (
(801,0,l),
(473,346,l),
(318,346,l),
(646,0,l)
);
},
{
ref = O;
}
);
width = 840;
},
{
layerId = m007;
shapes = (
{
closed = 1;
nodes = (
(685,0,l),
(401,346,l),
(340,346,l),
(624,0,l)
);
},
{
ref = O;
}
);
width = 741;
},
{
layerId = m004;
shapes = (
{
closed = 1;
nodes = (
(679,0,l),
(445,346,l),
(357,346,l),
(591,0,l)
);
},
{
ref = O;
}
);
width = 778;
},
{
layerId = m008;
shapes = (
{
closed = 1;
nodes = (
(753,0,l),
(492,346,l),
(357,346,l),
(618,0,l)
);
},
{
ref = O;
}
);
width = 841;
},
{
layerId = m006;
shapes = (
{
closed = 1;
nodes = (
(647,0,l),
(430,346,l),
(369,346,l),
(586,0,l)
);
},
{
ref = O;
}
);
width = 752;
}
);
metricLeft = Q;
metricRight = "=Q+5";
},
{
glyphname = a;
kernLeft = a;
kernRight = u;
layers = (
{
layerId = m01;
shapes = (
{
closed = 1;
nodes = (
(323,-16,o),
(396,64,o),
(396,180,c),
(386,140,l),
(386,0,l),
(461,0,l),
(461,331,ls),
(461,456,o),
(402,516,o),
(279,516,cs),
(149,516,o),
(63,449,o),
(63,348,c),
(136,338,l),
(136,402,o),
(190,443,o),
(275,443,cs),
(336,443,o),
(374,422,o),
(382,383,cs),
(392,337,o),
(352,311,o),
(266,307,cs),
(132,301,o),
(50,238,o),
(50,141,cs),
(50,51,o),
(121,-16,o),
(218,-16,cs)
);
},
{
closed = 1;
nodes = (
(171,57,o),
(128,93,o),
(128,145,cs),
(128,203,o),
(183,240,o),
(274,243,cs),
(356,246,o),
(401,276,o),
(401,326,c),
(386,313,l),
(386,243,ls),
(386,133,o),
(323,57,o),
(233,57,cs)
);
}
);
width = 526;
},
{
layerId = m005;
shapes = (
{
closed = 1;
nodes = (
(332,-16,o),
(396,60,o),
(396,180,c),
(376,141,l),
(376,0,l),
(511,0,l),
(511,326,ls),
(511,445,o),
(428,516,o),
(291,516,cs),
(153,516,o),
(54,443,o),
(54,342,c),
(188,332,l),
(188,377,o),
(228,403,o),
(296,403,cs),
(331,403,o),
(369,397,o),
(373,362,cs),
(377,323,o),
(317,316,o),
(285,312,cs),
(103,288,o),
(40,233,o),
(40,139,cs),
(40,40,o),
(111,-16,o),
(216,-16,cs)
);
},
{
closed = 1;
nodes = (
(203,97,o),
(178,116,o),
(178,149,cs),
(178,184,o),
(207,203,o),
(275,212,cs),
(359,223,o),
(401,252,o),
(401,298,c),
(376,318,l),
(376,273,ls),
(376,167,o),
(324,97,o),
(244,97,cs)
);
}
);
width = 561;
},
{
layerId = m007;
shapes = (
{
closed = 1;
nodes = (
(319,-16,o),
(401,69,o),
(401,180,c),
(391,129,l),
(391,0,l),
(446,0,l),
(446,341,ls),
(446,457,o),
(387,516,o),
(273,516,cs),
(155,516,o),
(72,452,o),
(68,357,c),
(121,349,l),
(127,418,o),
(188,463,o),
(274,463,cs),
(342,463,o),
(382,435,o),
(388,382,cs),
(394,327,o),
(357,301,o),
(266,297,cs),
(131,291,o),
(55,234,o),
(55,138,cs),
(55,48,o),
(121,-16,o),
(213,-16,cs)
);
},
{
closed = 1;
nodes = (
(160,37,o),
(113,81,o),
(113,140,cs),
(113,206,o),
(173,247,o),
(273,250,cs),
(359,253,o),
(406,284,o),
(406,339,c),
(391,299,l),
(391,233,ls),
(391,126,o),
(315,37,o),
(224,37,cs)
);
}
);
width = 519;
},
{
layerId = m004;
shapes = (
{
closed = 1;
nodes = (
(280,-16,o),
(363,63,o),
(386,180,c),
(363,140,l),
(336,0,l),
(411,0,l),
(477,338,ls),
(498,446,o),
(430,516,o),
(304,516,cs),
(188,516,o),
(109,456,o),
(81,348,c),
(152,338,l),
(168,405,o),
(224,443,o),
(304,443,cs),
(367,443,o),
(405,419,o),
(406,377,cs),
(408,329,o),
(361,305,o),
(257,302,cs),
(116,297,o),
(30,233,o),
(30,133,cs),
(30,46,o),
(93,-16,o),
(181,-16,cs)
);
},
{
closed = 1;
nodes = (
(147,57,o),
(107,90,o),
(107,139,cs),
(107,199,o),
(168,236,o),
(274,240,cs),
(363,243,o),
(408,270,o),
(419,326,c),
(397,313,l),
(383,243,ls),
(360,127,o),
(294,57,o),
(207,57,cs)
);
}
);
width = 525;
},
{
layerId = m008;
shapes = (
{
closed = 1;
nodes = (
(297,-16,o),
(354,51,o),
(380,180,c),
(356,141,l),
(329,0,l),
(464,0,l),
(520,291,ls),
(548,434,o),
(473,516,o),
(315,516,cs),
(177,516,o),
(85,453,o),
(62,342,c),
(194,332,l),
(203,379,o),
(242,403,o),
(312,403,cs),
(366,403,o),
(393,389,o),
(395,363,cs),
(397,328,o),
(350,313,o),
(273,309,cs),
(108,301,o),
(20,239,o),
(20,131,cs),
(20,42,o),
(86,-16,o),
(188,-16,cs)
);
},
{
closed = 1;
nodes = (
(185,97,o),
(161,116,o),
(161,146,cs),
(161,184,o),
(201,207,o),
(281,213,cs),
(365,220,o),
(405,245,o),
(410,293,c),
(388,303,l),
(380,263,ls),
(360,165,o),
(297,97,o),
(224,97,cs)
);
}
);
width = 563;
},
{
layerId = m006;
shapes = (
{
closed = 1;
nodes = (
(297,-16,o),
(365,73,o),
(387,180,c),
(367,129,l),
(342,0,l),
(397,0,l),
(463,339,ls),
(484,444,o),
(411,516,o),
(304,516,cs),
(200,516,o),
(112,458,o),
(88,357,c),
(140,347,l),
(159,423,o),
(226,463,o),
(304,463,cs),
(360,463,o),
(414,439,o),
(414,383,cs),
(414,309,o),
(326,299,o),
(252,296,cs),
(139,291,o),
(35,244,o),
(35,131,cs),
(35,43,o),
(100,-16,o),
(188,-16,cs)
);
},
{
closed = 1;
nodes = (
(132,37,o),
(92,74,o),
(92,130,cs),
(92,219,o),
(185,247,o),
(274,250,cs),
(342,252,o),
(411,272,o),
(419,339,c),
(400,299,l),
(387,233,ls),
(366,127,o),
(296,37,o),
(188,37,cs)
);
}
);
width = 519;
}
);
metricRight = "=u-10";
unicode = 97;
},
{
glyphname = ae;
kernLeft = a;
kernRight = o;
layers = (
{
layerId = m01;
shapes = (
{
closed = 1;
nodes = (
(731,-16,o),
(815,47,o),
(835,144,c),
(757,154,l),
(743,95,o),
(691,57,o),
(622,57,cs),
(529,57,o),
(465,127,o),
(465,230,c),
(838,230,l),
(838,248,ls),
(838,408,o),
(748,516,o),
(614,516,cs),
(480,516,o),
(387,407,o),
(387,251,cs),
(387,92,o),
(483,-16,o),
(623,-16,cs)
);
},
{
closed = 1;
nodes = (
(465,384,o),
(525,443,o),
(612,443,cs),
(699,443,o),
(760,384,o),
(760,298,c),
(465,298,l)
);
},
{
closed = 1;
nodes = (
(342,-16,o),
(426,68,o),
(426,180,c),
(461,331,l),
(461,456,o),
(402,516,o),
(279,516,cs),
(149,516,o),
(63,449,o),
(63,348,c),
(136,338,l),
(136,402,o),
(190,443,o),
(275,443,cs),
(336,443,o),
(374,422,o),
(382,383,cs),
(392,337,o),
(352,311,o),
(266,307,cs),
(132,301,o),
(50,237,o),
(50,141,cs),
(50,50,o),
(125,-16,o),
(228,-16,cs)
);
},
{
closed = 1;
nodes = (
(171,57,o),
(128,93,o),
(128,145,cs),
(128,203,o),
(183,240,o),
(274,243,cs),
(356,246,o),
(401,276,o),
(401,326,c),
(386,313,l),
(386,243,ls),
(386,133,o),
(323,57,o),
(233,57,cs)
);
}
);
width = 883;
},
{
layerId = m005;
shapes = (
{
closed = 1;
nodes = (
(771,-16,o),
(862,49,o),
(877,147,c),
(741,157,l),
(726,119,o),
(688,97,o),
(638,97,cs),
(565,97,o),
(515,143,o),
(515,210,c),
(877,210,l),
(877,248,ls),
(877,406,o),
(774,516,o),
(627,516,cs),
(481,516,o),
(376,406,o),
(376,251,cs),
(376,91,o),
(485,-16,o),
(646,-16,cs)
);
},
{
closed = 1;
nodes = (
(515,364,o),
(561,403,o),
(627,403,cs),
(693,403,o),
(738,365,o),
(738,308,c),
(515,308,l)
);
},
{
closed = 1;
nodes = (
(350,-16,o),
(436,67,o),
(436,180,c),
(511,326,l),
(511,445,o),
(428,516,o),
(291,516,cs),
(153,516,o),
(54,443,o),
(54,342,c),
(188,332,l),
(188,377,o),
(228,403,o),
(296,403,cs),
(331,403,o),
(369,397,o),
(373,362,cs),
(376,334,o),
(352,322,o),
(275,312,cs),
(111,290,o),
(40,238,o),
(40,139,cs),
(40,41,o),
(105,-16,o),
(216,-16,cs)
);
},
{
closed = 1;
nodes = (
(203,97,o),
(178,116,o),
(178,149,cs),
(178,184,o),
(207,203,o),
(275,212,cs),
(359,223,o),
(401,252,o),
(401,298,c),
(376,318,l),
(376,273,ls),
(376,167,o),
(324,97,o),
(244,97,cs)
);
}
);
width = 913;
},
{
layerId = m007;
shapes = (
{
closed = 1;
nodes = (
(716,-16,o),
(794,43,o),
(818,135,c),
(759,143,l),
(740,78,o),
(685,37,o),
(616,37,cs),
(517,37,o),
(450,119,o),
(450,240,c),
(823,240,l),
(823,248,ls),
(823,411,o),
(741,516,o),
(613,516,cs),
(483,516,o),
(392,407,o),
(392,249,cs),
(392,91,o),
(482,-16,o),
(616,-16,cs)
);
},
{
closed = 1;
nodes = (
(450,390,o),
(517,463,o),
(612,463,cs),
(704,463,o),
(765,394,o),
(765,288,c),
(450,288,l)
);
},
{
closed = 1;
nodes = (
(331,-16,o),
(421,77,o),
(421,200,c),
(446,341,l),
(446,457,o),
(387,516,o),
(273,516,cs),
(155,516,o),
(72,452,o),
(68,357,c),
(121,349,l),
(127,418,o),
(188,463,o),
(273,463,cs),
(342,463,o),
(382,435,o),
(388,382,cs),
(394,327,o),
(357,301,o),
(266,297,cs),
(131,291,o),
(55,237,o),
(55,138,cs),
(55,47,o),
(119,-16,o),
(213,-16,cs)
);
},
{
closed = 1;
nodes = (
(160,37,o),
(113,81,o),
(113,140,cs),
(113,206,o),
(173,247,o),
(273,250,cs),
(359,253,o),
(406,284,o),
(406,339,c),
(391,299,l),
(391,233,ls),
(391,126,o),
(315,37,o),
(224,37,cs)
);
}
);
width = 873;
},
{
layerId = m004;
shapes = (
{
closed = 1;
nodes = (
(697,-16,o),
(777,44,o),
(816,144,c),
(740,154,l),
(711,93,o),
(656,57,o),
(594,57,cs),
(506,57,o),
(451,129,o),
(463,230,c),
(836,230,l),
(842,265,ls),
(867,409,o),
(785,516,o),
(650,516,cs),
(500,516,o),
(384,385,o),
(384,217,cs),
(384,75,o),
(465,-16,o),
(594,-16,cs)
);
},
{
closed = 1;
nodes = (
(494,386,o),
(559,443,o),
(643,443,cs),
(732,443,o),
(788,380,o),
(771,298,c),
(476,298,l)
);
},
{
closed = 1;
nodes = (
(306,-16,o),
(403,65,o),
(426,180,c),
(477,338,l),
(498,446,o),
(430,516,o),
(304,516,cs),
(188,516,o),
(109,456,o),
(81,348,c),
(152,338,l),
(168,405,o),
(224,443,o),
(304,443,cs),
(367,443,o),
(405,419,o),
(406,377,cs),
(408,329,o),
(361,305,o),
(257,302,cs),
(116,297,o),
(30,234,o),
(30,130,cs),
(30,41,o),
(93,-16,o),
(190,-16,cs)
);
},
{
closed = 1;
nodes = (
(147,57,o),
(107,90,o),
(107,139,cs),
(107,199,o),
(168,236,o),
(274,240,cs),
(363,243,o),
(408,270,o),
(419,326,c),
(397,313,l),
(383,243,ls),
(360,127,o),
(294,57,o),
(207,57,cs)
);
}
);
width = 885;
},
{
layerId = m008;
shapes = (
{
closed = 1;
nodes = (
(727,-16,o),
(821,47,o),
(856,147,c),
(721,157,l),
(699,119,o),
(657,97,o),
(609,97,cs),
(538,97,o),
(494,146,o),
(506,210,c),
(868,210,l),
(875,248,ls),
(903,399,o),
(807,516,o),
(655,516,cs),
(498,516,o),
(380,392,o),
(380,226,cs),
(380,79,o),
(472,-16,o),
(613,-16,cs)
);
},
{
closed = 1;
nodes = (
(535,366,o),
(584,403,o),
(649,403,cs),
(717,403,o),
(759,363,o),
(748,308,c),
(525,308,l)
);
},
{
closed = 1;
nodes = (
(323,-16,o),
(406,59,o),
(430,180,c),
(520,291,l),
(548,434,o),
(473,516,o),
(315,516,cs),
(177,516,o),
(85,453,o),
(62,342,c),
(194,332,l),
(203,379,o),
(242,403,o),
(312,403,cs),
(366,403,o),
(393,389,o),
(395,363,cs),
(397,328,o),
(350,313,o),
(272,309,cs),
(107,300,o),
(20,239,o),
(20,131,cs),
(20,40,o),
(88,-16,o),
(197,-16,cs)
);
},
{
closed = 1;
nodes = (
(185,97,o),
(161,116,o),
(161,146,cs),
(161,184,o),
(201,207,o),
(281,213,cs),
(365,220,o),
(405,245,o),
(410,293,c),
(388,303,l),
(380,263,ls),
(360,165,o),
(297,97,o),
(224,97,cs)
);
}
);
width = 912;
},
{
layerId = m006;
shapes = (
{
closed = 1;
nodes = (
(685,-16,o),
(752,39,o),
(797,135,c),
(740,145,l),
(704,73,o),
(655,37,o),
(594,37,cs),
(498,37,o),
(436,124,o),
(450,240,c),
(823,240,l),
(824,248,ls),
(844,408,o),
(768,516,o),
(637,516,cs),
(497,516,o),
(395,393,o),
(395,223,cs),
(395,78,o),
(470,-16,o),
(592,-16,cs)
);
},
{
closed = 1;
nodes = (
(480,396,o),
(548,463,o),
(635,463,cs),
(725,463,o),
(783,391,o),
(774,288,c),
(459,288,l)
);
},
{
closed = 1;
nodes = (
(293,-16,o),
(389,68,o),
(412,180,c),
(463,339,l),
(484,444,o),
(411,516,o),
(304,516,cs),
(200,516,o),
(112,458,o),
(88,357,c),
(140,347,l),
(159,423,o),
(226,463,o),
(304,463,cs),
(360,463,o),
(414,439,o),
(414,383,cs),
(414,309,o),
(326,299,o),
(252,296,cs),
(139,291,o),
(35,244,o),
(35,132,cs),
(35,45,o),
(98,-16,o),
(188,-16,cs)
);
},
{
closed = 1;
nodes = (
(132,37,o),
(92,74,o),
(92,130,cs),
(92,219,o),
(185,247,o),
(274,250,cs),
(342,252,o),
(411,272,o),
(419,339,c),
(400,299,l),
(387,233,ls),
(366,127,o),
(296,37,o),
(188,37,cs)
);
}
);
width = 875;
}
);
metricLeft = a;
metricRight = e;
unicode = 230;
},
{
glyphname = b;
kernLeft = l;
kernRight = o;
layers = (
{
layerId = m01;
shapes = (
{
closed = 1;
nodes = (
(443,-16,o),
(532,94,o),
(532,250,cs),
(532,406,o),
(443,516,o),
(315,516,cs),
(209,516,o),
(136,441,o),
(136,330,cs),
(136,170,ls),
(136,59,o),
(209,-16,o),
(315,-16,cs)
);
},
{
closed = 1;
nodes = (
(145,0,l),
(145,700,l),
(70,700,l),
(70,0,l)
);
},
{
closed = 1;
nodes = (
(208,57,o),
(146,135,o),
(146,250,cs),
(146,365,o),
(208,443,o),
(300,443,cs),
(392,443,o),
(454,365,o),
(454,250,cs),
(454,135,o),
(392,57,o),
(300,57,cs)
);
}
);
width = 577;
},
{
layerId = m005;
shapes = (
{
closed = 1;
nodes = (
(488,-16,o),
(578,94,o),
(578,250,cs),
(578,406,o),
(488,516,o),
(360,516,cs),
(244,516,o),
(167,426,o),
(167,290,cs),
(167,210,ls),
(167,74,o),
(244,-16,o),
(360,-16,cs)
);
},
{
closed = 1;
nodes = (
(191,0,l),
(191,700,l),
(56,700,l),
(56,0,l)
);
},
{
closed = 1;
nodes = (
(242,97,o),
(192,158,o),
(192,250,cs),
(192,342,o),
(242,403,o),
(316,403,cs),
(390,403,o),
(440,342,o),
(440,250,cs),
(440,158,o),
(390,97,o),
(316,97,cs)
);
}
);
width = 614;
},
{
layerId = m007;
shapes = (
{
closed = 1;
nodes = (
(433,-16,o),
(518,91,o),
(518,250,cs),
(518,409,o),
(433,516,o),
(308,516,cs),
(200,516,o),
(122,438,o),
(122,330,cs),
(122,170,ls),
(122,63,o),
(201,-16,o),
(308,-16,cs)
);
},
{
closed = 1;
nodes = (
(132,0,l),
(132,700,l),
(77,700,l),
(77,0,l)
);
},
{
closed = 1;
nodes = (
(198,37,o),
(132,122,o),
(132,250,cs),
(132,378,o),
(198,463,o),
(296,463,cs),
(394,463,o),
(460,378,o),
(460,250,cs),
(460,122,o),
(394,37,o),
(296,37,cs)
);
}
);
width = 568;
},
{
layerId = m004;
shapes = (
{
closed = 1;
nodes = (
(424,-16,o),
(534,114,o),
(534,282,cs),
(534,424,o),
(456,516,o),
(337,516,cs),
(236,516,o),
(171,450,o),
(147,323,cs),
(122,193,ls),
(99,71,o),
(166,-16,o),
(282,-16,cs)
);
},
{
closed = 1;
nodes = (
(96,0,l),
(232,700,l),
(157,700,l),
(21,0,l)
);
},
{
closed = 1;
nodes = (
(179,57,o),
(125,148,o),
(150,275,cs),
(171,380,o),
(233,443,o),
(318,443,cs),
(403,443,o),
(456,379,o),
(456,276,cs),
(456,151,o),
(379,57,o),
(278,57,cs)
);
}
);
width = 580;
},
{
layerId = m008;
shapes = (
{
closed = 1;
nodes = (
(471,-16,o),
(574,109,o),
(574,281,cs),
(574,424,o),
(502,516,o),
(391,516,cs),
(283,516,o),
(199,428,o),
(173,290,cs),
(158,210,ls),
(133,81,o),
(207,-16,o),
(331,-16,cs)
);
},
{
closed = 1;
nodes = (
(142,0,l),
(278,700,l),
(143,700,l),
(7,0,l)
);
},
{
closed = 1;
nodes = (
(215,97,o),
(174,164,o),
(193,259,cs),
(210,345,o),
(267,403,o),
(335,403,cs),
(399,403,o),
(438,353,o),
(438,271,cs),
(438,171,o),
(377,97,o),
(294,97,cs)
);
}
);
width = 612;
},
{
layerId = m006;
shapes = (
{
closed = 1;
nodes = (
(439,-16,o),
(521,133,o),
(521,295,cs),
(521,415,o),
(460,516,o),
(340,516,cs),
(218,516,o),
(157,430,o),
(134,321,cs),
(114,226,ls),
(87,99,o),
(137,-16,o),
(277,-16,cs)
);
},
{
closed = 1;
nodes = (
(83,0,l),
(219,700,l),
(164,700,l),
(28,0,l)
);
},
{
closed = 1;
nodes = (
(156,37,o),
(112,150,o),
(135,264,cs),
(156,370,o),
(222,463,o),
(330,463,cs),
(421,463,o),
(464,380,o),
(464,289,cs),
(464,160,o),
(402,37,o),
(273,37,cs)
);
}
);
width = 571;
}
);
metricLeft = l;
metricRight = o;
unicode = 98;
},
{
glyphname = c;
kernLeft = o;
kernRight = o;
layers = (
{
layerId = m01;
shapes = (
{
closed = 1;
nodes = (
(401,-16,o),
(491,63,o),
(501,177,c),
(423,187,l),
(417,110,o),
(359,57,o),
(280,57,cs),
(186,57,o),
(123,134,o),
(123,249,cs),
(123,365,o),
(186,443,o),
(280,443,cs),
(359,443,o),
(417,388,o),
(423,307,c),
(501,317,l),
(491,434,o),
(401,516,o),
(280,516,cs),
(141,516,o),
(45,406,o),
(45,249,cs),
(45,92,o),
(141,-16,o),
(281,-16,cs)
);
}
);
width = 546;
},
{
layerId = m005;
shapes = (
{
closed = 1;
nodes = (
(433,-16,o),
(531,64,o),
(544,183,c),
(398,193,l),
(386,133,o),
(348,97,o),
(294,97,cs),
(226,97,o),
(184,155,o),
(184,248,cs),
(184,343,o),
(227,403,o),
(294,403,cs),
(347,403,o),
(385,365,o),
(398,301,c),
(544,311,l),
(530,434,o),
(430,516,o),
(296,516,cs),
(142,516,o),
(36,407,o),
(36,249,cs),
(36,91,o),
(142,-16,o),
(298,-16,cs)
);
}
);
width = 580;
},
{
layerId = m007;
shapes = (
{
closed = 1;
nodes = (
(388,-16,o),
(472,61,o),
(485,178,c),
(427,186,l),
(416,95,o),
(356,37,o),
(274,37,cs),
(174,37,o),
(108,122,o),
(108,249,cs),
(108,377,o),
(175,463,o),
(273,463,cs),
(356,463,o),
(416,402,o),
(427,308,c),
(485,316,l),
(471,436,o),
(387,516,o),
(274,516,cs),
(142,516,o),
(50,406,o),
(50,249,cs),
(50,92,o),
(142,-16,o),
(275,-16,cs)
);
}
);
width = 535;
},
{
layerId = m004;
shapes = (
{
closed = 1;
nodes = (
(365,-16,o),
(450,56,o),
(485,177,c),
(409,187,l),
(387,106,o),
(329,57,o),
(256,57,cs),
(173,57,o),
(124,120,o),
(124,225,cs),
(124,352,o),
(196,443,o),
(296,443,cs),
(374,443,o),
(429,388,o),
(434,307,c),
(514,317,l),
(508,435,o),
(421,516,o),
(302,516,cs),
(155,516,o),
(48,394,o),
(48,227,cs),
(48,80,o),
(131,-16,o),
(256,-16,cs)
);
}
);
width = 546;
},
{
layerId = m008;
shapes = (
{
closed = 1;
nodes = (
(404,-16,o),
(503,60,o),
(535,181,c),
(400,191,l),
(382,133,o),
(335,97,o),
(277,97,cs),
(211,97,o),
(173,144,o),
(173,224,cs),
(173,326,o),
(235,403,o),
(317,403,cs),
(376,403,o),
(418,363,o),
(420,303,c),
(559,313,l),
(562,431,o),
(464,516,o),
(325,516,cs),
(160,516,o),
(38,393,o),
(38,226,cs),
(38,79,o),
(132,-16,o),
(276,-16,cs)
);
}
);
width = 584;
},
{
layerId = m006;
shapes = (
{
closed = 1;
nodes = (
(350,-16,o),
(430,58,o),
(466,186,c),
(410,196,l),
(384,95,o),
(324,37,o),
(246,37,cs),
(161,37,o),
(109,107,o),
(109,220,cs),
(109,360,o),
(187,463,o),
(292,463,cs),
(370,463,o),
(419,406,o),
(427,308,c),
(487,318,l),
(477,441,o),
(405,516,o),
(296,516,cs),
(156,516,o),
(52,392,o),
(52,225,cs),
(52,81,o),
(131,-16,o),
(248,-16,cs)
);
}
);
width = 528;
}
);
metricLeft = o;
metricRight = o;
unicode = 99;
},
{
glyphname = d;
kernLeft = o;
kernRight = l;
layers = (
{
layerId = m01;
shapes = (
{
closed = 1;
nodes = (
(367,-16,o),
(441,60,o),
(441,170,cs),
(441,330,ls),
(441,441,o),
(368,516,o),
(262,516,cs),
(134,516,o),
(45,406,o),
(45,250,cs),
(45,93,o),
(134,-16,o),
(261,-16,cs)
);
},
{
closed = 1;
nodes = (
(185,57,o),
(123,135,o),
(123,250,cs),
(123,365,o),
(185,443,o),
(277,443,cs),
(369,443,o),
(431,365,o),
(431,250,cs),
(431,135,o),
(369,57,o),
(277,57,cs)
);
},
{
closed = 1;
nodes = (
(507,0,l),
(507,700,l),
(432,700,l),
(432,0,l)
);
}
);
width = 577;
},
{
layerId = m005;
shapes = (
{
closed = 1;
nodes = (
(370,-16,o),
(447,74,o),
(447,210,cs),
(447,290,ls),
(447,425,o),
(368,516,o),
(252,516,cs),
(124,516,o),
(36,408,o),
(36,251,cs),
(36,94,o),
(126,-16,o),
(254,-16,cs)
);
},
{
closed = 1;
nodes = (
(224,97,o),
(174,158,o),
(174,250,cs),
(174,342,o),
(224,403,o),
(298,403,cs),
(372,403,o),
(422,342,o),
(422,250,cs),
(422,158,o),
(372,97,o),
(298,97,cs)
);
},
{
closed = 1;
nodes = (
(558,0,l),
(558,700,l),
(423,700,l),
(423,0,l)
);
}
);
width = 614;
},
{
layerId = m007;
shapes = (
{
closed = 1;
nodes = (
(368,-16,o),
(446,62,o),
(446,170,cs),
(446,330,ls),
(446,438,o),
(368,516,o),
(260,516,cs),
(135,516,o),
(50,409,o),
(50,250,cs),
(50,91,o),
(134,-16,o),
(260,-16,cs)
);
},
{
closed = 1;
nodes = (
(174,37,o),
(108,122,o),
(108,250,cs),
(108,378,o),
(174,463,o),
(272,463,cs),
(370,463,o),
(436,378,o),
(436,250,cs),
(436,122,o),
(370,37,o),
(272,37,cs)
);
},
{
closed = 1;
nodes = (
(491,0,l),
(491,700,l),
(436,700,l),
(436,0,l)
);
}
);
width = 568;
},
{
layerId = m004;
shapes = (
{
closed = 1;
nodes = (
(344,-16,o),
(410,51,o),
(434,177,cs),
(459,307,ls),
(483,430,o),
(417,516,o),
(299,516,cs),
(156,516,o),
(46,388,o),
(46,220,cs),
(46,78,o),
(125,-16,o),
(244,-16,cs)
);
},
{
closed = 1;
nodes = (
(179,57,o),
(124,123,o),
(124,225,cs),
(124,349,o),
(202,443,o),
(305,443,cs),
(405,443,o),
(457,353,o),
(431,226,cs),
(410,119,o),
(349,57,o),
(265,57,cs)
);
},
{
closed = 1;
nodes = (
(462,0,l),
(598,700,l),
(523,700,l),
(387,0,l)
);
}
);
width = 581;
},
{
layerId = m008;
shapes = (
{
closed = 1;
nodes = (
(322,-16,o),
(412,76,o),
(437,210,cs),
(452,290,ls),
(477,419,o),
(406,516,o),
(288,516,cs),
(149,516,o),
(36,380,o),
(36,213,cs),
(36,78,o),
(110,-16,o),
(217,-16,cs)
);
},
{
closed = 1;
nodes = (
(208,97,o),
(172,145,o),
(172,225,cs),
(172,327,o),
(234,403,o),
(318,403,cs),
(395,403,o),
(437,338,o),
(419,246,cs),
(402,159,o),
(340,97,o),
(270,97,cs)
);
},
{
closed = 1;
nodes = (
(506,0,l),
(642,700,l),
(507,700,l),
(371,0,l)
);
}
);
width = 611;
},
{
layerId = m006;
shapes = (
{
closed = 1;
nodes = (
(341,-16,o),
(409,49,o),
(436,179,cs),
(456,274,ls),
(486,416,o),
(421,516,o),
(298,516,cs),
(156,516,o),
(49,382,o),
(49,205,cs),
(49,65,o),
(117,-16,o),
(235,-16,cs)
);
},
{
closed = 1;
nodes = (
(157,37,o),
(106,105,o),
(106,213,cs),
(106,353,o),
(191,463,o),
(298,463,cs),
(400,463,o),
(461,362,o),
(435,235,cs),
(412,121,o),
(329,37,o),
(239,37,cs)
);
},
{
closed = 1;
nodes = (
(445,0,l),
(581,700,l),
(526,700,l),
(390,0,l)
);
}
);
width = 571;
}
);
metricLeft = o;
metricRight = l;
unicode = 100;
},
{
glyphname = eth;
kernLeft = o;
kernRight = o;
layers = (
{
layerId = m01;
shapes = (
{
closed = 1;
nodes = (
(435,-16,o),
(529,104,o),
(529,296,cs),
(529,541,o),
(377,716,o),
(166,716,c),
(166,648,l),
(342,648,o),
(459,501,o),
(459,280,c),
(474,270,l),
(474,386,o),
(394,465,o),
(277,465,cs),
(143,465,o),
(45,363,o),
(45,224,cs),
(45,84,o),
(144,-16,o),
(283,-16,cs)
);
},
{
closed = 1;
nodes = (
(191,57,o),
(123,127,o),
(123,225,cs),
(123,323,o),
(191,392,o),
(287,392,cs),
(383,392,o),
(452,323,o),
(452,225,cs),
(452,127,o),
(383,57,o),
(287,57,cs)
);
},
{
closed = 1;
nodes = (
(500,650,l),
(477,695,l),
(169,550,l),
(192,505,l)
);
}
);
width = 574;
},
{
layerId = m005;
shapes = (
{
closed = 1;
nodes = (
(459,-15,o),
(562,106,o),
(562,297,cs),
(562,539,o),
(396,715,o),
(169,715,c),
(169,605,l),
(332,605,o),
(448,490,o),
(448,329,c),
(469,287,l),
(469,393,o),
(390,465,o),
(274,465,cs),
(137,465,o),
(36,364,o),
(36,226,cs),
(36,84,o),
(144,-17,o),
(295,-16,cs)
);
},
{
closed = 1;
nodes = (
(233,97,o),
(184,150,o),
(184,226,cs),
(184,301,o),
(232,352,o),
(302,352,cs),
(373,352,o),
(423,300,o),
(423,225,cs),
(423,150,o),
(373,97,o),
(303,97,cs)
);
},
{
closed = 1;
nodes = (
(502,626,l),
(476,680,l),
(159,532,l),
(185,478,l)
);
}
);
width = 598;
},
{
layerId = m007;
shapes = (
{
closed = 1;
nodes = (
(427,-16,o),
(514,102,o),
(514,300,cs),
(514,549,o),
(376,716,o),
(171,716,c),
(171,668,l),
(349,668,o),
(464,518,o),
(464,285,c),
(468,289,l),
(468,385,o),
(389,454,o),
(277,454,cs),
(144,454,o),
(50,357,o),
(50,219,cs),
(50,82,o),
(145,-16,o),
(280,-16,cs)
);
},
{
closed = 1;
nodes = (
(177,37,o),
(108,111,o),
(108,219,cs),
(108,326,o),
(180,401,o),
(282,401,cs),
(384,401,o),
(457,326,o),
(457,220,cs),
(457,114,o),
(382,37,o),
(278,37,cs)
);
},
{
closed = 1;
nodes = (
(493,645,l),
(475,681,l),
(176,541,l),
(194,505,l)
);
}
);
width = 564;
},
{
layerId = m004;
shapes = (
{
closed = 1;
nodes = (
(429,-16,o),
(527,112,o),
(527,321,cs),
(527,552,o),
(406,716,o),
(235,716,c),
(222,648,l),
(373,648,o),
(463,510,o),
(463,280,c),
(478,260,l),
(478,385,o),
(402,465,o),
(285,465,cs),
(154,465,o),
(53,366,o),
(43,230,cs),
(32,87,o),
(128,-16,o),
(270,-16,cs)
);
},
{
closed = 1;
nodes = (
(184,57,o),
(119,124,o),
(119,221,cs),
(119,320,o),
(187,392,o),
(282,392,cs),
(376,392,o),
(443,321,o),
(443,223,cs),
(443,125,o),
(375,57,o),
(279,57,cs)
);
},
{
closed = 1;
nodes = (
(556,650,l),
(542,695,l),
(206,550,l),
(220,505,l)
);
}
);
width = 569;
},
{
layerId = m008;
shapes = (
{
closed = 1;
nodes = (
(454,-15,o),
(565,119,o),
(565,323,cs),
(565,550,o),
(428,715,o),
(239,715,c),
(218,605,l),
(362,605,o),
(463,492,o),
(463,329,c),
(478,276,l),
(478,390,o),
(399,465,o),
(280,465,cs),
(139,465,o),
(35,361,o),
(35,221,cs),
(35,81,o),
(139,-17,o),
(285,-16,cs)
);
},
{
closed = 1;
nodes = (
(218,98,o),
(171,146,o),
(171,216,cs),
(171,293,o),
(227,351,o),
(302,351,cs),
(370,351,o),
(417,303,o),
(417,232,cs),
(417,155,o),
(362,98,o),
(287,98,cs)
);
},
{
closed = 1;
nodes = (
(556,627,l),
(540,681,l),
(194,533,l),
(210,479,l)
);
}
);
width = 596;
},
{
layerId = m006;
shapes = (
{
closed = 1;
nodes = (
(421,-16,o),
(514,110,o),
(514,318,cs),
(514,553,o),
(398,716,o),
(230,716,c),
(221,668,l),
(376,668,o),
(471,523,o),
(471,285,c),
(471,231,l),
(493,360,o),
(414,454,o),
(284,454,cs),
(148,454,o),
(47,350,o),
(47,209,cs),
(47,75,o),
(137,-16,o),
(268,-16,cs)
);
},
{
closed = 1;
nodes = (
(170,37,o),
(103,107,o),
(103,210,cs),
(103,320,o),
(180,401,o),
(285,401,cs),
(383,401,o),
(449,331,o),
(449,228,cs),
(449,118,o),
(373,37,o),
(268,37,cs)
);
},
{
closed = 1;
nodes = (
(540,645,l),
(529,681,l),
(203,541,l),
(214,505,l)
);
}
);
width = 562;
}
);
metricLeft = o;
metricRight = o;
unicode = 240;
},
{
glyphname = dcroat;
kernLeft = o;
kernRight = l;
layers = (
{
layerId = m01;
shapes = (
{
closed = 1;
nodes = (
(604,573,l),
(604,627,l),
(244,627,l),
(244,573,l)
);
},
{
ref = d;
}
);
width = 584;
},
{
layerId = m005;
shapes = (
{
closed = 1;
nodes = (
(651,568,l),
(651,630,l),
(263,630,l),
(263,568,l)
);
},
{
ref = d;
}
);
width = 617;
},
{
layerId = m007;
shapes = (
{
closed = 1;
nodes = (
(594,583,l),
(594,617,l),
(254,617,l),
(254,583,l)
);
},
{
ref = d;
}
);
width = 581;
},
{
layerId = m004;
shapes = (
{
closed = 1;
nodes = (
(667,573,l),
(678,627,l),
(318,627,l),
(307,573,l)
);
},
{
ref = d;
}
);
width = 585;
},
{
layerId = m008;
shapes = (
{
closed = 1;
nodes = (
(713,568,l),
(725,630,l),
(337,630,l),
(325,568,l)
);
},
{
ref = d;
}
);
width = 617;
},
{
layerId = m006;
shapes = (
{
closed = 1;
nodes = (
(659,583,l),
(666,617,l),
(326,617,l),
(319,583,l)
);
},
{
ref = d;
}
);
width = 582;
}
);
metricLeft = d;
metricRight = "=l-90";
unicode = 273;
},
{
glyphname = e;
kernLeft = o;
kernRight = o;
layers = (
{
layerId = m01;
shapes = (
{
closed = 1;
nodes = (
(389,-16,o),
(473,47,o),
(493,144,c),
(415,154,l),
(401,95,o),
(349,57,o),
(280,57,cs),
(187,57,o),
(123,127,o),
(123,230,c),
(496,230,l),
(496,248,ls),
(496,408,o),
(406,516,o),
(272,516,cs),
(138,516,o),
(45,407,o),
(45,251,cs),
(45,92,o),
(141,-16,o),
(281,-16,cs)
);
},
{
closed = 1;
nodes = (
(123,384,o),
(183,443,o),
(270,443,cs),
(357,443,o),
(418,384,o),
(418,298,c),
(123,298,l)
);
}
);
width = 541;
},
{
layerId = m005;
shapes = (
{
closed = 1;
nodes = (
(431,-16,o),
(522,49,o),
(537,147,c),
(401,157,l),
(386,119,o),
(348,97,o),
(298,97,cs),
(225,97,o),
(175,143,o),
(175,210,c),
(537,210,l),
(537,248,ls),
(537,406,o),
(434,516,o),
(287,516,cs),
(141,516,o),
(36,406,o),
(36,251,cs),
(36,91,o),
(145,-16,o),
(306,-16,cs)
);
},
{
closed = 1;
nodes = (
(175,364,o),
(221,403,o),
(287,403,cs),
(353,403,o),
(398,365,o),
(398,308,c),
(175,308,l)
);
}
);
width = 573;
},
{
layerId = m007;
shapes = (
{
closed = 1;
nodes = (
(374,-16,o),
(452,43,o),
(476,135,c),
(417,143,l),
(398,78,o),
(343,37,o),
(274,37,cs),
(175,37,o),
(108,119,o),
(108,240,c),
(481,240,l),
(481,248,ls),
(481,411,o),
(399,516,o),
(271,516,cs),
(141,516,o),
(50,407,o),
(50,249,cs),
(50,91,o),
(140,-16,o),
(274,-16,cs)
);
},
{
closed = 1;
nodes = (
(108,390,o),
(175,463,o),
(270,463,cs),
(362,463,o),
(423,394,o),
(423,288,c),
(108,288,l)
);
}
);
width = 531;
},
{
layerId = m004;
shapes = (
{
closed = 1;
nodes = (
(359,-16,o),
(438,44,o),
(477,144,c),
(401,154,l),
(372,93,o),
(317,57,o),
(255,57,cs),
(167,57,o),
(112,129,o),
(124,230,c),
(497,230,l),
(503,265,ls),
(528,408,o),
(445,516,o),
(310,516,cs),
(161,516,o),
(45,385,o),
(45,216,cs),
(45,75,o),
(126,-16,o),
(255,-16,cs)
);
},
{
closed = 1;
nodes = (
(155,386,o),
(220,443,o),
(304,443,cs),
(393,443,o),
(449,380,o),
(432,298,c),
(137,298,l)
);
}
);
width = 546;
},
{
layerId = m008;
shapes = (
{
closed = 1;
nodes = (
(385,-16,o),
(479,47,o),
(514,147,c),
(379,157,l),
(357,119,o),
(315,97,o),
(267,97,cs),
(196,97,o),
(152,146,o),
(164,210,c),
(526,210,l),
(533,248,ls),
(561,399,o),
(465,516,o),
(313,516,cs),
(156,516,o),
(38,392,o),
(38,226,cs),
(38,79,o),
(130,-16,o),
(271,-16,cs)
);
},
{
closed = 1;
nodes = (
(193,366,o),
(242,403,o),
(307,403,cs),
(375,403,o),
(417,363,o),
(406,308,c),
(183,308,l)
);
}
);
width = 570;
},
{
layerId = m006;
shapes = (
{
closed = 1;
nodes = (
(342,-16,o),
(409,39,o),
(454,135,c),
(397,145,l),
(361,73,o),
(312,37,o),
(251,37,cs),
(155,37,o),
(93,124,o),
(107,240,c),
(480,240,l),
(481,248,ls),
(501,408,o),
(425,516,o),
(294,516,cs),
(154,516,o),
(52,393,o),
(52,223,cs),
(52,78,o),
(127,-16,o),
(249,-16,cs)
);
},
{
closed = 1;
nodes = (
(137,396,o),
(205,463,o),
(292,463,cs),
(382,463,o),
(440,391,o),
(431,288,c),
(116,288,l)
);
}
);
width = 532;
}
);
metricLeft = o;
metricRight = o;
unicode = 101;
},
{
glyphname = f;
kernLeft = f;
kernRight = f;
layers = (
{
layerId = m01;
shapes = (
{
closed = 1;
nodes = (
(203,0,l),
(203,577,ls),
(203,617,o),
(223,637,o),
(263,637,cs),
(353,637,l),
(353,710,l),
(268,710,ls),
(174,710,o),
(128,664,o),
(128,570,cs),
(128,0,l)
);
},
{
closed = 1;
nodes = (
(353,427,l),
(353,500,l),
(20,500,l),
(20,427,l)
);
}
);
width = 373;
},
{
layerId = m005;
shapes = (
{
closed = 1;
nodes = (
(259,0,l),
(259,537,ls),
(259,577,o),
(279,597,o),
(319,597,cs),
(409,597,l),
(409,710,l),
(294,710,ls),
(180,710,o),
(124,657,o),
(124,550,cs),
(124,0,l)
);
},
{
closed = 1;
nodes = (
(409,387,l),
(409,500,l),
(16,500,l),
(16,387,l)
);
}
);
width = 425;
},
{
layerId = m007;
shapes = (
{
closed = 1;
nodes = (
(185,0,l),
(185,587,ls),
(185,634,o),
(208,657,o),
(255,657,cs),
(335,657,l),
(335,710,l),
(260,710,ls),
(173,710,o),
(130,667,o),
(130,580,cs),
(130,0,l)
);
},
{
closed = 1;
nodes = (
(335,447,l),
(335,500,l),
(22,500,l),
(22,447,l)
);
}
);
width = 357;
},
{
layerId = m004;
shapes = (
{
closed = 1;
nodes = (
(155,0,l),
(267,577,ls),
(274,614,o),
(302,637,o),
(339,637,cs),
(429,637,l),
(443,710,l),
(358,710,ls),
(271,710,o),
(207,656,o),
(191,570,cs),
(80,0,l)
);
},
{
closed = 1;
nodes = (
(388,427,l),
(402,500,l),
(69,500,l),
(55,427,l)
);
}
);
width = 374;
},
{
layerId = m008;
shapes = (
{
closed = 1;
nodes = (
(211,0,l),
(315,537,ls),
(323,575,o),
(346,597,o),
(377,597,cs),
(477,597,l),
(499,710,l),
(364,710,ls),
(271,710,o),
(204,660,o),
(188,577,cs),
(76,0,l)
);
},
{
closed = 1;
nodes = (
(436,387,l),
(458,500,l),
(65,500,l),
(43,387,l)
);
}
);
width = 426;
},
{
layerId = m006;
shapes = (
{
closed = 1;
nodes = (
(137,0,l),
(251,587,ls),
(259,630,o),
(291,657,o),
(335,657,cs),
(415,657,l),
(425,710,l),
(350,710,ls),
(269,710,o),
(210,660,o),
(195,580,cs),
(82,0,l)
);
},
{
closed = 1;
nodes = (
(374,447,l),
(384,500,l),
(71,500,l),
(61,447,l)
);
}
);
width = 358;
}
);
unicode = 102;
},
{
glyphname = g;
kernLeft = o;
kernRight = g;
layers = (
{
layerId = m01;
shapes = (
{
closed = 1;
nodes = (
(414,-216,o),
(507,-122,o),
(507,19,cs),
(507,500,l),
(432,500,l),
(432,19,ls),
(432,-79,o),
(368,-143,o),
(272,-143,cs),
(198,-143,o),
(143,-105,o),
(139,-51,c),
(61,-61,l),
(65,-151,o),
(153,-216,o),
(272,-216,cs)
);
},
{
closed = 1;
nodes = (
(367,-16,o),
(441,60,o),
(441,170,cs),
(441,330,ls),
(441,441,o),
(368,516,o),
(262,516,cs),
(134,516,o),
(45,406,o),
(45,250,cs),
(45,93,o),
(134,-16,o),
(261,-16,cs)
);
},
{
closed = 1;
nodes = (
(185,57,o),
(123,135,o),
(123,250,cs),
(123,365,o),
(185,443,o),
(277,443,cs),
(369,443,o),
(431,365,o),
(431,250,cs),
(431,135,o),
(369,57,o),
(277,57,cs)
);
}
);
width = 577;
},
{
layerId = m005;
shapes = (
{
closed = 1;
nodes = (
(450,-216,o),
(558,-112,o),
(558,50,cs),
(558,500,l),
(423,500,l),
(423,20,ls),
(423,-52,o),
(369,-103,o),
(294,-103,cs),
(245,-103,o),
(210,-82,o),
(200,-45,c),
(52,-55,l),
(52,-150,o),
(146,-216,o),
(282,-216,cs)
);
},
{
closed = 1;
nodes = (
(370,-16,o),
(447,74,o),
(447,210,cs),
(447,290,ls),
(447,425,o),
(368,516,o),
(252,516,cs),
(124,516,o),
(36,408,o),
(36,251,cs),
(36,94,o),
(126,-16,o),
(254,-16,cs)
);
},
{
closed = 1;
nodes = (
(224,97,o),
(174,158,o),
(174,250,cs),
(174,342,o),
(224,403,o),
(298,403,cs),
(372,403,o),
(422,342,o),
(422,250,cs),
(422,158,o),
(372,97,o),
(298,97,cs)
);
}
);
width = 614;
},
{
layerId = m007;
shapes = (
{
closed = 1;
nodes = (
(401,-216,o),
(492,-125,o),
(492,9,cs),
(492,500,l),
(437,500,l),
(437,9,ls),
(437,-93,o),
(370,-163,o),
(272,-163,cs),
(198,-163,o),
(141,-124,o),
(126,-62,c),
(67,-70,l),
(83,-158,o),
(163,-216,o),
(269,-216,cs)
);
},
{
closed = 1;
nodes = (
(368,-16,o),
(446,62,o),
(446,170,cs),
(446,330,ls),
(446,438,o),
(368,516,o),
(260,516,cs),
(135,516,o),
(50,409,o),
(50,250,cs),
(50,91,o),
(134,-16,o),
(260,-16,cs)
);
},
{
closed = 1;
nodes = (
(174,37,o),
(108,122,o),
(108,250,cs),
(108,378,o),
(174,463,o),
(272,463,cs),
(370,463,o),
(436,378,o),
(436,250,cs),
(436,122,o),
(370,37,o),
(272,37,cs)
);
}
);
width = 569;
},
{
layerId = m004;
shapes = (
{
closed = 1;
nodes = (
(339,-216,o),
(439,-126,o),
(467,19,cs),
(560,500,l),
(485,500,l),
(392,19,ls),
(373,-80,o),
(302,-143,o),
(208,-143,cs),
(135,-143,o),
(85,-105,o),
(85,-51,c),
(5,-61,l),
(15,-153,o),
(97,-216,o),
(207,-216,cs)
);
},
{
closed = 1;
nodes = (
(344,-16,o),
(410,51,o),
(434,177,cs),
(459,307,ls),
(483,430,o),
(417,516,o),
(299,516,cs),
(156,516,o),
(46,388,o),
(46,220,cs),
(46,78,o),
(125,-16,o),
(244,-16,cs)
);
},
{
closed = 1;
nodes = (
(179,57,o),
(124,123,o),
(124,225,cs),
(124,349,o),
(202,443,o),
(305,443,cs),
(405,443,o),
(457,353,o),
(431,226,cs),
(410,119,o),
(349,57,o),
(265,57,cs)
);
}
);
width = 582;
},
{
layerId = m008;
shapes = (
{
closed = 1;
nodes = (
(371,-216,o),
(482,-126,o),
(510,20,cs),
(603,500,l),
(468,500,l),
(375,20,ls),
(361,-55,o),
(302,-103,o),
(226,-103,cs),
(176,-103,o),
(144,-82,o),
(139,-45,c),
(-11,-55,l),
(-1,-152,o),
(91,-216,o),
(219,-216,cs)
);
},
{
closed = 1;
nodes = (
(322,-16,o),
(412,76,o),
(437,210,cs),
(452,290,ls),
(476,419,o),
(406,516,o),
(288,516,cs),
(149,516,o),
(36,380,o),
(36,213,cs),
(36,78,o),
(110,-16,o),
(217,-16,cs)
);
},
{
closed = 1;
nodes = (
(208,97,o),
(172,145,o),
(172,225,cs),
(172,327,o),
(234,403,o),
(318,403,cs),
(395,403,o),
(437,338,o),
(419,246,cs),
(402,159,o),
(340,97,o),
(270,97,cs)
);
}
);
width = 611;
},
{
layerId = m006;
shapes = (
{
closed = 1;
nodes = (
(323,-216,o),
(419,-131,o),
(447,9,cs),
(542,500,l),
(487,500,l),
(392,9,ls),
(371,-96,o),
(296,-163,o),
(199,-163,cs),
(123,-163,o),
(70,-122,o),
(67,-62,c),
(6,-70,l),
(12,-157,o),
(89,-216,o),
(196,-216,cs)
);
},
{
closed = 1;
nodes = (
(341,-16,o),
(409,49,o),
(436,179,cs),
(456,274,ls),
(486,416,o),
(421,516,o),
(298,516,cs),
(156,516,o),
(49,382,o),
(49,205,cs),
(49,65,o),
(117,-16,o),
(235,-16,cs)
);
},
{
closed = 1;
nodes = (
(157,37,o),
(106,105,o),
(106,213,cs),
(106,353,o),
(191,463,o),
(298,463,cs),
(400,463,o),
(461,362,o),
(435,235,cs),
(412,121,o),
(329,37,o),
(239,37,cs)
);
}
);
width = 571;
}
);
metricLeft = o;
metricRight = l;
unicode = 103;
},
{
glyphname = h;
kernLeft = l;
kernRight = m;
layers = (
{
layerId = m01;
shapes = (
{
closed = 1;
nodes = (
(478,0,l),
(478,329,ls),
(478,444,o),
(415,516,o),
(316,516,cs),
(214,516,o),
(135,439,o),
(135,339,c),
(150,243,l),
(150,364,o),
(210,443,o),
(300,443,cs),
(365,443,o),
(403,401,o),
(403,329,cs),
(403,0,l)
);
},
{
closed = 1;
nodes = (
(150,0,l),
(150,700,l),
(75,700,l),
(75,0,l)
);
}
);
width = 548;
},
{
layerId = m005;
shapes = (
{
closed = 1;
nodes = (
(523,0,l),
(523,299,ls),
(523,437,o),
(463,516,o),
(357,516,cs),
(244,516,o),
(169,427,o),
(169,293,c),
(195,243,l),
(195,339,o),
(239,403,o),
(306,403,cs),
(358,403,o),
(388,363,o),
(388,293,cs),
(388,0,l)
);
},
{
closed = 1;
nodes = (
(195,0,l),
(195,700,l),
(60,700,l),
(60,0,l)
);
}
);
width = 579;
},
{
layerId = m007;
shapes = (
{
closed = 1;
nodes = (
(466,0,l),
(466,319,ls),
(466,439,o),
(402,516,o),
(304,516,cs),
(200,516,o),
(118,430,o),
(118,319,c),
(138,243,l),
(138,376,o),
(201,463,o),
(298,463,cs),
(371,463,o),
(411,413,o),
(411,319,cs),
(411,0,l)
);
},
{
closed = 1;
nodes = (
(138,0,l),
(138,700,l),
(83,700,l),
(83,0,l)
);
}
);
width = 543;
},
{
layerId = m004;
shapes = (
{
closed = 1;
nodes = (
(429,0,l),
(487,300,ls),
(511,428,o),
(453,516,o),
(344,516,cs),
(246,516,o),
(168,444,o),
(154,339,c),
(148,243,l),
(170,364,o),
(240,443,o),
(325,443,cs),
(396,443,o),
(429,388,o),
(412,300,cs),
(354,0,l)
);
},
{
closed = 1;
nodes = (
(101,0,l),
(237,700,l),
(162,700,l),
(26,0,l)
);
}
);
width = 548;
},
{
layerId = m008;
shapes = (
{
closed = 1;
nodes = (
(474,0,l),
(536,319,ls),
(558,432,o),
(497,516,o),
(391,516,cs),
(285,516,o),
(203,431,o),
(177,293,c),
(193,243,l),
(212,343,o),
(262,403,o),
(327,403,cs),
(381,403,o),
(410,362,o),
(398,303,cs),
(339,0,l)
);
},
{
closed = 1;
nodes = (
(146,0,l),
(282,700,l),
(147,700,l),
(11,0,l)
);
}
);
width = 579;
},
{
layerId = m006;
shapes = (
{
closed = 1;
nodes = (
(417,0,l),
(477,309,ls),
(501,429,o),
(442,516,o),
(336,516,cs),
(235,516,o),
(153,438,o),
(131,319,c),
(136,243,l),
(164,378,o),
(238,463,o),
(329,463,cs),
(405,463,o),
(441,404,o),
(422,309,cs),
(362,0,l)
);
},
{
closed = 1;
nodes = (
(89,0,l),
(225,700,l),
(170,700,l),
(34,0,l)
);
}
);
width = 543;
}
);
metricLeft = m;
metricRight = m;
unicode = 104;
},
{
glyphname = hbar;
kernLeft = l;
kernRight = m;
layers = (
{
layerId = m01;
shapes = (
{
closed = 1;
nodes = (
(345,573,l),
(345,627,l),
(-15,627,l),
(-15,573,l)
);
},
{
pos = (5,0);
ref = h;
}
);
width = 553;
},
{
layerId = m005;
shapes = (
{
closed = 1;
nodes = (
(358,568,l),
(358,630,l),
(-30,630,l),
(-30,568,l)
);
},
{
ref = h;
}
);
width = 579;
},
{
layerId = m007;
shapes = (
{
closed = 1;
nodes = (
(333,583,l),
(333,617,l),
(-7,617,l),
(-7,583,l)
);
},
{
pos = (3,0);
ref = h;
}
);
width = 546;
},
{
layerId = m004;
shapes = (
{
closed = 1;
nodes = (
(408,573,l),
(419,627,l),
(59,627,l),
(48,573,l)
);
},
{
pos = (5,0);
ref = h;
}
);
width = 553;
},
{
layerId = m008;
shapes = (
{
closed = 1;
nodes = (
(420,568,l),
(432,630,l),
(44,630,l),
(32,568,l)
);
},
{
ref = h;
}
);
width = 579;
},
{
layerId = m006;
shapes = (
{
closed = 1;
nodes = (
(398,583,l),
(405,617,l),
(65,617,l),
(58,583,l)
);
},
{
pos = (3,0);
ref = h;
}
);
width = 546;
}
);
metricLeft = "=h-90";
metricRight = h;
unicode = 295;
},
{
glyphname = idotless;
kernLeft = i;
kernRight = i;
layers = (
{
layerId = m01;
shapes = (
{
closed = 1;
nodes = (
(145,0,l),
(145,500,l),
(70,500,l),
(70,0,l)
);
}
);
width = 215;
},
{
layerId = m005;
shapes = (
{
closed = 1;
nodes = (
(191,0,l),
(191,500,l),
(56,500,l),
(56,0,l)
);
}
);
width = 247;
},
{
layerId = m007;
shapes = (
{
closed = 1;
nodes = (
(132,0,l),
(132,500,l),
(77,500,l),
(77,0,l)
);
}
);
width = 209;
},
{
layerId = m004;
shapes = (
{
closed = 1;
nodes = (
(97,0,l),
(194,500,l),
(119,500,l),
(22,0,l)
);
}
);
width = 216;
},
{
layerId = m008;
shapes = (
{
closed = 1;
nodes = (
(143,0,l),
(240,500,l),
(105,500,l),
(8,0,l)
);
}
);
width = 248;
},
{
layerId = m006;
shapes = (
{
closed = 1;
nodes = (
(84,0,l),
(181,500,l),
(126,500,l),
(29,0,l)
);
}
);
width = 210;
}
);
metricLeft = l;
metricRight = l;
unicode = 305;
},
{
glyphname = ibreve;
kernLeft = i;
kernRight = i;
layers = (
{
layerId = m01;
shapes = (
{
closed = 1;
nodes = (
(156,580,o),
(200,636,o),
(200,730,c),
(136,730,l),
(135,672,o),
(117,644,o),
(80,644,cs),
(43,644,o),
(25,672,o),
(24,730,c),
(-40,730,l),
(-40,636,o),
(5,580,o),
(80,580,cs)
);
},
{
pos = (-27,0);
ref = idotless;
}
);
width = 160;
},
{
layerId = m005;
shapes = (
{
closed = 1;
nodes = (
(182,580,o),
(234,641,o),
(234,750,c),
(121,750,l),
(121,702,o),
(113,684,o),
(90,684,cs),
(67,684,o),
(59,702,o),
(59,750,c),
(-54,750,l),
(-54,641,o),
(-2,580,o),
(90,580,cs)
);
},
{
pos = (-33,0);
ref = idotless;
}
);
width = 180;
},
{
layerId = m007;
shapes = (
{
closed = 1;
nodes = (
(145,590,o),
(184,636,o),
(187,720,c),
(143,720,l),
(140,664,o),
(117,634,o),
(77,634,cs),
(37,634,o),
(14,664,o),
(11,720,c),
(-33,720,l),
(-30,636,o),
(9,590,o),
(77,590,cs)
);
},
{
pos = (-27,0);
ref = idotless;
}
);
width = 154;
},
{
layerId = m004;
shapes = (
{
closed = 1;
nodes = (
(219,580,o),
(276,640,o),
(293,730,c),
(229,730,l),
(217,676,o),
(190,644,o),
(156,644,cs),
(122,644,o),
(108,676,o),
(117,730,c),
(53,730,l),
(36,645,o),
(78,580,o),
(150,580,cs)
);
},
{
pos = (-24,0);
ref = idotless;
}
);
width = 160;
},
{
layerId = m008;
shapes = (
{
closed = 1;
nodes = (
(245,580,o),
(312,648,o),
(331,750,c),
(218,750,l),
(208,703,o),
(195,684,o),
(174,684,cs),
(152,684,o),
(147,705,o),
(156,750,c),
(43,750,l),
(25,654,o),
(77,580,o),
(163,580,cs)
);
},
{
pos = (-33,0);
ref = idotless;
}
);
width = 180;
},
{
layerId = m006;
shapes = (
{
closed = 1;
nodes = (
(224,590,o),
(264,651,o),
(278,720,c),
(234,720,l),
(223,676,o),
(199,634,o),
(153,634,cs),
(110,634,o),
(96,677,o),
(102,720,c),
(58,720,l),
(48,651,o),
(84,590,o),
(154,590,cs)
);
},
{
pos = (-21,0);
ref = idotless;
}
);
width = 154;
}
);
metricLeft = "=idotless-110";
metricRight = "=idotless-110";
unicode = 301;
},
{
glyphname = jdotless;
kernLeft = j;
kernRight = g;
layers = (
{
layerId = m01;
shapes = (
{
closed = 1;
nodes = (
(25,-200,ls),
(119,-200,o),
(165,-154,o),
(165,-60,cs),
(165,500,l),
(90,500,l),
(90,-67,ls),
(90,-107,o),
(70,-127,o),
(30,-127,cs),
(-60,-127,l),
(-60,-200,l)
);
}
);
width = 245;
},
{
layerId = m005;
shapes = (
{
closed = 1;
nodes = (
(67,-200,ls),
(181,-200,o),
(237,-147,o),
(237,-40,cs),
(237,500,l),
(102,500,l),
(102,-27,ls),
(102,-67,o),
(82,-87,o),
(42,-87,cs),
(-48,-87,l),
(-48,-200,l)
);
}
);
width = 301;
},
{
layerId = m007;
shapes = (
{
closed = 1;
nodes = (
(9,-200,ls),
(96,-200,o),
(139,-157,o),
(139,-70,cs),
(139,500,l),
(84,500,l),
(84,-77,ls),
(84,-124,o),
(61,-147,o),
(14,-147,cs),
(-66,-147,l),
(-66,-200,l)
);
}
);
width = 227;
},
{
layerId = m004;
shapes = (
{
closed = 1;
nodes = (
(-43,-200,ls),
(31,-200,o),
(90,-145,o),
(105,-60,cs),
(214,500,l),
(139,500,l),
(29,-67,ls),
(22,-103,o),
(-6,-127,o),
(-43,-127,cs),
(-133,-127,l),
(-147,-200,l)
);
}
);
width = 245;
},
{
layerId = m008;
shapes = (
{
closed = 1;
nodes = (
(-13,-200,ls),
(88,-200,o),
(161,-149,o),
(176,-67,cs),
(286,500,l),
(151,500,l),
(49,-27,ls),
(41,-64,o),
(18,-87,o),
(-13,-87,cs),
(-113,-87,l),
(-135,-200,l)
);
}
);
width = 302;
},
{
layerId = m006;
shapes = (
{
closed = 1;
nodes = (
(-63,-200,ls),
(7,-200,o),
(62,-149,o),
(77,-70,cs),
(188,500,l),
(133,500,l),
(21,-77,ls),
(13,-119,o),
(-20,-147,o),
(-63,-147,cs),
(-143,-147,l),
(-153,-200,l)
);
}
);
width = 227;
}
);
unicode = 567;
},
{
glyphname = k;
kernLeft = l;
kernRight = k;
layers = (
{
layerId = m01;
shapes = (
{
closed = 1;
nodes = (
(479,500,l),
(384,500,l),
(93,201,l),
(145,154,l)
);
},
{
closed = 1;
nodes = (
(150,0,l),
(150,700,l),
(75,700,l),
(75,0,l)
);
},
{
closed = 1;
nodes = (
(491,0,l),
(273,363,l),
(233,290,l),
(403,0,l)
);
}
);
width = 516;
},
{
layerId = m005;
shapes = (
{
closed = 1;
nodes = (
(561,500,l),
(383,500,l),
(97,240,l),
(183,146,l)
);
},
{
closed = 1;
nodes = (
(195,0,l),
(195,700,l),
(60,700,l),
(60,0,l)
);
},
{
closed = 1;
nodes = (
(559,0,l),
(331,362,l),
(222,290,l),
(399,0,l)
);
}
);
width = 581;
},
{
layerId = m007;
shapes = (
{
closed = 1;
nodes = (
(453,500,l),
(386,500,l),
(105,201,l),
(105,127,l)
);
},
{
closed = 1;
nodes = (
(138,0,l),
(138,700,l),
(83,700,l),
(83,0,l)
);
},
{
closed = 1;
nodes = (
(471,0,l),
(271,343,l),
(242,290,l),
(407,0,l)
);
}
);
width = 499;
},
{
layerId = m004;
shapes = (
{
closed = 1;
nodes = (
(527,500,l),
(427,500,l),
(78,201,l),
(126,154,l)
);
},
{
closed = 1;
nodes = (
(101,0,l),
(237,700,l),
(162,700,l),
(26,0,l)
);
},
{
closed = 1;
nodes = (
(442,0,l),
(295,363,l),
(250,290,l),
(364,0,l)
);
}
);
width = 516;
},
{
layerId = m008;
shapes = (
{
closed = 1;
nodes = (
(609,500,l),
(426,500,l),
(90,240,l),
(162,146,l)
);
},
{
closed = 1;
nodes = (
(146,0,l),
(282,700,l),
(147,700,l),
(11,0,l)
);
},
{
closed = 1;
nodes = (
(510,0,l),
(352,362,l),
(234,290,l),
(355,0,l)
);
}
);
width = 580;
},
{
layerId = m006;
shapes = (
{
closed = 1;
nodes = (
(501,500,l),
(428,500,l),
(89,201,l),
(81,127,l)
);
},
{
closed = 1;
nodes = (
(89,0,l),
(225,700,l),
(170,700,l),
(34,0,l)
);
},
{
closed = 1;
nodes = (
(422,0,l),
(289,343,l),
(254,290,l),
(363,0,l)
);
}
);
width = 499;
}
);
metricLeft = h;
unicode = 107;
},
{
glyphname = l;
kernLeft = l;
kernRight = l;
layers = (
{
layerId = m01;
shapes = (
{
closed = 1;
nodes = (
(145,0,l),
(145,710,l),
(70,710,l),
(70,0,l)
);
}
);
width = 215;
},
{
layerId = m005;
shapes = (
{
closed = 1;
nodes = (
(191,0,l),
(191,710,l),
(56,710,l),
(56,0,l)
);
}
);
width = 247;
},
{
layerId = m007;
shapes = (
{
closed = 1;
nodes = (
(132,0,l),
(132,710,l),
(77,710,l),
(77,0,l)
);
}
);
width = 209;
},
{
layerId = m004;
shapes = (
{
closed = 1;
nodes = (
(96,0,l),
(234,710,l),
(159,710,l),
(21,0,l)
);
}
);
width = 215;
},
{
layerId = m008;
shapes = (
{
closed = 1;
nodes = (
(142,0,l),
(280,710,l),
(145,710,l),
(7,0,l)
);
}
);
width = 247;
},
{
layerId = m006;
shapes = (
{
closed = 1;
nodes = (
(83,0,l),
(221,710,l),
(166,710,l),
(28,0,l)
);
}
);
width = 209;
}
);
unicode = 108;
},
{
glyphname = lslash;
kernLeft = lslash;
kernRight = lslash;
layers = (
{
layerId = m01;
shapes = (
{
closed = 1;
nodes = (
(240,385,l),
(240,445,l),
(40,325,l),
(40,265,l)
);
},
{
pos = (33,0);
ref = l;
}
);
width = 280;
},
{
layerId = m005;
shapes = (
{
closed = 1;
nodes = (
(306,369,l),
(306,473,l),
(26,341,l),
(26,237,l)
);
},
{
pos = (43,0);
ref = l;
}
);
width = 332;
},
{
layerId = m007;
shapes = (
{
closed = 1;
nodes = (
(227,386,l),
(227,427,l),
(47,319,l),
(47,278,l)
);
},
{
pos = (33,0);
ref = l;
}
);
width = 274;
},
{
layerId = m004;
shapes = (
{
closed = 1;
nodes = (
(267,385,l),
(278,445,l),
(55,325,l),
(43,265,l)
);
},
{
pos = (28,0);
ref = l;
}
);
width = 281;
},
{
layerId = m008;
shapes = (
{
closed = 1;
nodes = (
(330,369,l),
(350,473,l),
(44,341,l),
(24,237,l)
);
},
{
pos = (35,0);
ref = l;
}
);
width = 333;
},
{
layerId = m006;
shapes = (
{
closed = 1;
nodes = (
(254,386,l),
(261,427,l),
(60,319,l),
(53,278,l)
);
},
{
pos = (30,0);
ref = l;
}
);
width = 275;
}
);
metricLeft = "=l-30";
metricRight = "=l-30";
unicode = 322;
},
{
glyphname = m;
kernLeft = m;
kernRight = m;
layers = (
{
layerId = m01;
shapes = (
{
closed = 1;
nodes = (
(786,0,l),
(786,329,ls),
(786,443,o),
(723,516,o),
(625,516,cs),
(523,516,o),
(443,438,o),
(443,339,c),
(468,243,l),
(468,367,o),
(521,443,o),
(608,443,cs),
(673,443,o),
(711,400,o),
(711,329,cs),
(711,0,l)
);
},
{
closed = 1;
nodes = (
(150,0,l),
(150,500,l),
(75,500,l),
(75,0,l)
);
},
{
closed = 1;
nodes = (
(468,0,l),
(468,329,ls),
(468,442,o),
(404,516,o),
(307,516,cs),
(208,516,o),
(135,440,o),
(135,339,c),
(150,243,l),
(150,367,o),
(203,443,o),
(290,443,cs),
(355,443,o),
(393,400,o),
(393,329,cs),
(393,0,l)
);
}
);
width = 856;
},
{
layerId = m005;
shapes = (
{
closed = 1;
nodes = (
(831,0,l),
(831,299,ls),
(831,438,o),
(773,516,o),
(670,516,cs),
(558,516,o),
(477,423,o),
(477,293,c),
(513,243,l),
(513,340,o),
(555,403,o),
(619,403,cs),
(669,403,o),
(696,365,o),
(696,293,cs),
(696,0,l)
);
},
{
closed = 1;
nodes = (
(195,0,l),
(195,500,l),
(60,500,l),
(60,0,l)
);
},
{
closed = 1;
nodes = (
(513,0,l),
(513,299,ls),
(513,438,o),
(455,516,o),
(352,516,cs),
(242,516,o),
(169,427,o),
(169,293,c),
(195,243,l),
(195,340,o),
(237,403,o),
(301,403,cs),
(351,403,o),
(378,365,o),
(378,293,cs),
(378,0,l)
);
}
);
width = 887;
},
{
layerId = m007;
shapes = (
{
closed = 1;
nodes = (
(774,0,l),
(774,319,ls),
(774,436,o),
(708,516,o),
(611,516,cs),
(510,516,o),
(431,429,o),
(431,319,c),
(456,243,l),
(456,378,o),
(514,463,o),
(606,463,cs),
(678,463,o),
(719,411,o),
(719,319,cs),
(719,0,l)
);
},
{
closed = 1;
nodes = (
(138,0,l),
(138,500,l),
(83,500,l),
(83,0,l)
);
},
{
closed = 1;
nodes = (
(456,0,l),
(456,319,ls),
(456,436,o),
(390,516,o),
(294,516,cs),
(194,516,o),
(118,430,o),
(118,319,c),
(138,243,l),
(138,378,o),
(196,463,o),
(288,463,cs),
(360,463,o),
(401,411,o),
(401,319,cs),
(401,0,l)
);
}
);
width = 851;
},
{
layerId = m004;
shapes = (
{
closed = 1;
nodes = (
(738,0,l),
(796,300,ls),
(821,428,o),
(763,516,o),
(655,516,cs),
(555,516,o),
(474,442,o),
(463,339,c),
(467,243,l),
(489,363,o),
(560,443,o),
(643,443,cs),
(710,443,o),
(739,391,o),
(721,300,cs),
(663,0,l)
);
},
{
closed = 1;
nodes = (
(102,0,l),
(199,500,l),
(124,500,l),
(27,0,l)
);
},
{
closed = 1;
nodes = (
(420,0,l),
(478,300,ls),
(503,427,o),
(446,516,o),
(341,516,cs),
(245,516,o),
(169,443,o),
(155,339,c),
(149,243,l),
(171,363,o),
(242,443,o),
(325,443,cs),
(392,443,o),
(421,391,o),
(403,300,cs),
(345,0,l)
);
}
);
width = 857;
},
{
layerId = m008;
shapes = (
{
closed = 1;
nodes = (
(783,0,l),
(845,319,ls),
(868,434,o),
(809,516,o),
(704,516,cs),
(594,516,o),
(503,427,o),
(476,293,c),
(512,243,l),
(534,349,o),
(576,403,o),
(637,403,cs),
(690,403,o),
(719,362,o),
(707,303,cs),
(648,0,l)
);
},
{
closed = 1;
nodes = (
(147,0,l),
(244,500,l),
(109,500,l),
(12,0,l)
);
},
{
closed = 1;
nodes = (
(465,0,l),
(527,319,ls),
(549,434,o),
(492,516,o),
(390,516,cs),
(286,516,o),
(204,430,o),
(178,293,c),
(194,243,l),
(216,349,o),
(258,403,o),
(319,403,cs),
(372,403,o),
(401,362,o),
(389,303,cs),
(330,0,l)
);
}
);
width = 888;
},
{
layerId = m006;
shapes = (
{
closed = 1;
nodes = (
(726,0,l),
(786,309,ls),
(809,429,o),
(750,516,o),
(645,516,cs),
(544,516,o),
(459,437,o),
(435,319,c),
(455,243,l),
(481,379,o),
(551,463,o),
(640,463,cs),
(715,463,o),
(750,404,o),
(731,309,cs),
(671,0,l)
);
},
{
closed = 1;
nodes = (
(90,0,l),
(187,500,l),
(132,500,l),
(35,0,l)
);
},
{
closed = 1;
nodes = (
(408,0,l),
(468,309,ls),
(491,430,o),
(433,516,o),
(330,516,cs),
(233,516,o),
(156,440,o),
(132,319,c),
(137,243,l),
(163,379,o),
(233,463,o),
(322,463,cs),
(397,463,o),
(432,404,o),
(413,309,cs),
(353,0,l)
);
}
);
width = 852;
}
);
unicode = 109;
},
{
glyphname = n;
kernLeft = m;
kernRight = m;
layers = (
{
layerId = m01;
shapes = (
{
closed = 1;
nodes = (
(478,0,l),
(478,329,ls),
(478,444,o),
(415,516,o),
(316,516,cs),
(214,516,o),
(135,439,o),
(135,339,c),
(150,243,l),
(150,364,o),
(210,443,o),
(300,443,cs),
(365,443,o),
(403,401,o),
(403,329,cs),
(403,0,l)
);
},
{
closed = 1;
nodes = (
(150,0,l),
(150,500,l),
(75,500,l),
(75,0,l)
);
}
);
width = 548;
},
{
layerId = m005;
shapes = (
{
closed = 1;
nodes = (
(523,0,l),
(523,299,ls),
(523,437,o),
(463,516,o),
(357,516,cs),
(244,516,o),
(169,427,o),
(169,293,c),
(195,243,l),
(195,339,o),
(239,403,o),
(306,403,cs),
(358,403,o),
(388,363,o),
(388,293,cs),
(388,0,l)
);
},
{
closed = 1;
nodes = (
(195,0,l),
(195,500,l),
(60,500,l),
(60,0,l)
);
}
);
width = 579;
},
{
layerId = m007;
shapes = (
{
closed = 1;
nodes = (
(466,0,l),
(466,319,ls),
(466,439,o),
(402,516,o),
(304,516,cs),
(200,516,o),
(118,430,o),
(118,319,c),
(138,243,l),
(138,376,o),
(201,463,o),
(298,463,cs),
(371,463,o),
(411,413,o),
(411,319,cs),
(411,0,l)
);
},
{
closed = 1;
nodes = (
(138,0,l),
(138,500,l),
(83,500,l),
(83,0,l)
);
}
);
width = 543;
},
{
layerId = m004;
shapes = (
{
closed = 1;
nodes = (
(430,0,l),
(488,300,ls),
(512,428,o),
(454,516,o),
(345,516,cs),
(247,516,o),
(169,444,o),
(155,339,c),
(149,243,l),
(171,364,o),
(241,443,o),
(326,443,cs),
(397,443,o),
(430,388,o),
(413,300,cs),
(355,0,l)
);
},
{
closed = 1;
nodes = (
(102,0,l),
(199,500,l),
(124,500,l),
(27,0,l)
);
}
);
width = 549;
},
{
layerId = m008;
shapes = (
{
closed = 1;
nodes = (
(475,0,l),
(537,319,ls),
(559,432,o),
(498,516,o),
(392,516,cs),
(286,516,o),
(204,431,o),
(178,293,c),
(194,243,l),
(213,343,o),
(263,403,o),
(328,403,cs),
(382,403,o),
(411,362,o),
(399,303,cs),
(340,0,l)
);
},
{
closed = 1;
nodes = (
(147,0,l),
(244,500,l),
(109,500,l),
(12,0,l)
);
}
);
width = 580;
},
{
layerId = m006;
shapes = (
{
closed = 1;
nodes = (
(418,0,l),
(478,309,ls),
(501,430,o),
(442,516,o),
(337,516,cs),
(236,516,o),
(154,437,o),
(132,319,c),
(137,243,l),
(165,378,o),
(239,463,o),
(330,463,cs),
(406,463,o),
(442,404,o),
(423,309,cs),
(363,0,l)
);
},
{
closed = 1;
nodes = (
(90,0,l),
(187,500,l),
(132,500,l),
(35,0,l)
);
}
);
width = 544;
}
);
metricLeft = m;
metricRight = m;
unicode = 110;
},
{
glyphname = eng;
kernLeft = m;
kernRight = m;
layers = (
{
layerId = m01;
shapes = (
{
closed = 1;
nodes = (
(338,-200,ls),
(432,-200,o),
(478,-154,o),
(478,-60,cs),
(478,0,l),
(403,0,l),
(403,-67,ls),
(403,-107,o),
(383,-127,o),
(343,-127,cs),
(253,-127,l),
(253,-200,l)
);
},
{
ref = n;
}
);
width = 558;
},
{
layerId = m005;
shapes = (
{
closed = 1;
nodes = (
(353,-200,ls),
(467,-200,o),
(523,-147,o),
(523,-40,cs),
(523,0,l),
(388,0,l),
(388,-27,ls),
(388,-67,o),
(368,-87,o),
(328,-87,cs),
(238,-87,l),
(238,-200,l)
);
},
{
ref = n;
}
);
width = 587;
},
{
layerId = m007;
shapes = (
{
closed = 1;
nodes = (
(336,-200,ls),
(423,-200,o),
(466,-157,o),
(466,-70,cs),
(466,0,l),
(411,0,l),
(411,-77,ls),
(411,-124,o),
(388,-147,o),
(341,-147,cs),
(261,-147,l),
(261,-200,l)
);
},
{
ref = n;
}
);
width = 554;
},
{
layerId = m004;
shapes = (
{
closed = 1;
nodes = (
(270,-200,ls),
(339,-200,o),
(401,-141,o),
(418,-60,cs),
(430,0,l),
(355,0,l),
(342,-67,ls),
(334,-105,o),
(308,-127,o),
(270,-127,cs),
(180,-127,l),
(166,-200,l)
);
},
{
ref = n;
}
);
width = 559;
},
{
layerId = m008;
shapes = (
{
closed = 1;
nodes = (
(273,-200,ls),
(374,-200,o),
(447,-149,o),
(462,-67,cs),
(475,0,l),
(340,0,l),
(335,-27,ls),
(327,-64,o),
(304,-87,o),
(273,-87,cs),
(173,-87,l),
(151,-200,l)
);
},
{
ref = n;
}
);
width = 588;
},
{
layerId = m006;
shapes = (
{
closed = 1;
nodes = (
(264,-200,ls),
(334,-200,o),
(388,-150,o),
(404,-70,cs),
(418,0,l),
(363,0,l),
(348,-77,ls),
(340,-120,o),
(307,-147,o),
(264,-147,cs),
(184,-147,l),
(174,-200,l)
);
},
{
ref = n;
}
);
width = 555;
}
);
metricLeft = m;
metricRight = j;
unicode = 331;
},
{
glyphname = o;
kernLeft = o;
kernRight = o;
layers = (
{
layerId = m01;
shapes = (
{
closed = 1;
nodes = (
(420,-16,o),
(516,91,o),
(516,248,cs),
(516,406,o),
(419,516,o),
(281,516,cs),
(142,516,o),
(45,405,o),
(45,248,cs),
(45,92,o),
(141,-16,o),
(281,-16,cs)
);
},
{
closed = 1;
nodes = (
(186,57,o),
(123,133,o),
(123,248,cs),
(123,365,o),
(187,443,o),
(281,443,cs),
(375,443,o),
(439,365,o),
(439,248,cs),
(439,133,o),
(376,57,o),
(281,57,cs)
);
}
);
width = 561;
},
{
layerId = m005;
shapes = (
{
closed = 1;
nodes = (
(449,-16,o),
(557,95,o),
(557,250,cs),
(557,405,o),
(449,516,o),
(297,516,cs),
(145,516,o),
(36,405,o),
(36,250,cs),
(36,95,o),
(145,-16,o),
(297,-16,cs)
);
},
{
closed = 1;
nodes = (
(222,97,o),
(174,157,o),
(174,250,cs),
(174,343,o),
(222,403,o),
(297,403,cs),
(372,403,o),
(420,343,o),
(420,250,cs),
(420,157,o),
(372,97,o),
(297,97,cs)
);
}
);
width = 593;
},
{
layerId = m007;
shapes = (
{
closed = 1;
nodes = (
(410,-16,o),
(502,92,o),
(502,250,cs),
(502,408,o),
(410,516,o),
(276,516,cs),
(142,516,o),
(50,408,o),
(50,250,cs),
(50,92,o),
(142,-16,o),
(276,-16,cs)
);
},
{
closed = 1;
nodes = (
(175,37,o),
(108,122,o),
(108,250,cs),
(108,378,o),
(175,463,o),
(276,463,cs),
(377,463,o),
(444,378,o),
(444,250,cs),
(444,122,o),
(377,37,o),
(276,37,cs)
);
}
);
width = 552;
},
{
layerId = m004;
shapes = (
{
closed = 1;
nodes = (
(399,-16,o),
(507,122,o),
(507,315,cs),
(507,428,o),
(416,516,o),
(301,516,cs),
(150,516,o),
(41,377,o),
(41,183,cs),
(41,71,o),
(132,-16,o),
(249,-16,cs)
);
},
{
closed = 1;
nodes = (
(178,57,o),
(118,115,o),
(118,193,cs),
(118,333,o),
(194,443,o),
(291,443,cs),
(370,443,o),
(430,384,o),
(430,305,cs),
(430,166,o),
(355,57,o),
(259,57,cs)
);
}
);
width = 548;
},
{
layerId = m008;
shapes = (
{
closed = 1;
nodes = (
(423,-16,o),
(548,124,o),
(548,312,cs),
(548,426,o),
(450,516,o),
(326,516,cs),
(157,516,o),
(31,375,o),
(31,186,cs),
(31,73,o),
(129,-16,o),
(255,-16,cs)
);
},
{
closed = 1;
nodes = (
(212,97,o),
(168,139,o),
(168,196,cs),
(168,312,o),
(230,403,o),
(308,403,cs),
(367,403,o),
(411,360,o),
(411,302,cs),
(411,187,o),
(350,97,o),
(272,97,cs)
);
}
);
width = 580;
},
{
layerId = m006;
shapes = (
{
closed = 1;
nodes = (
(390,-16,o),
(493,120,o),
(493,315,cs),
(493,428,o),
(407,516,o),
(297,516,cs),
(150,516,o),
(47,379,o),
(47,183,cs),
(47,71,o),
(133,-16,o),
(243,-16,cs)
);
},
{
closed = 1;
nodes = (
(167,37,o),
(104,103,o),
(104,193,cs),
(104,344,o),
(184,463,o),
(287,463,cs),
(372,463,o),
(436,396,o),
(436,305,cs),
(436,155,o),
(356,37,o),
(253,37,cs)
);
}
);
width = 540;
}
);
unicode = 111;
},
{
glyphname = oslash;
kernLeft = o;
kernRight = o;
layers = (
{
layerId = m01;
shapes = (
{
closed = 1;
nodes = (
(98,-66,l),
(571,566,l),
(493,566,l),
(20,-66,l)
);
},
{
pos = (15,0);
ref = o;
}
);
width = 591;
},
{
layerId = m005;
shapes = (
{
closed = 1;
nodes = (
(110,-66,l),
(574,566,l),
(475,566,l),
(11,-66,l)
);
},
{
pos = (-4,0);
ref = o;
}
);
width = 585;
},
{
layerId = m007;
shapes = (
{
closed = 1;
nodes = (
(77,-56,l),
(534,556,l),
(482,556,l),
(25,-56,l)
);
},
{
pos = (4,0);
ref = o;
}
);
width = 559;
},
{
layerId = m004;
shapes = (
{
closed = 1;
nodes = (
(37,-66,l),
(633,566,l),
(555,566,l),
(-41,-66,l)
);
},
{
pos = (22,0);
ref = o;
}
);
width = 592;
},
{
layerId = m008;
shapes = (
{
closed = 1;
nodes = (
(49,-66,l),
(636,566,l),
(537,566,l),
(-50,-66,l)
);
},
{
pos = (4,0);
ref = o;
}
);
width = 586;
},
{
layerId = m006;
shapes = (
{
closed = 1;
nodes = (
(18,-56,l),
(594,556,l),
(542,556,l),
(-34,-56,l)
);
},
{
pos = (10,0);
ref = o;
}
);
width = 560;
}
);
metricLeft = "=o-25";
metricRight = "=o-25";
unicode = 248;
},
{
glyphname = p;
kernLeft = p;
kernRight = o;
layers = (
{
layerId = m01;
shapes = (
{
closed = 1;
nodes = (
(443,-16,o),
(532,94,o),
(532,250,cs),
(532,406,o),
(443,516,o),
(315,516,cs),
(209,516,o),
(136,441,o),
(136,330,cs),
(136,170,ls),
(136,59,o),
(209,-16,o),
(315,-16,cs)
);
},
{
closed = 1;
nodes = (
(145,-200,l),
(145,500,l),
(70,500,l),
(70,-200,l)
);
},
{
closed = 1;
nodes = (
(208,57,o),
(146,135,o),
(146,250,cs),
(146,365,o),
(208,443,o),
(300,443,cs),
(392,443,o),
(454,365,o),
(454,250,cs),
(454,135,o),
(392,57,o),
(300,57,cs)
);
}
);
width = 577;
},
{
layerId = m005;
shapes = (
{
closed = 1;
nodes = (
(488,-16,o),
(578,94,o),
(578,250,cs),
(578,406,o),
(488,516,o),
(360,516,cs),
(244,516,o),
(167,426,o),
(167,290,cs),
(167,210,ls),
(167,74,o),
(244,-16,o),
(360,-16,cs)
);
},
{
closed = 1;
nodes = (
(191,-200,l),
(191,500,l),
(56,500,l),
(56,-200,l)
);
},
{
closed = 1;
nodes = (
(242,97,o),
(192,158,o),
(192,250,cs),
(192,342,o),
(242,403,o),
(316,403,cs),
(390,403,o),
(440,342,o),
(440,250,cs),
(440,158,o),
(390,97,o),
(316,97,cs)
);
}
);
width = 614;
},
{
layerId = m007;
shapes = (
{
closed = 1;
nodes = (
(434,-16,o),
(519,91,o),
(519,250,cs),
(519,409,o),
(434,516,o),
(309,516,cs),
(201,516,o),
(123,438,o),
(123,330,cs),
(123,170,ls),
(123,63,o),
(202,-16,o),
(309,-16,cs)
);
},
{
closed = 1;
nodes = (
(132,-200,l),
(132,500,l),
(77,500,l),
(77,-200,l)
);
},
{
closed = 1;
nodes = (
(199,37,o),
(133,122,o),
(133,250,cs),
(133,378,o),
(199,463,o),
(297,463,cs),
(395,463,o),
(461,378,o),
(461,250,cs),
(461,122,o),
(395,37,o),
(297,37,cs)
);
}
);
width = 569;
},
{
layerId = m004;
shapes = (
{
closed = 1;
nodes = (
(425,-16,o),
(535,114,o),
(535,282,cs),
(535,424,o),
(457,516,o),
(338,516,cs),
(237,516,o),
(172,450,o),
(148,323,cs),
(123,193,ls),
(100,71,o),
(167,-16,o),
(283,-16,cs)
);
},
{
closed = 1;
nodes = (
(58,-200,l),
(194,500,l),
(119,500,l),
(-17,-200,l)
);
},
{
closed = 1;
nodes = (
(180,57,o),
(126,148,o),
(151,275,cs),
(172,380,o),
(234,443,o),
(319,443,cs),
(404,443,o),
(457,379,o),
(457,276,cs),
(457,151,o),
(380,57,o),
(279,57,cs)
);
}
);
width = 581;
},
{
layerId = m008;
shapes = (
{
closed = 1;
nodes = (
(472,-16,o),
(575,109,o),
(575,281,cs),
(575,424,o),
(503,516,o),
(392,516,cs),
(284,516,o),
(200,428,o),
(174,290,cs),
(159,210,ls),
(134,81,o),
(208,-16,o),
(332,-16,cs)
);
},
{
closed = 1;
nodes = (
(104,-200,l),
(240,500,l),
(105,500,l),
(-31,-200,l)
);
},
{
closed = 1;
nodes = (
(216,97,o),
(175,164,o),
(194,259,cs),
(211,345,o),
(268,403,o),
(336,403,cs),
(400,403,o),
(439,353,o),
(439,271,cs),
(439,171,o),
(378,97,o),
(295,97,cs)
);
}
);
width = 613;
},
{
layerId = m006;
shapes = (
{
closed = 1;
nodes = (
(440,-16,o),
(522,133,o),
(522,295,cs),
(522,415,o),
(461,516,o),
(341,516,cs),
(219,516,o),
(158,430,o),
(135,321,cs),
(115,226,ls),
(88,99,o),
(138,-16,o),
(278,-16,cs)
);
},
{
closed = 1;
nodes = (
(45,-200,l),
(181,500,l),
(126,500,l),
(-10,-200,l)
);
},
{
closed = 1;
nodes = (
(157,37,o),
(113,150,o),
(136,264,cs),
(157,370,o),
(223,463,o),
(331,463,cs),
(422,463,o),
(465,380,o),
(465,289,cs),
(465,160,o),
(403,37,o),
(274,37,cs)
);
}
);
width = 572;
}
);
metricLeft = b;
metricRight = o;
unicode = 112;
},
{
glyphname = thorn;
kernLeft = h;
kernRight = o;
layers = (
{
layerId = m01;
shapes = (
{
closed = 1;
nodes = (
(448,-16,o),
(537,94,o),
(537,250,cs),
(537,406,o),
(448,516,o),
(320,516,cs),
(214,516,o),
(141,441,o),
(141,330,cs),
(141,170,ls),
(141,59,o),
(214,-16,o),
(320,-16,cs)
);
},
{
closed = 1;
nodes = (
(150,-200,l),
(150,700,l),
(75,700,l),
(75,-200,l)
);
},
{
closed = 1;
nodes = (
(213,57,o),
(151,135,o),
(151,250,cs),
(151,365,o),
(213,443,o),
(305,443,cs),
(397,443,o),
(459,365,o),
(459,250,cs),
(459,135,o),
(397,57,o),
(305,57,cs)
);
}
);
width = 582;
},
{
layerId = m005;
shapes = (
{
closed = 1;
nodes = (
(492,-16,o),
(582,94,o),
(582,250,cs),
(582,406,o),
(492,516,o),
(364,516,cs),
(248,516,o),
(171,426,o),
(171,290,cs),
(171,210,ls),
(171,74,o),
(248,-16,o),
(364,-16,cs)
);
},
{
closed = 1;
nodes = (
(195,-200,l),
(195,700,l),
(60,700,l),
(60,-200,l)
);
},
{
closed = 1;
nodes = (
(246,97,o),
(196,158,o),
(196,250,cs),
(196,342,o),
(246,403,o),
(320,403,cs),
(394,403,o),
(444,342,o),
(444,250,cs),
(444,158,o),
(394,97,o),
(320,97,cs)
);
}
);
width = 618;
},
{
layerId = m007;
shapes = (
{
closed = 1;
nodes = (
(440,-16,o),
(525,91,o),
(525,250,cs),
(525,409,o),
(440,516,o),
(315,516,cs),
(207,516,o),
(129,438,o),
(129,330,cs),
(129,170,ls),
(129,63,o),
(208,-16,o),
(315,-16,cs)
);
},
{
closed = 1;
nodes = (
(138,-200,l),
(138,700,l),
(83,700,l),
(83,-200,l)
);
},
{
closed = 1;
nodes = (
(205,37,o),
(139,122,o),
(139,250,cs),
(139,378,o),
(205,463,o),
(303,463,cs),
(401,463,o),
(467,378,o),
(467,250,cs),
(467,122,o),
(401,37,o),
(303,37,cs)
);
}
);
width = 575;
},
{
layerId = m004;
shapes = (
{
closed = 1;
nodes = (
(430,-16,o),
(540,114,o),
(540,282,cs),
(540,424,o),
(462,516,o),
(343,516,cs),
(242,516,o),
(177,450,o),
(153,323,cs),
(128,193,ls),
(105,71,o),
(172,-16,o),
(288,-16,cs)
);
},
{
closed = 1;
nodes = (
(63,-200,l),
(238,700,l),
(163,700,l),
(-12,-200,l)
);
},
{
closed = 1;
nodes = (
(185,57,o),
(131,148,o),
(156,275,cs),
(177,380,o),
(239,443,o),
(324,443,cs),
(409,443,o),
(462,379,o),
(462,276,cs),
(462,151,o),
(385,57,o),
(284,57,cs)
);
}
);
width = 586;
},
{
layerId = m008;
shapes = (
{
closed = 1;
nodes = (
(476,-16,o),
(579,109,o),
(579,281,cs),
(579,424,o),
(507,516,o),
(396,516,cs),
(288,516,o),
(204,428,o),
(178,290,cs),
(163,210,ls),
(138,81,o),
(212,-16,o),
(336,-16,cs)
);
},
{
closed = 1;
nodes = (
(108,-200,l),
(283,700,l),
(148,700,l),
(-27,-200,l)
);
},
{
closed = 1;
nodes = (
(220,97,o),
(179,164,o),
(198,259,cs),
(215,345,o),
(272,403,o),
(340,403,cs),
(404,403,o),
(443,353,o),
(443,271,cs),
(443,171,o),
(382,97,o),
(299,97,cs)
);
}
);
width = 617;
},
{
layerId = m006;
shapes = (
{
closed = 1;
nodes = (
(446,-16,o),
(528,133,o),
(528,295,cs),
(528,415,o),
(467,516,o),
(347,516,cs),
(225,516,o),
(164,430,o),
(141,321,cs),
(121,226,ls),
(94,99,o),
(144,-16,o),
(284,-16,cs)
);
},
{
closed = 1;
nodes = (
(51,-200,l),
(226,700,l),
(171,700,l),
(-4,-200,l)
);
},
{
closed = 1;
nodes = (
(163,37,o),
(119,150,o),
(142,264,cs),
(163,370,o),
(229,463,o),
(337,463,cs),
(428,463,o),
(471,380,o),
(471,289,cs),
(471,160,o),
(409,37,o),
(280,37,cs)
);
}
);
width = 578;
}
);
metricLeft = h;
metricRight = b;
unicode = 254;
},
{
glyphname = q;
kernLeft = o;
kernRight = g;
layers = (
{
layerId = m01;
shapes = (
{
closed = 1;
nodes = (
(367,-16,o),
(441,60,o),
(441,170,cs),
(441,330,ls),
(441,441,o),
(368,516,o),
(262,516,cs),
(134,516,o),
(45,406,o),
(45,250,cs),
(45,93,o),
(134,-16,o),
(261,-16,cs)
);
},
{
closed = 1;
nodes = (
(185,57,o),
(123,135,o),
(123,250,cs),
(123,365,o),
(185,443,o),
(277,443,cs),
(369,443,o),
(431,365,o),
(431,250,cs),
(431,135,o),
(369,57,o),
(277,57,cs)
);
},
{
closed = 1;
nodes = (
(507,-200,l),
(507,500,l),
(432,500,l),
(432,-200,l)
);
}
);
width = 577;
},
{
layerId = m005;
shapes = (
{
closed = 1;
nodes = (
(370,-16,o),
(447,74,o),
(447,210,cs),
(447,290,ls),
(447,425,o),
(368,516,o),
(252,516,cs),
(124,516,o),
(36,408,o),
(36,251,cs),
(36,94,o),
(126,-16,o),
(254,-16,cs)
);
},
{
closed = 1;
nodes = (
(224,97,o),
(174,158,o),
(174,250,cs),
(174,342,o),
(224,403,o),
(298,403,cs),
(372,403,o),
(422,342,o),
(422,250,cs),
(422,158,o),
(372,97,o),
(298,97,cs)
);
},
{
closed = 1;
nodes = (
(558,-200,l),
(558,500,l),
(423,500,l),
(423,-200,l)
);
}
);
width = 614;
},
{
layerId = m007;
shapes = (
{
closed = 1;
nodes = (
(368,-16,o),
(446,62,o),
(446,170,cs),
(446,330,ls),
(446,438,o),
(368,516,o),
(260,516,cs),
(135,516,o),
(50,409,o),
(50,250,cs),
(50,91,o),
(134,-16,o),
(260,-16,cs)
);
},
{
closed = 1;
nodes = (
(174,37,o),
(108,122,o),
(108,250,cs),
(108,378,o),
(174,463,o),
(272,463,cs),
(370,463,o),
(436,378,o),
(436,250,cs),
(436,122,o),
(370,37,o),
(272,37,cs)
);
},
{
closed = 1;
nodes = (
(492,-200,l),
(492,500,l),
(437,500,l),
(437,-200,l)
);
}
);
width = 569;
},
{
layerId = m004;
shapes = (
{
closed = 1;
nodes = (
(344,-16,o),
(410,51,o),
(434,177,cs),
(459,307,ls),
(483,430,o),
(417,516,o),
(299,516,cs),
(156,516,o),
(46,388,o),
(46,220,cs),
(46,78,o),
(125,-16,o),
(244,-16,cs)
);
},
{
closed = 1;
nodes = (
(179,57,o),
(124,123,o),
(124,225,cs),
(124,349,o),
(202,443,o),
(305,443,cs),
(405,443,o),
(457,353,o),
(431,226,cs),
(410,119,o),
(349,57,o),
(265,57,cs)
);
},
{
closed = 1;
nodes = (
(423,-200,l),
(559,500,l),
(484,500,l),
(348,-200,l)
);
}
);
width = 580;
},
{
layerId = m008;
shapes = (
{
closed = 1;
nodes = (
(322,-16,o),
(412,76,o),
(437,210,cs),
(452,290,ls),
(477,419,o),
(406,516,o),
(288,516,cs),
(149,516,o),
(36,380,o),
(36,213,cs),
(36,78,o),
(110,-16,o),
(217,-16,cs)
);
},
{
closed = 1;
nodes = (
(208,97,o),
(172,145,o),
(172,225,cs),
(172,327,o),
(234,403,o),
(318,403,cs),
(395,403,o),
(437,338,o),
(419,246,cs),
(402,159,o),
(340,97,o),
(270,97,cs)
);
},
{
closed = 1;
nodes = (
(468,-200,l),
(604,500,l),
(469,500,l),
(333,-200,l)
);
}
);
width = 611;
},
{
layerId = m006;
shapes = (
{
closed = 1;
nodes = (
(341,-16,o),
(409,49,o),
(436,179,cs),
(456,274,ls),
(486,416,o),
(421,516,o),
(298,516,cs),
(156,516,o),
(49,382,o),
(49,205,cs),
(49,65,o),
(117,-16,o),
(235,-16,cs)
);
},
{
closed = 1;
nodes = (
(157,37,o),
(106,105,o),
(106,213,cs),
(106,353,o),
(191,463,o),
(298,463,cs),
(400,463,o),
(461,362,o),
(435,235,cs),
(412,121,o),
(329,37,o),
(239,37,cs)
);
},
{
closed = 1;
nodes = (
(406,-200,l),
(542,500,l),
(487,500,l),
(351,-200,l)
);
}
);
width = 570;
}
);
metricLeft = o;
metricRight = l;
unicode = 113;
},
{
glyphname = r;
kernLeft = m;
kernRight = r;
layers = (
{
layerId = m01;
shapes = (
{
closed = 1;
nodes = (
(150,0,l),
(150,228,ls),
(150,359,o),
(191,427,o),
(271,427,cs),
(353,427,l),
(353,500,l),
(261,500,ls),
(187,500,o),
(142,415,o),
(142,275,c),
(150,335,l),
(150,500,l),
(75,500,l),
(75,0,l)
);
}
);
width = 373;
},
{
layerId = m005;
shapes = (
{
closed = 1;
nodes = (
(195,0,l),
(195,208,ls),
(195,340,o),
(227,387,o),
(316,387,cs),
(398,387,l),
(398,500,l),
(306,500,ls),
(223,500,o),
(177,409,o),
(177,245,c),
(195,314,l),
(195,500,l),
(60,500,l),
(60,0,l)
);
}
);
width = 414;
},
{
layerId = m007;
shapes = (
{
closed = 1;
nodes = (
(138,0,l),
(138,238,ls),
(138,374,o),
(184,447,o),
(269,447,cs),
(341,447,l),
(341,500,l),
(259,500,ls),
(184,500,o),
(130,410,o),
(130,285,c),
(138,346,l),
(138,500,l),
(83,500,l),
(83,0,l)
);
}
);
width = 363;
},
{
layerId = m004;
shapes = (
{
closed = 1;
nodes = (
(102,0,l),
(146,228,ls),
(171,359,o),
(226,427,o),
(306,427,cs),
(388,427,l),
(402,500,l),
(306,500,ls),
(227,500,o),
(179,432,o),
(147,275,c),
(167,335,l),
(199,500,l),
(124,500,l),
(27,0,l)
);
}
);
width = 374;
},
{
layerId = m008;
shapes = (
{
closed = 1;
nodes = (
(147,0,l),
(187,208,ls),
(213,340,o),
(254,387,o),
(343,387,cs),
(425,387,l),
(447,500,l),
(343,500,ls),
(270,500,o),
(208,405,o),
(177,245,c),
(208,314,l),
(244,500,l),
(109,500,l),
(12,0,l)
);
}
);
width = 414;
},
{
layerId = m006;
shapes = (
{
closed = 1;
nodes = (
(90,0,l),
(136,238,ls),
(162,374,o),
(222,447,o),
(308,447,cs),
(380,447,l),
(390,500,l),
(308,500,ls),
(224,500,o),
(164,425,o),
(137,285,c),
(157,346,l),
(187,500,l),
(132,500,l),
(35,0,l)
);
}
);
width = 364;
}
);
metricLeft = m;
unicode = 114;
},
{
glyphname = s;
kernLeft = s;
kernRight = s;
layers = (
{
layerId = m01;
shapes = (
{
closed = 1;
nodes = (
(380,-16,o),
(463,50,o),
(463,147,cs),
(463,352,o),
(144,251,o),
(144,368,cs),
(144,412,o),
(188,443,o),
(253,443,cs),
(321,443,o),
(369,410,o),
(369,362,c),
(442,372,l),
(442,454,o),
(365,516,o),
(256,516,cs),
(153,516,o),
(66,471,o),
(66,368,cs),
(66,172,o),
(385,278,o),
(385,147,cs),
(385,94,o),
(334,57,o),
(261,57,cs),
(175,57,o),
(113,108,o),
(113,180,c),
(40,170,l),
(40,64,o),
(123,-16,o),
(257,-16,cs)
);
}
);
width = 508;
},
{
layerId = m005;
shapes = (
{
closed = 1;
nodes = (
(427,-16,o),
(514,48,o),
(514,153,cs),
(514,354,o),
(195,278,o),
(195,362,cs),
(195,386,o),
(221,403,o),
(271,403,cs),
(326,403,o),
(355,383,o),
(359,347,c),
(493,357,l),
(489,452,o),
(405,516,o),
(269,516,cs),
(142,516,o),
(57,461,o),
(57,357,cs),
(57,156,o),
(376,241,o),
(376,148,cs),
(376,117,o),
(342,97,o),
(284,97,cs),
(211,97,o),
(169,128,o),
(165,176,c),
(32,166,l),
(36,58,o),
(133,-16,o),
(285,-16,cs)
);
}
);
width = 550;
},
{
layerId = m007;
shapes = (
{
closed = 1;
nodes = (
(374,-16,o),
(447,45,o),
(447,140,cs),
(447,335,o),
(128,259,o),
(128,374,cs),
(128,431,o),
(171,463,o),
(247,463,cs),
(314,463,o),
(365,430,o),
(372,383,c),
(426,391,l),
(415,468,o),
(348,516,o),
(250,516,cs),
(144,516,o),
(70,462,o),
(70,385,cs),
(70,187,o),
(389,287,o),
(389,142,cs),
(389,80,o),
(338,37,o),
(265,37,cs),
(179,37,o),
(105,91,o),
(97,159,c),
(44,151,l),
(61,48,o),
(144,-16,o),
(261,-16,cs)
);
}
);
width = 497;
},
{
layerId = m004;
shapes = (
{
closed = 1;
nodes = (
(361,-16,o),
(443,52,o),
(443,151,cs),
(443,330,o),
(176,268,o),
(176,378,cs),
(176,425,o),
(226,443,o),
(277,443,cs),
(334,443,o),
(390,420,o),
(396,362,c),
(471,372,l),
(464,469,o),
(374,516,o),
(280,516,cs),
(181,516,o),
(98,464,o),
(98,371,cs),
(98,205,o),
(365,262,o),
(365,143,cs),
(365,87,o),
(307,57,o),
(244,57,cs),
(167,57,o),
(105,103,o),
(99,180,c),
(24,170,l),
(30,53,o),
(125,-16,o),
(243,-16,cs)
);
}
);
width = 510;
},
{
layerId = m008;
shapes = (
{
closed = 1;
nodes = (
(386,-16,o),
(495,36,o),
(495,155,cs),
(495,348,o),
(222,287,o),
(222,364,cs),
(222,389,o),
(249,403,o),
(296,403,cs),
(353,403,o),
(383,384,o),
(388,347,c),
(524,357,l),
(513,471,o),
(407,516,o),
(293,516,cs),
(183,516,o),
(84,468,o),
(84,358,cs),
(84,168,o),
(357,235,o),
(357,145,cs),
(357,105,o),
(311,97,o),
(271,97,cs),
(213,97,o),
(157,118,o),
(151,176,c),
(16,166,l),
(27,41,o),
(141,-16,o),
(267,-16,cs)
);
}
);
width = 553;
},
{
layerId = m006;
shapes = (
{
closed = 1;
nodes = (
(346,-16,o),
(427,50,o),
(427,144,cs),
(427,317,o),
(152,254,o),
(152,378,cs),
(152,438,o),
(215,463,o),
(277,463,cs),
(343,463,o),
(397,435,o),
(402,371,c),
(458,381,l),
(453,473,o),
(371,516,o),
(277,516,cs),
(181,516,o),
(94,471,o),
(94,376,cs),
(94,207,o),
(369,267,o),
(369,136,cs),
(369,72,o),
(304,37,o),
(234,37,cs),
(150,37,o),
(82,87,o),
(82,171,c),
(27,161,l),
(27,49,o),
(120,-16,o),
(233,-16,cs)
);
}
);
width = 501;
}
);
unicode = 115;
},
{
glyphname = germandbls;
kernLeft = l;
kernRight = B;
layers = (
{
layerId = m01;
shapes = (
{
closed = 1;
nodes = (
(145,0,l),
(145,490,ls),
(145,582,o),
(198,643,o),
(276,643,cs),
(346,643,o),
(395,596,o),
(395,527,cs),
(395,455,o),
(342,402,o),
(270,402,cs),
(235,402,l),
(235,329,l),
(285,329,ls),
(370,329,o),
(429,277,o),
(429,201,cs),
(429,125,o),
(370,73,o),
(285,73,cs),
(235,73,l),
(235,0,l),
(275,0,ls),
(412,0,o),
(507,80,o),
(507,196,cs),
(507,291,o),
(443,362,o),
(344,377,c),
(346,360,l),
(424,378,o),
(473,444,o),
(473,529,cs),
(473,637,o),
(390,716,o),
(275,716,cs),
(152,716,o),
(70,625,o),
(70,490,cs),
(70,0,l)
);
}
);
width = 562;
},
{
layerId = m005;
shapes = (
{
closed = 1;
nodes = (
(191,0,l),
(191,470,ls),
(191,550,o),
(236,603,o),
(302,603,cs),
(359,603,o),
(400,565,o),
(400,513,cs),
(400,459,o),
(355,422,o),
(290,422,cs),
(270,422,l),
(270,306,l),
(330,306,ls),
(391,306,o),
(434,266,o),
(434,211,cs),
(434,156,o),
(391,116,o),
(330,116,cs),
(270,116,l),
(270,0,l),
(320,0,ls),
(471,0,o),
(572,78,o),
(572,194,cs),
(572,292,o),
(499,364,o),
(390,375,c),
(391,363,l),
(479,376,o),
(538,445,o),
(538,533,cs),
(538,641,o),
(444,716,o),
(309,716,cs),
(157,716,o),
(56,618,o),
(56,470,cs),
(56,0,l)
);
}
);
width = 618;
},
{
layerId = m007;
shapes = (
{
closed = 1;
nodes = (
(132,0,l),
(132,500,l),
(135,598,o),
(191,663,o),
(273,663,cs),
(349,663,o),
(402,609,o),
(402,532,cs),
(402,452,o),
(345,392,o),
(267,392,cs),
(242,392,l),
(242,339,l),
(282,339,ls),
(372,339,o),
(436,280,o),
(436,196,cs),
(436,112,o),
(372,53,o),
(282,53,cs),
(242,53,l),
(242,0,l),
(272,0,ls),
(403,0,o),
(494,79,o),
(494,193,cs),
(494,298,o),
(417,372,o),
(308,371,c),
(309,366,l),
(397,365,o),
(460,434,o),
(460,532,cs),
(460,639,o),
(381,716,o),
(273,716,cs),
(158,716,o),
(80,629,o),
(79,500,cs),
(77,0,l)
);
}
);
width = 554;
},
{
layerId = m004;
shapes = (
{
closed = 1;
nodes = (
(97,0,l),
(194,500,ls),
(211,589,o),
(264,643,o),
(336,643,cs),
(402,643,o),
(448,598,o),
(448,532,cs),
(448,456,o),
(387,402,o),
(300,402,cs),
(265,402,l),
(251,329,l),
(301,329,ls),
(370,329,o),
(418,280,o),
(418,210,cs),
(418,127,o),
(352,73,o),
(251,73,cs),
(201,73,l),
(187,0,l),
(251,0,ls),
(396,0,o),
(495,86,o),
(495,210,cs),
(495,313,o),
(428,376,o),
(321,376,c),
(339,360,l),
(448,360,o),
(526,435,o),
(526,538,cs),
(526,641,o),
(447,716,o),
(339,716,cs),
(228,716,o),
(145,635,o),
(119,500,cs),
(22,0,l)
);
}
);
width = 562;
},
{
layerId = m008;
shapes = (
{
closed = 1;
nodes = (
(143,0,l),
(236,480,ls),
(250,555,o),
(299,603,o),
(361,603,cs),
(414,603,o),
(451,567,o),
(451,517,cs),
(451,459,o),
(402,422,o),
(324,422,cs),
(304,422,l),
(281,306,l),
(321,306,ls),
(384,306,o),
(426,271,o),
(426,218,cs),
(426,159,o),
(374,116,o),
(305,116,cs),
(245,116,l),
(222,0,l),
(305,0,ls),
(457,0,o),
(558,82,o),
(558,207,cs),
(558,315,o),
(483,376,o),
(351,376,c),
(373,363,l),
(502,363,o),
(590,433,o),
(590,536,cs),
(590,640,o),
(496,716,o),
(368,716,cs),
(230,716,o),
(130,628,o),
(101,480,cs),
(8,0,l)
);
}
);
width = 616;
},
{
layerId = m006;
shapes = (
{
closed = 1;
nodes = (
(84,0,l),
(183,510,ls),
(202,603,o),
(262,663,o),
(338,663,cs),
(407,663,o),
(455,613,o),
(455,539,cs),
(455,452,o),
(389,392,o),
(295,392,cs),
(270,392,l),
(260,339,l),
(290,339,ls),
(368,339,o),
(424,282,o),
(424,202,cs),
(424,112,o),
(352,53,o),
(244,53,cs),
(204,53,l),
(194,0,l),
(244,0,ls),
(383,0,o),
(481,82,o),
(481,200,cs),
(481,304,o),
(405,375,o),
(300,371,c),
(332,361,l),
(441,363,o),
(514,435,o),
(514,542,cs),
(514,645,o),
(443,716,o),
(341,716,cs),
(234,716,o),
(152,637,o),
(128,510,cs),
(29,0,l)
);
}
);
width = 555;
}
);
metricLeft = l;
metricRight = "=o+10";
unicode = 223;
},
{
glyphname = t;
kernLeft = t;
kernRight = t;
layers = (
{
layerId = m01;
shapes = (
{
closed = 1;
nodes = (
(348,0,l),
(348,73,l),
(258,73,ls),
(218,73,o),
(198,93,o),
(198,133,cs),
(198,660,l),
(123,660,l),
(123,140,ls),
(123,46,o),
(169,0,o),
(263,0,cs)
);
},
{
closed = 1;
nodes = (
(348,427,l),
(348,500,l),
(15,500,l),
(15,427,l)
);
}
);
width = 378;
},
{
layerId = m005;
shapes = (
{
closed = 1;
nodes = (
(405,0,l),
(405,113,l),
(315,113,ls),
(275,113,o),
(255,133,o),
(255,173,cs),
(255,661,l),
(120,661,l),
(120,160,ls),
(120,53,o),
(176,0,o),
(290,0,cs)
);
},
{
closed = 1;
nodes = (
(405,387,l),
(405,500,l),
(12,500,l),
(12,387,l)
);
}
);
width = 429;
},
{
layerId = m007;
shapes = (
{
closed = 1;
nodes = (
(330,0,l),
(330,53,l),
(250,53,ls),
(203,53,o),
(180,76,o),
(180,123,cs),
(180,660,l),
(125,660,l),
(125,130,ls),
(125,43,o),
(168,0,o),
(255,0,cs)
);
},
{
closed = 1;
nodes = (
(330,447,l),
(330,500,l),
(17,500,l),
(17,447,l)
);
}
);
width = 363;
},
{
layerId = m004;
shapes = (
{
closed = 1;
nodes = (
(300,0,l),
(314,73,l),
(224,73,ls),
(189,73,o),
(169,98,o),
(176,133,cs),
(278,660,l),
(203,660,l),
(102,140,ls),
(86,58,o),
(137,0,o),
(225,0,cs)
);
},
{
closed = 1;
nodes = (
(383,427,l),
(397,500,l),
(64,500,l),
(50,427,l)
);
}
);
width = 379;
},
{
layerId = m008;
shapes = (
{
closed = 1;
nodes = (
(357,0,l),
(379,113,l),
(289,113,ls),
(254,113,o),
(234,138,o),
(241,173,cs),
(335,661,l),
(200,661,l),
(103,160,ls),
(85,66,o),
(143,0,o),
(242,0,cs)
);
},
{
closed = 1;
nodes = (
(432,387,l),
(454,500,l),
(61,500,l),
(39,387,l)
);
}
);
width = 430;
},
{
layerId = m006;
shapes = (
{
closed = 1;
nodes = (
(282,0,l),
(292,53,l),
(212,53,ls),
(172,53,o),
(148,83,o),
(156,123,cs),
(260,660,l),
(205,660,l),
(102,130,ls),
(88,54,o),
(131,0,o),
(207,0,cs)
);
},
{
closed = 1;
nodes = (
(369,447,l),
(379,500,l),
(66,500,l),
(56,447,l)
);
}
);
width = 364;
}
);
unicode = 116;
},
{
glyphname = tbar;
kernLeft = t;
kernRight = t;
layers = (
{
layerId = m01;
shapes = (
{
closed = 1;
nodes = (
(348,260,l),
(348,320,l),
(15,320,l),
(15,260,l)
);
},
{
ref = t;
}
);
width = 378;
},
{
layerId = m005;
shapes = (
{
closed = 1;
nodes = (
(405,220,l),
(405,310,l),
(12,310,l),
(12,220,l)
);
},
{
ref = t;
}
);
width = 429;
},
{
layerId = m007;
shapes = (
{
closed = 1;
nodes = (
(330,270,l),
(330,310,l),
(17,310,l),
(17,270,l)
);
},
{
ref = t;
}
);
width = 363;
},
{
layerId = m004;
shapes = (
{
closed = 1;
nodes = (
(351,260,l),
(362,320,l),
(29,320,l),
(18,260,l)
);
},
{
ref = t;
}
);
width = 379;
},
{
layerId = m008;
shapes = (
{
closed = 1;
nodes = (
(400,220,l),
(417,310,l),
(24,310,l),
(7,220,l)
);
},
{
pos = (7,0);
ref = t;
}
);
width = 437;
},
{
layerId = m006;
shapes = (
{
closed = 1;
nodes = (
(337,270,l),
(345,310,l),
(32,310,l),
(24,270,l)
);
},
{
ref = t;
}
);
width = 366;
}
);
metricLeft = t;
metricRight = t;
unicode = 359;
},
{
glyphname = u;
kernLeft = u;
kernRight = u;
layers = (
{
layerId = m01;
shapes = (
{
closed = 1;
nodes = (
(329,-16,o),
(408,61,o),
(408,161,c),
(393,257,l),
(393,136,o),
(333,57,o),
(243,57,cs),
(178,57,o),
(140,99,o),
(140,171,cs),
(140,500,l),
(65,500,l),
(65,171,ls),
(65,56,o),
(128,-16,o),
(227,-16,cs)
);
},
{
closed = 1;
nodes = (
(468,0,l),
(468,500,l),
(393,500,l),
(393,0,l)
);
}
);
width = 543;
},
{
layerId = m005;
shapes = (
{
closed = 1;
nodes = (
(331,-16,o),
(406,73,o),
(406,207,c),
(380,257,l),
(380,161,o),
(336,97,o),
(269,97,cs),
(217,97,o),
(187,137,o),
(187,207,cs),
(187,500,l),
(52,500,l),
(52,201,ls),
(52,63,o),
(112,-16,o),
(218,-16,cs)
);
},
{
closed = 1;
nodes = (
(515,0,l),
(515,500,l),
(380,500,l),
(380,0,l)
);
}
);
width = 575;
},
{
layerId = m007;
shapes = (
{
closed = 1;
nodes = (
(338,-16,o),
(420,70,o),
(420,181,c),
(400,257,l),
(400,124,o),
(337,37,o),
(240,37,cs),
(167,37,o),
(127,87,o),
(127,181,cs),
(127,500,l),
(72,500,l),
(72,181,ls),
(72,61,o),
(136,-16,o),
(234,-16,cs)
);
},
{
closed = 1;
nodes = (
(455,0,l),
(455,500,l),
(400,500,l),
(400,0,l)
);
}
);
width = 538;
},
{
layerId = m004;
shapes = (
{
closed = 1;
nodes = (
(297,-16,o),
(375,56,o),
(389,161,c),
(395,257,l),
(373,136,o),
(303,57,o),
(218,57,cs),
(147,57,o),
(114,112,o),
(131,200,cs),
(189,500,l),
(114,500,l),
(56,200,ls),
(32,72,o),
(90,-16,o),
(199,-16,cs)
);
},
{
closed = 1;
nodes = (
(420,0,l),
(517,500,l),
(442,500,l),
(345,0,l)
);
}
);
width = 544;
},
{
layerId = m008;
shapes = (
{
closed = 1;
nodes = (
(290,-16,o),
(372,69,o),
(398,207,c),
(382,257,l),
(363,157,o),
(313,97,o),
(248,97,cs),
(194,97,o),
(165,138,o),
(177,197,cs),
(236,500,l),
(101,500,l),
(39,181,ls),
(17,68,o),
(78,-16,o),
(184,-16,cs)
);
},
{
closed = 1;
nodes = (
(467,0,l),
(564,500,l),
(429,500,l),
(332,0,l)
);
}
);
width = 576;
},
{
layerId = m006;
shapes = (
{
closed = 1;
nodes = (
(303,-16,o),
(385,63,o),
(407,181,c),
(402,257,l),
(374,122,o),
(300,37,o),
(209,37,cs),
(133,37,o),
(97,96,o),
(116,191,cs),
(176,500,l),
(121,500,l),
(61,191,ls),
(38,70,o),
(97,-16,o),
(202,-16,cs)
);
},
{
closed = 1;
nodes = (
(407,0,l),
(504,500,l),
(449,500,l),
(352,0,l)
);
}
);
width = 539;
}
);
unicode = 117;
},
{
glyphname = v;
kernLeft = v;
kernRight = v;
layers = (
{
layerId = m01;
shapes = (
{
closed = 1;
nodes = (
(292,0,l),
(480,500,l),
(402,500,l),
(230,43,l),
(261,43,l),
(98,500,l),
(20,500,l),
(198,0,l)
);
}
);
width = 500;
},
{
layerId = m005;
shapes = (
{
closed = 1;
nodes = (
(372,0,l),
(565,500,l),
(421,500,l),
(270,109,l),
(301,109,l),
(159,500,l),
(16,500,l),
(198,0,l)
);
}
);
width = 581;
},
{
layerId = m007;
shapes = (
{
closed = 1;
nodes = (
(268,0,l),
(454,500,l),
(397,500,l),
(218,19,l),
(249,19,l),
(79,500,l),
(22,500,l),
(198,0,l)
);
}
);
width = 476;
},
{
layerId = m004;
shapes = (
{
closed = 1;
nodes = (
(244,0,l),
(529,500,l),
(447,500,l),
(188,46,l),
(217,41,l),
(143,500,l),
(69,500,l),
(150,0,l)
);
}
);
width = 500;
},
{
layerId = m008;
shapes = (
{
closed = 1;
nodes = (
(324,0,l),
(614,500,l),
(468,500,l),
(235,98,l),
(266,93,l),
(196,500,l),
(65,500,l),
(150,0,l)
);
}
);
width = 581;
},
{
layerId = m006;
shapes = (
{
closed = 1;
nodes = (
(220,0,l),
(503,500,l),
(444,500,l),
(173,22,l),
(202,17,l),
(126,500,l),
(71,500,l),
(150,0,l)
);
}
);
width = 476;
}
);
unicode = 118;
},
{
glyphname = w;
kernLeft = w;
kernRight = w;
layers = (
{
layerId = m01;
shapes = (
{
closed = 1;
nodes = (
(255,0,l),
(401,446,l),
(373,446,l),
(518,0,l),
(616,0,l),
(738,500,l),
(660,500,l),
(548,40,l),
(573,41,l),
(423,500,l),
(350,500,l),
(200,41,l),
(225,40,l),
(113,500,l),
(35,500,l),
(157,0,l)
);
}
);
width = 773;
},
{
layerId = m005;
shapes = (
{
closed = 1;
nodes = (
(306,0,l),
(416,352,l),
(390,352,l),
(499,0,l),
(652,0,l),
(774,500,l),
(631,500,l),
(546,152,l),
(570,153,l),
(462,500,l),
(343,500,l),
(235,153,l),
(259,152,l),
(174,500,l),
(31,500,l),
(153,0,l)
);
}
);
width = 805;
},
{
layerId = m007;
shapes = (
{
closed = 1;
nodes = (
(237,0,l),
(386,446,l),
(376,446,l),
(524,0,l),
(602,0,l),
(724,500,l),
(667,500,l),
(555,41,l),
(562,40,l),
(409,500,l),
(352,500,l),
(199,40,l),
(206,41,l),
(94,500,l),
(37,500,l),
(159,0,l)
);
}
);
width = 761;
},
{
layerId = m004;
shapes = (
{
closed = 1;
nodes = (
(207,0,l),
(440,446,l),
(407,446,l),
(465,0,l),
(568,0,l),
(787,500,l),
(704,500,l),
(503,40,l),
(529,41,l),
(468,500,l),
(391,500,l),
(152,41,l),
(180,40,l),
(157,500,l),
(84,500,l),
(109,0,l)
);
}
);
width = 773;
},
{
layerId = m008;
shapes = (
{
closed = 1;
nodes = (
(253,0,l),
(431,352,l),
(405,352,l),
(446,0,l),
(604,0,l),
(823,500,l),
(685,500,l),
(533,152,l),
(547,153,l),
(506,500,l),
(386,500,l),
(211,153,l),
(225,152,l),
(207,500,l),
(80,500,l),
(105,0,l)
);
}
);
width = 805;
},
{
layerId = m006;
shapes = (
{
closed = 1;
nodes = (
(189,0,l),
(425,446,l),
(415,446,l),
(476,0,l),
(554,0,l),
(773,500,l),
(716,500,l),
(515,41,l),
(522,40,l),
(458,500,l),
(396,500,l),
(154,40,l),
(161,41,l),
(138,500,l),
(86,500,l),
(111,0,l)
);
}
);
width = 761;
}
);
metricLeft = "=v+15";
metricRight = "=v+15";
unicode = 119;
},
{
glyphname = x;
kernLeft = x;
kernRight = x;
layers = (
{
layerId = m01;
shapes = (
{
closed = 1;
nodes = (
(472,0,l),
(116,500,l),
(30,500,l),
(386,0,l)
);
},
{
closed = 1;
nodes = (
(116,0,l),
(472,500,l),
(386,500,l),
(30,0,l)
);
}
);
width = 502;
},
{
layerId = m005;
shapes = (
{
closed = 1;
nodes = (
(550,0,l),
(186,500,l),
(24,500,l),
(388,0,l)
);
},
{
closed = 1;
nodes = (
(186,0,l),
(550,500,l),
(388,500,l),
(24,0,l)
);
}
);
width = 574;
},
{
layerId = m007;
shapes = (
{
closed = 1;
nodes = (
(447,0,l),
(95,500,l),
(33,500,l),
(385,0,l)
);
},
{
closed = 1;
nodes = (
(95,0,l),
(447,500,l),
(385,500,l),
(33,0,l)
);
}
);
width = 480;
},
{
layerId = m004;
shapes = (
{
closed = 1;
nodes = (
(423,0,l),
(164,500,l),
(83,500,l),
(342,0,l)
);
},
{
closed = 1;
nodes = (
(72,0,l),
(525,500,l),
(434,500,l),
(-19,0,l)
);
}
);
width = 506;
},
{
layerId = m008;
shapes = (
{
closed = 1;
nodes = (
(501,0,l),
(234,500,l),
(82,500,l),
(349,0,l)
);
},
{
closed = 1;
nodes = (
(137,0,l),
(598,500,l),
(436,500,l),
(-25,0,l)
);
}
);
width = 574;
},
{
layerId = m006;
shapes = (
{
closed = 1;
nodes = (
(398,0,l),
(143,500,l),
(84,500,l),
(339,0,l)
);
},
{
closed = 1;
nodes = (
(49,0,l),
(498,500,l),
(433,500,l),
(-16,0,l)
);
}
);
width = 482;
}
);
unicode = 120;
},
{
glyphname = y;
kernLeft = y;
kernRight = v;
layers = (
{
layerId = m01;
shapes = (
{
closed = 1;
nodes = (
(203,-200,l),
(496,500,l),
(418,500,l),
(125,-200,l)
);
},
{
closed = 1;
nodes = (
(286,0,l),
(97,500,l),
(20,500,l),
(209,0,l)
);
}
);
width = 516;
},
{
layerId = m005;
shapes = (
{
closed = 1;
nodes = (
(272,-200,l),
(581,500,l),
(441,500,l),
(132,-200,l)
);
},
{
closed = 1;
nodes = (
(358,0,l),
(154,500,l),
(16,500,l),
(220,0,l)
);
}
);
width = 597;
},
{
layerId = m007;
shapes = (
{
closed = 1;
nodes = (
(184,-200,l),
(469,500,l),
(413,500,l),
(128,-200,l)
);
},
{
closed = 1;
nodes = (
(265,0,l),
(79,500,l),
(22,500,l),
(209,0,l)
);
}
);
width = 491;
},
{
layerId = m004;
shapes = (
{
closed = 1;
nodes = (
(116,-200,l),
(545,500,l),
(462,500,l),
(33,-200,l)
);
},
{
closed = 1;
nodes = (
(233,0,l),
(141,500,l),
(69,500,l),
(161,0,l)
);
}
);
width = 516;
},
{
layerId = m008;
shapes = (
{
closed = 1;
nodes = (
(185,-200,l),
(630,500,l),
(480,500,l),
(35,-200,l)
);
},
{
closed = 1;
nodes = (
(300,0,l),
(193,500,l),
(65,500,l),
(172,0,l)
);
}
);
width = 597;
},
{
layerId = m006;
shapes = (
{
closed = 1;
nodes = (
(102,-200,l),
(523,500,l),
(462,500,l),
(41,-200,l)
);
},
{
closed = 1;
nodes = (
(213,0,l),
(124,500,l),
(71,500,l),
(161,0,l)
);
}
);
width = 496;
}
);
metricLeft = v;
metricRight = v;
unicode = 121;
},
{
glyphname = z;
kernLeft = z;
kernRight = z;
layers = (
{
layerId = m01;
shapes = (
{
closed = 1;
nodes = (
(442,0,l),
(442,68,l),
(88,68,l),
(104,34,l),
(442,432,l),
(442,500,l),
(45,500,l),
(45,432,l),
(400,432,l),
(384,466,l),
(45,68,l),
(45,0,l)
);
}
);
width = 487;
},
{
layerId = m005;
shapes = (
{
closed = 1;
nodes = (
(473,0,l),
(473,108,l),
(155,108,l),
(169,76,l),
(473,392,l),
(473,500,l),
(36,500,l),
(36,392,l),
(355,392,l),
(341,424,l),
(36,108,l),
(36,0,l)
);
}
);
width = 509;
},
{
layerId = m007;
shapes = (
{
closed = 1;
nodes = (
(427,0,l),
(427,48,l),
(66,48,l),
(83,13,l),
(427,452,l),
(427,500,l),
(50,500,l),
(50,452,l),
(412,452,l),
(395,487,l),
(50,48,l),
(50,0,l)
);
}
);
width = 477;
},
{
layerId = m004;
shapes = (
{
closed = 1;
nodes = (
(394,0,l),
(407,68,l),
(53,68,l),
(66,37,l),
(478,432,l),
(491,500,l),
(94,500,l),
(81,432,l),
(436,432,l),
(424,463,l),
(10,68,l),
(-3,0,l)
);
}
);
width = 488;
},
{
layerId = m008;
shapes = (
{
closed = 1;
nodes = (
(425,0,l),
(446,108,l),
(128,108,l),
(139,79,l),
(501,392,l),
(522,500,l),
(85,500,l),
(64,392,l),
(383,392,l),
(372,421,l),
(9,108,l),
(-12,0,l)
);
}
);
width = 510;
},
{
layerId = m006;
shapes = (
{
closed = 1;
nodes = (
(379,0,l),
(388,48,l),
(32,48,l),
(46,16,l),
(467,452,l),
(476,500,l),
(99,500,l),
(90,452,l),
(447,452,l),
(433,484,l),
(11,48,l),
(2,0,l)
);
}
);
width = 478;
}
);
unicode = 122;
},
{
glyphname = y.ss02;
kernLeft = y;
kernRight = y;
layers = (
{
layerId = m01;
shapes = (
{
closed = 1;
nodes = (
(122,-200,ls),
(188,-200,o),
(232,-170,o),
(257,-109,cs),
(504,500,l),
(426,500,l),
(245,55,l),
(279,55,l),
(98,500,l),
(20,500,l),
(223,1,l),
(190,-80,ls),
(177,-112,o),
(154,-127,o),
(121,-127,cs),
(42,-127,l),
(42,-200,l)
);
}
);
width = 524;
},
{
layerId = m005;
shapes = (
{
closed = 1;
nodes = (
(172,-200,ls),
(251,-200,o),
(306,-164,o),
(338,-91,cs),
(595,500,l),
(446,500,l),
(285,132,l),
(320,132,l),
(165,500,l),
(16,500,l),
(228,0,l),
(213,-33,ls),
(200,-62,o),
(178,-77,o),
(146,-77,cs),
(46,-77,l),
(46,-200,l)
);
}
);
width = 611;
},
{
layerId = m007;
shapes = (
{
closed = 1;
nodes = (
(109,-200,ls),
(171,-200,o),
(213,-172,o),
(235,-115,cs),
(476,500,l),
(420,500,l),
(247,65,l),
(251,65,l),
(78,500,l),
(22,500,l),
(221,1,l),
(186,-94,ls),
(173,-130,o),
(147,-147,o),
(108,-147,cs),
(39,-147,l),
(39,-200,l)
);
}
);
width = 498;
},
{
layerId = m004;
shapes = (
{
closed = 1;
nodes = (
(43,-200,ls),
(101,-200,o),
(154,-167,o),
(188,-109,cs),
(553,500,l),
(470,500,l),
(203,55,l),
(237,55,l),
(142,500,l),
(69,500,l),
(175,1,l),
(121,-80,ls),
(99,-111,o),
(72,-127,o),
(43,-127,cs),
(-36,-127,l),
(-50,-200,l)
);
}
);
width = 524;
},
{
layerId = m008;
shapes = (
{
closed = 1;
nodes = (
(71,-200,ls),
(152,-200,o),
(223,-160,o),
(267,-91,cs),
(639,500,l),
(481,500,l),
(249,132,l),
(282,132,l),
(198,500,l),
(65,500,l),
(180,0,l),
(155,-33,ls),
(134,-61,o),
(104,-77,o),
(71,-77,cs),
(-31,-77,l),
(-55,-200,l)
);
}
);
width = 606;
},
{
layerId = m006;
shapes = (
{
closed = 1;
nodes = (
(31,-200,ls),
(84,-200,o),
(132,-170,o),
(165,-115,cs),
(525,500,l),
(469,500,l),
(212,65,l),
(216,65,l),
(127,500,l),
(71,500,l),
(173,1,l),
(120,-94,ls),
(101,-128,o),
(69,-147,o),
(31,-147,cs),
(-38,-147,l),
(-48,-200,l)
);
}
);
width = 498;
}
);
metricLeft = y;
metricRight = y;
},
{
glyphname = oslash.ss03;
kernLeft = o;
kernRight = o;
layers = (
{
layerId = m01;
shapes = (
{
closed = 1;
nodes = (
(98,0,l),
(591,500,l),
(513,500,l),
(20,0,l)
);
},
{
pos = (25,0);
ref = o;
}
);
width = 611;
},
{
layerId = m005;
shapes = (
{
closed = 1;
nodes = (
(130,0,l),
(634,500,l),
(515,500,l),
(11,0,l)
);
},
{
pos = (26,0);
ref = o;
}
);
width = 645;
},
{
layerId = m007;
shapes = (
{
closed = 1;
nodes = (
(75,0,l),
(548,500,l),
(498,500,l),
(25,0,l)
);
},
{
pos = (11,0);
ref = o;
}
);
width = 573;
},
{
layerId = m004;
shapes = (
{
closed = 1;
nodes = (
(49,0,l),
(639,500,l),
(561,500,l),
(-29,0,l)
);
},
{
pos = (31,0);
ref = o;
}
);
width = 610;
},
{
layerId = m008;
shapes = (
{
closed = 1;
nodes = (
(91,0,l),
(692,500,l),
(563,500,l),
(-38,0,l)
);
},
{
pos = (38,0);
ref = o;
}
);
width = 654;
},
{
layerId = m006;
shapes = (
{
closed = 1;
nodes = (
(26,0,l),
(596,500,l),
(546,500,l),
(-24,0,l)
);
},
{
pos = (16,0);
ref = o;
}
);
width = 572;
}
);
metricLeft = "=o-25";
metricRight = "=o-25";
},
{
glyphname = a.ss04;
kernLeft = o;
kernRight = u;
layers = (
{
layerId = m007;
shapes = (
{
closed = 1;
nodes = (
(368,-16,o),
(446,62,o),
(446,170,cs),
(446,330,ls),
(446,438,o),
(368,516,o),
(260,516,cs),
(135,516,o),
(50,409,o),
(50,250,cs),
(50,91,o),
(134,-16,o),
(260,-16,cs)
);
},
{
closed = 1;
nodes = (
(174,37,o),
(108,122,o),
(108,250,cs),
(108,378,o),
(174,463,o),
(272,463,cs),
(370,463,o),
(436,378,o),
(436,250,cs),
(436,122,o),
(370,37,o),
(272,37,cs)
);
},
{
closed = 1;
nodes = (
(492,0,l),
(492,500,l),
(437,500,l),
(437,0,l)
);
}
);
width = 575;
},
{
layerId = m01;
shapes = (
{
closed = 1;
nodes = (
(367,-16,o),
(441,60,o),
(441,170,cs),
(441,330,ls),
(441,441,o),
(368,516,o),
(262,516,cs),
(134,516,o),
(45,406,o),
(45,250,cs),
(45,93,o),
(134,-16,o),
(261,-16,cs)
);
},
{
closed = 1;
nodes = (
(185,57,o),
(123,135,o),
(123,250,cs),
(123,365,o),
(185,443,o),
(277,443,cs),
(369,443,o),
(431,365,o),
(431,250,cs),
(431,135,o),
(369,57,o),
(277,57,cs)
);
},
{
closed = 1;
nodes = (
(507,0,l),
(507,500,l),
(432,500,l),
(432,0,l)
);
}
);
width = 582;
},
{
layerId = m005;
shapes = (
{
closed = 1;
nodes = (
(370,-16,o),
(447,74,o),
(447,210,cs),
(447,290,ls),
(447,425,o),
(368,516,o),
(252,516,cs),
(124,516,o),
(36,408,o),
(36,251,cs),
(36,94,o),
(126,-16,o),
(254,-16,cs)
);
},
{
closed = 1;
nodes = (
(224,97,o),
(174,158,o),
(174,250,cs),
(174,342,o),
(224,403,o),
(298,403,cs),
(372,403,o),
(422,342,o),
(422,250,cs),
(422,158,o),
(372,97,o),
(298,97,cs)
);
},
{
closed = 1;
nodes = (
(558,0,l),
(558,500,l),
(423,500,l),
(423,0,l)
);
}
);
width = 618;
},
{
layerId = m006;
shapes = (
{
closed = 1;
nodes = (
(341,-16,o),
(409,49,o),
(436,179,cs),
(456,274,ls),
(486,416,o),
(421,516,o),
(298,516,cs),
(156,516,o),
(49,382,o),
(49,205,cs),
(49,65,o),
(117,-16,o),
(235,-16,cs)
);
},
{
closed = 1;
nodes = (
(157,37,o),
(106,105,o),
(106,213,cs),
(106,353,o),
(191,463,o),
(298,463,cs),
(400,463,o),
(461,362,o),
(435,235,cs),
(412,121,o),
(329,37,o),
(239,37,cs)
);
},
{
closed = 1;
nodes = (
(445,0,l),
(542,500,l),
(487,500,l),
(390,0,l)
);
}
);
width = 577;
},
{
layerId = m004;
shapes = (
{
closed = 1;
nodes = (
(344,-16,o),
(410,51,o),
(434,177,cs),
(459,307,ls),
(483,430,o),
(417,516,o),
(299,516,cs),
(156,516,o),
(46,388,o),
(46,220,cs),
(46,78,o),
(125,-16,o),
(244,-16,cs)
);
},
{
closed = 1;
nodes = (
(179,57,o),
(124,123,o),
(124,225,cs),
(124,349,o),
(202,443,o),
(305,443,cs),
(405,443,o),
(457,353,o),
(431,226,cs),
(410,119,o),
(349,57,o),
(265,57,cs)
);
},
{
closed = 1;
nodes = (
(463,0,l),
(560,500,l),
(485,500,l),
(388,0,l)
);
}
);
width = 587;
},
{
layerId = m008;
shapes = (
{
closed = 1;
nodes = (
(322,-16,o),
(412,76,o),
(437,210,cs),
(452,290,ls),
(477,419,o),
(406,516,o),
(288,516,cs),
(149,516,o),
(36,380,o),
(36,213,cs),
(36,78,o),
(110,-16,o),
(217,-16,cs)
);
},
{
closed = 1;
nodes = (
(208,97,o),
(172,145,o),
(172,225,cs),
(172,327,o),
(234,403,o),
(318,403,cs),
(395,403,o),
(437,338,o),
(419,246,cs),
(402,159,o),
(340,97,o),
(270,97,cs)
);
},
{
closed = 1;
nodes = (
(507,0,l),
(604,500,l),
(469,500,l),
(372,0,l)
);
}
);
width = 616;
}
);
metricLeft = o;
metricRight = u;
},
{
glyphname = ae.ss04;
kernLeft = o;
kernRight = o;
layers = (
{
layerId = m007;
shapes = (
{
closed = 1;
nodes = (
(766,-16,o),
(843,39,o),
(867,135,c),
(808,143,l),
(788,75,o),
(738,37,o),
(667,37,cs),
(558,37,o),
(499,131,o),
(499,240,c),
(872,240,l),
(872,248,ls),
(872,428,o),
(778,516,o),
(658,516,cs),
(538,516,o),
(451,418,o),
(451,248,cs),
(451,107,o),
(526,-16,o),
(667,-16,cs)
);
},
{
closed = 1;
nodes = (
(371,-16,o),
(456,61,o),
(456,170,cs),
(456,330,ls),
(456,439,o),
(371,516,o),
(262,516,cs),
(122,516,o),
(50,390,o),
(50,250,cs),
(50,110,o),
(122,-16,o),
(262,-16,cs)
);
},
{
closed = 1;
nodes = (
(161,37,o),
(108,139,o),
(108,250,cs),
(108,361,o),
(161,463,o),
(272,463,cs),
(382,463,o),
(436,360,o),
(436,250,cs),
(436,140,o),
(382,37,o),
(272,37,cs)
);
},
{
closed = 1;
nodes = (
(486,0,l),
(486,500,l),
(436,500,l),
(436,0,l)
);
},
{
closed = 1;
nodes = (
(499,389,o),
(557,463,o),
(658,463,cs),
(758,463,o),
(814,388,o),
(814,288,c),
(499,288,l)
);
}
);
width = 922;
},
{
layerId = m01;
shapes = (
{
closed = 1;
nodes = (
(779,-16,o),
(864,47,o),
(884,144,c),
(806,154,l),
(792,95,o),
(740,57,o),
(671,57,cs),
(578,57,o),
(514,127,o),
(514,230,c),
(887,230,l),
(887,248,ls),
(887,408,o),
(796,516,o),
(663,516,cs),
(531,516,o),
(446,412,o),
(446,251,cs),
(446,88,o),
(534,-16,o),
(672,-16,cs)
);
},
{
closed = 1;
nodes = (
(374,-16,o),
(446,63,o),
(446,170,cs),
(446,330,ls),
(446,437,o),
(374,516,o),
(267,516,cs),
(124,516,o),
(45,393,o),
(45,250,cs),
(45,107,o),
(124,-16,o),
(267,-16,cs)
);
},
{
closed = 1;
nodes = (
(175,57,o),
(123,148,o),
(123,250,cs),
(123,352,o),
(175,443,o),
(277,443,cs),
(379,443,o),
(431,352,o),
(431,250,cs),
(431,148,o),
(379,57,o),
(277,57,cs)
);
},
{
closed = 1;
nodes = (
(501,0,l),
(501,500,l),
(431,500,l),
(431,0,l)
);
},
{
closed = 1;
nodes = (
(514,384,o),
(574,443,o),
(661,443,cs),
(748,443,o),
(809,384,o),
(809,298,c),
(514,298,l)
);
}
);
width = 932;
},
{
layerId = m005;
shapes = (
{
closed = 1;
nodes = (
(854,-16,o),
(948,51,o),
(962,147,c),
(826,157,l),
(811,119,o),
(773,97,o),
(722,97,cs),
(649,97,o),
(600,143,o),
(600,210,c),
(962,210,l),
(962,248,ls),
(962,406,o),
(864,516,o),
(723,516,cs),
(582,516,o),
(481,404,o),
(481,248,cs),
(481,89,o),
(580,-16,o),
(732,-16,cs)
);
},
{
closed = 1;
nodes = (
(373,-16,o),
(447,73,o),
(447,210,cs),
(447,290,ls),
(447,427,o),
(373,516,o),
(258,516,cs),
(127,516,o),
(36,407,o),
(36,250,cs),
(36,95,o),
(129,-16,o),
(258,-16,cs)
);
},
{
closed = 1;
nodes = (
(223,97,o),
(173,158,o),
(173,250,cs),
(173,342,o),
(223,403,o),
(297,403,cs),
(371,403,o),
(421,342,o),
(421,250,cs),
(421,158,o),
(371,97,o),
(297,97,cs)
);
},
{
closed = 1;
nodes = (
(551,0,l),
(551,500,l),
(421,500,l),
(421,0,l)
);
},
{
closed = 1;
nodes = (
(600,364,o),
(647,403,o),
(713,403,cs),
(778,403,o),
(823,365,o),
(823,308,c),
(600,308,l)
);
}
);
width = 998;
},
{
layerId = m006;
shapes = (
{
closed = 1;
nodes = (
(739,-16,o),
(806,39,o),
(851,135,c),
(794,145,l),
(758,73,o),
(709,37,o),
(648,37,cs),
(552,37,o),
(490,124,o),
(504,240,c),
(877,240,l),
(878,248,ls),
(898,408,o),
(822,516,o),
(691,516,cs),
(554,516,o),
(459,397,o),
(459,223,cs),
(459,73,o),
(529,-16,o),
(646,-16,cs)
);
},
{
closed = 1;
nodes = (
(341,-16,o),
(409,49,o),
(436,179,cs),
(456,274,ls),
(486,416,o),
(421,516,o),
(298,516,cs),
(156,516,o),
(49,382,o),
(49,205,cs),
(49,65,o),
(117,-16,o),
(235,-16,cs)
);
},
{
closed = 1;
nodes = (
(157,37,o),
(106,105,o),
(106,213,cs),
(106,353,o),
(191,463,o),
(298,463,cs),
(400,463,o),
(461,362,o),
(435,235,cs),
(412,121,o),
(329,37,o),
(239,37,cs)
);
},
{
closed = 1;
nodes = (
(440,0,l),
(537,500,l),
(487,500,l),
(390,0,l)
);
},
{
closed = 1;
nodes = (
(534,396,o),
(602,463,o),
(689,463,cs),
(779,463,o),
(837,391,o),
(828,288,c),
(513,288,l)
);
}
);
width = 929;
},
{
layerId = m004;
shapes = (
{
closed = 1;
nodes = (
(761,-16,o),
(840,44,o),
(879,144,c),
(803,154,l),
(774,93,o),
(719,57,o),
(657,57,cs),
(569,57,o),
(514,129,o),
(526,230,c),
(899,230,l),
(905,265,ls),
(930,408,o),
(847,516,o),
(712,516,cs),
(565,516,o),
(457,388,o),
(457,216,cs),
(457,72,o),
(532,-16,o),
(657,-16,cs)
);
},
{
closed = 1;
nodes = (
(344,-16,o),
(410,51,o),
(434,177,cs),
(459,307,ls),
(483,430,o),
(417,516,o),
(299,516,cs),
(156,516,o),
(46,388,o),
(46,220,cs),
(46,78,o),
(125,-16,o),
(244,-16,cs)
);
},
{
closed = 1;
nodes = (
(179,57,o),
(124,123,o),
(124,225,cs),
(124,349,o),
(202,443,o),
(305,443,cs),
(405,443,o),
(457,353,o),
(431,226,cs),
(410,119,o),
(349,57,o),
(265,57,cs)
);
},
{
closed = 1;
nodes = (
(459,0,l),
(556,500,l),
(486,500,l),
(389,0,l)
);
},
{
closed = 1;
nodes = (
(557,386,o),
(622,443,o),
(706,443,cs),
(795,443,o),
(851,380,o),
(834,298,c),
(539,298,l)
);
}
);
width = 948;
},
{
layerId = m008;
shapes = (
{
closed = 1;
nodes = (
(824,-6,o),
(918,57,o),
(953,157,c),
(818,167,l),
(796,129,o),
(754,107,o),
(706,107,cs),
(635,107,o),
(591,156,o),
(603,220,c),
(965,220,l),
(972,258,ls),
(1000,409,o),
(904,526,o),
(752,526,cs),
(597,526,o),
(487,405,o),
(487,236,cs),
(487,87,o),
(572,-6,o),
(710,-6,cs)
);
},
{
closed = 1;
nodes = (
(322,-16,o),
(412,76,o),
(437,210,cs),
(452,290,ls),
(476,419,o),
(406,516,o),
(288,516,cs),
(149,516,o),
(36,380,o),
(36,214,cs),
(36,78,o),
(110,-16,o),
(216,-16,cs)
);
},
{
closed = 1;
nodes = (
(208,97,o),
(172,146,o),
(172,228,cs),
(172,329,o),
(235,403,o),
(320,403,cs),
(396,403,o),
(437,337,o),
(418,244,cs),
(402,159,o),
(340,97,o),
(270,97,cs)
);
},
{
closed = 1;
nodes = (
(496,0,l),
(593,500,l),
(468,500,l),
(371,0,l)
);
},
{
closed = 1;
nodes = (
(632,376,o),
(681,413,o),
(746,413,cs),
(814,413,o),
(856,373,o),
(845,318,c),
(622,318,l)
);
}
);
width = 1007;
}
);
metricLeft = o;
metricRight = e;
},
{
glyphname = Delta;
layers = (
{
layerId = m01;
shapes = (
{
closed = 1;
nodes = (
(678,0,l),
(445,700,l),
(343,700,l),
(100,0,l)
);
},
{
closed = 1;
nodes = (
(408,664,l),
(379,664,l),
(590,30,l),
(621,73,l),
(158,73,l),
(188,30,l)
);
}
);
width = 778;
},
{
layerId = m005;
shapes = (
{
closed = 1;
nodes = (
(714,0,l),
(467,700,l),
(337,700,l),
(80,0,l)
);
},
{
closed = 1;
nodes = (
(449,679,l),
(354,679,l),
(570,70,l),
(601,113,l),
(194,113,l),
(224,70,l)
);
}
);
width = 794;
},
{
layerId = m007;
shapes = (
{
closed = 1;
nodes = (
(660,0,l),
(424,700,l),
(356,700,l),
(110,0,l)
);
},
{
closed = 1;
nodes = (
(400,664,l),
(379,664,l),
(589,42,l),
(597,53,l),
(173,53,l),
(181,42,l)
);
}
);
width = 770;
},
{
layerId = m004;
shapes = (
{
closed = 1;
nodes = (
(629,0,l),
(532,700,l),
(430,700,l),
(51,0,l)
);
},
{
closed = 1;
nodes = (
(493,664,l),
(459,664,l),
(547,30,l),
(586,73,l),
(123,73,l),
(150,30,l)
);
}
);
width = 778;
},
{
layerId = m008;
shapes = (
{
closed = 1;
nodes = (
(665,0,l),
(554,700,l),
(424,700,l),
(31,0,l)
);
},
{
closed = 1;
nodes = (
(542,679,l),
(437,679,l),
(535,70,l),
(574,113,l),
(167,113,l),
(199,70,l)
);
}
);
width = 794;
},
{
layerId = m006;
shapes = (
{
closed = 1;
nodes = (
(611,0,l),
(511,700,l),
(443,700,l),
(61,0,l)
);
},
{
closed = 1;
nodes = (
(485,664,l),
(459,664,l),
(548,42,l),
(558,53,l),
(134,53,l),
(145,42,l)
);
}
);
width = 770;
}
);
unicode = 916;
},
{
glyphname = Omega;
layers = (
{
layerId = m01;
shapes = (
{
closed = 1;
nodes = (
(330,0,l),
(330,74,l),
(204,178,o),
(140,289,o),
(140,401,cs),
(140,544,o),
(243,643,o),
(390,643,cs),
(537,643,o),
(640,543,o),
(640,401,cs),
(640,289,o),
(576,179,o),
(450,74,c),
(450,0,l),
(740,0,l),
(740,74,l),
(520,74,l),
(510,54,l),
(642,137,o),
(718,264,o),
(718,402,cs),
(718,587,o),
(583,716,o),
(390,716,cs),
(197,716,o),
(62,587,o),
(62,402,cs),
(62,264,o),
(138,137,o),
(270,54,c),
(260,74,l),
(40,74,l),
(40,0,l)
);
}
);
width = 780;
},
{
layerId = m005;
shapes = (
{
closed = 1;
nodes = (
(352,0,l),
(352,104,l),
(252,168,o),
(192,277,o),
(192,393,cs),
(192,531,o),
(278,623,o),
(407,623,cs),
(536,623,o),
(622,531,o),
(622,393,cs),
(622,277,o),
(562,168,o),
(462,104,c),
(462,0,l),
(782,0,l),
(782,114,l),
(542,114,l),
(542,70,l),
(685,141,o),
(770,268,o),
(770,413,cs),
(770,604,o),
(621,736,o),
(407,736,cs),
(192,736,o),
(44,604,o),
(44,414,cs),
(44,270,o),
(129,142,o),
(272,70,c),
(272,114,l),
(32,114,l),
(32,0,l)
);
}
);
width = 814;
},
{
layerId = m007;
shapes = (
{
closed = 1;
nodes = (
(314,0,l),
(314,59,l),
(188,166,o),
(124,281,o),
(124,400,cs),
(124,554,o),
(232,663,o),
(384,663,cs),
(536,663,o),
(644,553,o),
(644,400,cs),
(644,281,o),
(579,165,o),
(454,59,c),
(454,0,l),
(724,0,l),
(724,54,l),
(504,54,l),
(504,43,l),
(631,135,o),
(702,263,o),
(702,400,cs),
(702,585,o),
(571,716,o),
(385,716,cs),
(198,716,o),
(66,584,o),
(66,399,cs),
(66,263,o),
(137,135,o),
(264,43,c),
(264,54,l),
(44,54,l),
(44,0,l)
);
}
);
width = 768;
},
{
layerId = m004;
shapes = (
{
closed = 1;
nodes = (
(282,0,l),
(296,74,l),
(214,156,o),
(170,254,o),
(170,355,cs),
(170,520,o),
(288,643,o),
(446,643,cs),
(580,643,o),
(667,555,o),
(667,420,cs),
(667,299,o),
(598,204,o),
(416,74,c),
(402,0,l),
(692,0,l),
(706,74,l),
(486,74,l),
(482,54,l),
(657,155,o),
(745,280,o),
(745,426,cs),
(745,598,o),
(623,716,o),
(447,716,cs),
(246,716,o),
(93,562,o),
(93,360,cs),
(93,245,o),
(143,142,o),
(242,54,c),
(236,74,l),
(6,74,l),
(-8,0,l)
);
}
);
width = 781;
},
{
layerId = m008;
shapes = (
{
closed = 1;
nodes = (
(304,0,l),
(324,104,l),
(257,151,o),
(221,232,o),
(221,337,cs),
(221,507,o),
(314,623,o),
(451,623,cs),
(568,623,o),
(648,539,o),
(648,414,cs),
(648,292,o),
(571,181,o),
(434,104,c),
(414,0,l),
(734,0,l),
(756,114,l),
(516,114,l),
(508,70,l),
(694,156,o),
(798,288,o),
(798,439,cs),
(798,614,o),
(658,736,o),
(458,736,cs),
(237,736,o),
(77,586,o),
(77,380,cs),
(77,250,o),
(141,139,o),
(258,70,c),
(246,114,l),
(6,114,l),
(-16,0,l)
);
}
);
width = 815;
},
{
layerId = m006;
shapes = (
{
closed = 1;
nodes = (
(266,0,l),
(277,59,l),
(196,141,o),
(152,244,o),
(152,352,cs),
(152,530,o),
(273,663,o),
(437,663,cs),
(576,663,o),
(668,567,o),
(668,423,cs),
(668,293,o),
(594,185,o),
(417,59,c),
(406,0,l),
(676,0,l),
(686,54,l),
(466,54,l),
(468,43,l),
(645,159,o),
(726,284,o),
(726,427,cs),
(726,599,o),
(609,716,o),
(438,716,cs),
(241,716,o),
(95,560,o),
(95,348,cs),
(95,224,o),
(145,115,o),
(236,43,c),
(246,54,l),
(6,54,l),
(-4,0,l)
);
}
);
width = 769;
}
);
unicode = 937;
},
{
glyphname = mu;
layers = (
{
layerId = m01;
shapes = (
{
closed = 1;
nodes = (
(150,-200,l),
(150,53,l),
(128,26,l),
(155,-2,o),
(193,-16,o),
(237,-16,cs),
(339,-16,o),
(418,61,o),
(418,161,c),
(403,257,l),
(403,136,o),
(343,57,o),
(253,57,cs),
(188,57,o),
(150,99,o),
(150,171,cs),
(150,500,l),
(75,500,l),
(75,-200,l)
);
},
{
closed = 1;
nodes = (
(478,0,l),
(478,500,l),
(403,500,l),
(403,0,l)
);
}
);
width = 553;
},
{
layerId = m005;
shapes = (
{
closed = 1;
nodes = (
(195,-200,l),
(195,31,l),
(165,-12,l),
(187,-12,o),
(204,-16,o),
(226,-16,cs),
(339,-16,o),
(414,73,o),
(414,207,c),
(388,257,l),
(388,161,o),
(344,97,o),
(277,97,cs),
(225,97,o),
(195,137,o),
(195,207,cs),
(195,500,l),
(60,500,l),
(60,-200,l)
);
},
{
closed = 1;
nodes = (
(523,0,l),
(523,500,l),
(388,500,l),
(388,0,l)
);
}
);
width = 583;
},
{
layerId = m007;
shapes = (
{
closed = 1;
nodes = (
(138,-200,l),
(138,71,l),
(119,49,l),
(147,8,o),
(191,-16,o),
(245,-16,cs),
(349,-16,o),
(431,70,o),
(431,181,c),
(411,257,l),
(411,124,o),
(348,37,o),
(251,37,cs),
(178,37,o),
(138,87,o),
(138,181,cs),
(138,500,l),
(83,500,l),
(83,-200,l)
);
},
{
closed = 1;
nodes = (
(466,0,l),
(466,500,l),
(411,500,l),
(411,0,l)
);
}
);
width = 549;
},
{
layerId = m004;
shapes = (
{
closed = 1;
nodes = (
(64,-200,l),
(116,65,l),
(89,43,l),
(114,5,o),
(156,-16,o),
(209,-16,cs),
(307,-16,o),
(385,56,o),
(399,161,c),
(405,257,l),
(383,136,o),
(313,57,o),
(228,57,cs),
(159,57,o),
(123,109,o),
(139,191,cs),
(199,500,l),
(124,500,l),
(-12,-200,l)
);
},
{
closed = 1;
nodes = (
(430,0,l),
(527,500,l),
(452,500,l),
(355,0,l)
);
}
);
width = 554;
},
{
layerId = m008;
shapes = (
{
closed = 1;
nodes = (
(108,-200,l),
(154,34,l),
(121,0,l),
(139,-11,o),
(164,-16,o),
(192,-16,cs),
(298,-16,o),
(380,69,o),
(406,207,c),
(390,257,l),
(371,157,o),
(321,97,o),
(256,97,cs),
(204,97,o),
(175,135,o),
(184,190,cs),
(244,500,l),
(109,500,l),
(-27,-200,l)
);
},
{
closed = 1;
nodes = (
(475,0,l),
(572,500,l),
(437,500,l),
(340,0,l)
);
}
);
width = 584;
},
{
layerId = m006;
shapes = (
{
closed = 1;
nodes = (
(51,-200,l),
(106,82,l),
(82,63,l),
(105,14,o),
(150,-16,o),
(213,-16,cs),
(314,-16,o),
(396,63,o),
(418,181,c),
(413,257,l),
(385,122,o),
(311,37,o),
(220,37,cs),
(144,37,o),
(108,96,o),
(127,191,cs),
(187,500,l),
(132,500,l),
(-4,-200,l)
);
},
{
closed = 1;
nodes = (
(418,0,l),
(515,500,l),
(460,500,l),
(363,0,l)
);
}
);
width = 550;
}
);
metricLeft = m;
metricRight = u;
unicode = 956;
},
{
glyphname = pi;
layers = (
{
layerId = m01;
shapes = (
{
closed = 1;
nodes = (
(250,0,l),
(250,437,l),
(440,437,l),
(440,140,ls),
(440,52,o),
(492,0,o),
(580,0,cs),
(615,0,l),
(615,73,l),
(575,73,ls),
(537,73,o),
(515,95,o),
(515,133,cs),
(515,437,l),
(615,437,l),
(615,500,l),
(75,500,l),
(75,437,l),
(175,437,l),
(175,0,l)
);
}
);
width = 685;
},
{
layerId = m005;
shapes = (
{
closed = 1;
nodes = (
(295,0,l),
(295,397,l),
(435,397,l),
(435,160,ls),
(435,60,o),
(498,0,o),
(605,0,cs),
(670,0,l),
(670,113,l),
(630,113,ls),
(592,113,o),
(570,135,o),
(570,173,cs),
(570,397,l),
(670,397,l),
(670,500,l),
(60,500,l),
(60,397,l),
(160,397,l),
(160,0,l)
);
}
);
width = 726;
},
{
layerId = m007;
shapes = (
{
closed = 1;
nodes = (
(238,0,l),
(238,447,l),
(448,447,l),
(448,123,ls),
(448,46,o),
(495,0,o),
(573,0,cs),
(603,0,l),
(603,53,l),
(573,53,ls),
(529,53,o),
(503,79,o),
(503,123,cs),
(503,447,l),
(603,447,l),
(603,500,l),
(83,500,l),
(83,447,l),
(183,447,l),
(183,0,l)
);
}
);
width = 680;
},
{
layerId = m004;
shapes = (
{
closed = 1;
nodes = (
(202,0,l),
(287,437,l),
(477,437,l),
(419,140,ls),
(404,61,o),
(453,0,o),
(531,0,cs),
(567,0,l),
(581,73,l),
(541,73,ls),
(507,73,o),
(486,100,o),
(493,133,cs),
(552,437,l),
(652,437,l),
(664,500,l),
(124,500,l),
(112,437,l),
(212,437,l),
(127,0,l)
);
}
);
width = 686;
},
{
layerId = m008;
shapes = (
{
closed = 1;
nodes = (
(247,0,l),
(324,397,l),
(464,397,l),
(418,160,ls),
(400,70,o),
(461,0,o),
(557,0,cs),
(622,0,l),
(644,113,l),
(604,113,ls),
(570,113,o),
(549,140,o),
(556,173,cs),
(599,397,l),
(699,397,l),
(719,500,l),
(109,500,l),
(89,397,l),
(189,397,l),
(112,0,l)
);
}
);
width = 727;
},
{
layerId = m006;
shapes = (
{
closed = 1;
nodes = (
(190,0,l),
(277,447,l),
(487,447,l),
(425,130,ls),
(411,56,o),
(452,0,o),
(520,0,cs),
(555,0,l),
(565,53,l),
(535,53,ls),
(495,53,o),
(471,84,o),
(479,123,cs),
(542,447,l),
(642,447,l),
(652,500,l),
(132,500,l),
(122,447,l),
(222,447,l),
(135,0,l)
);
}
);
width = 681;
}
);
metricLeft = m;
metricRight = q;
unicode = 960;
},
{
glyphname = zero;
kernLeft = zero;
kernRight = zero;
layers = (
{
layerId = m01;
shapes = (
{
closed = 1;
nodes = (
(478,-16,o),
(586,129,o),
(586,350,cs),
(586,571,o),
(478,716,o),
(313,716,cs),
(148,716,o),
(40,571,o),
(40,350,cs),
(40,129,o),
(148,-16,o),
(313,-16,cs)
);
},
{
closed = 1;
nodes = (
(192,57,o),
(118,169,o),
(118,350,cs),
(118,531,o),
(192,643,o),
(313,643,cs),
(434,643,o),
(508,531,o),
(508,350,cs),
(508,169,o),
(434,57,o),
(313,57,cs)
);
}
);
width = 626;
},
{
layerId = m005;
shapes = (
{
closed = 1;
nodes = (
(533,-16,o),
(648,121,o),
(648,350,cs),
(648,579,o),
(533,716,o),
(340,716,cs),
(147,716,o),
(32,579,o),
(32,350,cs),
(32,121,o),
(147,-16,o),
(340,-16,cs)
);
},
{
closed = 1;
nodes = (
(241,97,o),
(180,193,o),
(180,350,cs),
(180,507,o),
(241,603,o),
(340,603,cs),
(439,603,o),
(500,507,o),
(500,350,cs),
(500,193,o),
(439,97,o),
(340,97,cs)
);
}
);
width = 680;
},
{
layerId = m007;
shapes = (
{
closed = 1;
nodes = (
(468,-16,o),
(570,126,o),
(570,350,cs),
(570,574,o),
(468,716,o),
(307,716,cs),
(146,716,o),
(44,574,o),
(44,350,cs),
(44,126,o),
(146,-16,o),
(307,-16,cs)
);
},
{
closed = 1;
nodes = (
(179,37,o),
(102,154,o),
(102,350,cs),
(102,546,o),
(179,663,o),
(307,663,cs),
(435,663,o),
(512,546,o),
(512,350,cs),
(512,154,o),
(435,37,o),
(307,37,cs)
);
}
);
width = 614;
},
{
layerId = m004;
shapes = (
{
closed = 1;
nodes = (
(465,-16,o),
(605,184,o),
(605,467,cs),
(605,607,o),
(511,716,o),
(391,716,cs),
(193,716,o),
(51,515,o),
(51,234,cs),
(51,94,o),
(146,-16,o),
(268,-16,cs)
);
},
{
closed = 1;
nodes = (
(195,57,o),
(129,138,o),
(129,244,cs),
(129,468,o),
(240,643,o),
(382,643,cs),
(465,643,o),
(527,563,o),
(527,456,cs),
(527,232,o),
(419,57,o),
(281,57,cs)
);
}
);
width = 618;
},
{
layerId = m008;
shapes = (
{
closed = 1;
nodes = (
(511,-16,o),
(669,187,o),
(669,456,cs),
(669,602,o),
(557,716,o),
(414,716,cs),
(202,716,o),
(43,513,o),
(43,244,cs),
(43,98,o),
(156,-16,o),
(300,-16,cs)
);
},
{
closed = 1;
nodes = (
(244,97,o),
(191,164,o),
(191,254,cs),
(191,450,o),
(284,603,o),
(402,603,cs),
(471,603,o),
(521,536,o),
(521,446,cs),
(521,250,o),
(430,97,o),
(314,97,cs)
);
}
);
width = 673;
},
{
layerId = m006;
shapes = (
{
closed = 1;
nodes = (
(456,-16,o),
(589,185,o),
(589,477,cs),
(589,611,o),
(499,716,o),
(385,716,cs),
(190,716,o),
(55,514,o),
(55,224,cs),
(55,90,o),
(146,-16,o),
(262,-16,cs)
);
},
{
closed = 1;
nodes = (
(183,37,o),
(113,122,o),
(113,234,cs),
(113,471,o),
(231,663,o),
(376,663,cs),
(465,663,o),
(531,579,o),
(531,466,cs),
(531,229,o),
(416,37,o),
(275,37,cs)
);
}
);
width = 605;
}
);
unicode = 48;
},
{
glyphname = one;
kernLeft = one;
kernRight = one;
layers = (
{
layerId = m01;
shapes = (
{
closed = 1;
nodes = (
(318,43,l),
(318,700,l),
(240,700,l),
(240,589,o),
(194,540,o),
(89,540,cs),
(60,540,l),
(60,467,l),
(89,467,ls),
(183,467,o),
(247,521,o),
(247,600,c),
(240,560,l),
(240,43,l)
);
},
{
closed = 1;
nodes = (
(498,0,l),
(498,73,l),
(60,73,l),
(60,0,l)
);
}
);
width = 508;
},
{
layerId = m005;
shapes = (
{
closed = 1;
nodes = (
(376,40,l),
(376,700,l),
(228,700,l),
(228,614,o),
(198,540,o),
(112,540,cs),
(48,540,l),
(48,427,l),
(112,427,ls),
(198,427,o),
(255,508,o),
(255,630,c),
(228,590,l),
(228,40,l)
);
},
{
closed = 1;
nodes = (
(556,0,l),
(556,113,l),
(48,113,l),
(48,0,l)
);
}
);
width = 564;
},
{
layerId = m007;
shapes = (
{
closed = 1;
nodes = (
(304,33,l),
(304,700,l),
(246,700,l),
(246,591,o),
(198,540,o),
(95,540,cs),
(66,540,l),
(66,487,l),
(95,487,ls),
(191,487,o),
(263,561,o),
(263,660,c),
(246,600,l),
(246,33,l)
);
},
{
closed = 1;
nodes = (
(484,0,l),
(484,53,l),
(66,53,l),
(66,0,l)
);
}
);
width = 495;
},
{
layerId = m004;
shapes = (
{
closed = 1;
nodes = (
(278,43,l),
(406,700,l),
(328,700,l),
(308,601,o),
(239,540,o),
(146,540,cs),
(117,540,l),
(103,467,l),
(132,467,ls),
(228,467,o),
(299,519,o),
(316,600,c),
(301,560,l),
(200,43,l)
);
},
{
closed = 1;
nodes = (
(450,0,l),
(464,73,l),
(26,73,l),
(12,0,l)
);
}
);
width = 509;
},
{
layerId = m008;
shapes = (
{
closed = 1;
nodes = (
(336,40,l),
(464,700,l),
(316,700,l),
(295,597,o),
(243,540,o),
(169,540,cs),
(105,540,l),
(83,427,l),
(147,427,ls),
(237,427,o),
(305,503,o),
(329,630,c),
(295,590,l),
(188,40,l)
);
},
{
closed = 1;
nodes = (
(508,0,l),
(530,113,l),
(22,113,l),
(0,0,l)
);
}
);
width = 565;
},
{
layerId = m006;
shapes = (
{
closed = 1;
nodes = (
(262,33,l),
(392,700,l),
(334,700,l),
(315,601,o),
(246,540,o),
(152,540,cs),
(123,540,l),
(113,487,l),
(142,487,ls),
(243,487,o),
(324,556,o),
(343,660,c),
(315,600,l),
(204,33,l)
);
},
{
closed = 1;
nodes = (
(436,0,l),
(446,53,l),
(28,53,l),
(18,0,l)
);
}
);
width = 496;
}
);
unicode = 49;
},
{
glyphname = two;
kernLeft = two;
kernRight = two;
layers = (
{
layerId = m01;
shapes = (
{
closed = 1;
nodes = (
(531,0,l),
(531,73,l),
(122,73,l),
(152,56,l),
(388,170,o),
(515,319,o),
(515,484,cs),
(515,624,o),
(425,716,o),
(287,716,cs),
(149,716,o),
(50,625,o),
(50,500,c),
(128,490,l),
(128,578,o),
(195,643,o),
(288,643,cs),
(380,643,o),
(437,578,o),
(437,474,cs),
(437,329,o),
(325,213,o),
(51,73,c),
(51,0,l)
);
}
);
width = 571;
},
{
layerId = m005;
shapes = (
{
closed = 1;
nodes = (
(591,0,l),
(591,113,l),
(164,113,l),
(144,64,l),
(410,165,o),
(575,327,o),
(575,487,cs),
(575,619,o),
(462,716,o),
(308,716,cs),
(154,716,o),
(40,620,o),
(40,490,c),
(188,480,l),
(188,550,o),
(243,603,o),
(316,603,cs),
(384,603,o),
(427,557,o),
(427,482,cs),
(427,366,o),
(323,267,o),
(41,113,c),
(41,0,l)
);
}
);
width = 623;
},
{
layerId = m007;
shapes = (
{
closed = 1;
nodes = (
(515,0,l),
(515,53,l),
(113,53,l),
(143,48,l),
(373,171,o),
(499,327,o),
(499,489,cs),
(499,625,o),
(408,716,o),
(273,716,cs),
(144,716,o),
(55,632,o),
(55,510,c),
(113,500,l),
(113,597,o),
(179,663,o),
(275,663,cs),
(377,663,o),
(441,596,o),
(441,489,cs),
(441,336,o),
(310,188,o),
(55,53,c),
(55,0,l)
);
}
);
width = 559;
},
{
layerId = m004;
shapes = (
{
closed = 1;
nodes = (
(483,0,l),
(497,73,l),
(88,73,l),
(115,56,l),
(413,199,o),
(554,346,o),
(554,514,cs),
(554,638,o),
(478,716,o),
(358,716,cs),
(229,716,o),
(122,626,o),
(99,500,c),
(175,490,l),
(195,582,o),
(266,643,o),
(354,643,cs),
(433,643,o),
(477,594,o),
(477,508,cs),
(477,363,o),
(351,244,o),
(17,73,c),
(3,0,l)
);
}
);
width = 572;
},
{
layerId = m008;
shapes = (
{
closed = 1;
nodes = (
(543,0,l),
(565,113,l),
(138,113,l),
(98,64,l),
(454,186,o),
(615,318,o),
(615,490,cs),
(615,625,o),
(516,716,o),
(370,716,cs),
(225,716,o),
(112,626,o),
(87,490,c),
(233,480,l),
(247,554,o),
(301,603,o),
(369,603,cs),
(432,603,o),
(468,561,o),
(468,490,cs),
(468,371,o),
(369,288,o),
(15,113,c),
(-7,0,l)
);
}
);
width = 624;
},
{
layerId = m006;
shapes = (
{
closed = 1;
nodes = (
(477,0,l),
(487,53,l),
(85,53,l),
(119,48,l),
(406,195,o),
(549,352,o),
(549,517,cs),
(549,638,o),
(472,716,o),
(355,716,cs),
(233,716,o),
(131,632,o),
(106,510,c),
(162,501,l),
(180,596,o),
(261,663,o),
(356,663,cs),
(441,663,o),
(492,609,o),
(492,518,cs),
(492,361,o),
(338,207,o),
(27,53,c),
(17,0,l)
);
}
);
width = 570;
}
);
unicode = 50;
},
{
glyphname = three;
kernLeft = three;
kernRight = eight;
layers = (
{
layerId = m01;
shapes = (
{
closed = 1;
nodes = (
(446,-16,o),
(549,67,o),
(549,189,cs),
(549,297,o),
(468,374,o),
(352,374,c),
(352,354,l),
(451,354,o),
(523,426,o),
(523,526,cs),
(523,640,o),
(430,716,o),
(291,716,cs),
(157,716,o),
(63,645,o),
(59,539,c),
(137,529,l),
(141,598,o),
(203,643,o),
(292,643,cs),
(384,643,o),
(447,594,o),
(447,521,cs),
(447,448,o),
(383,400,o),
(287,400,cs),
(207,400,l),
(207,327,l),
(287,327,ls),
(398,327,o),
(471,274,o),
(471,192,cs),
(471,112,o),
(401,57,o),
(297,57,cs),
(188,57,o),
(113,117,o),
(113,204,c),
(35,194,l),
(35,70,o),
(142,-16,o),
(295,-16,cs)
);
}
);
width = 589;
},
{
layerId = m005;
shapes = (
{
closed = 1;
nodes = (
(504,-16,o),
(614,64,o),
(614,186,cs),
(614,303,o),
(513,380,o),
(361,380,c),
(361,347,l),
(497,347,o),
(588,420,o),
(588,528,cs),
(588,642,o),
(486,716,o),
(328,716,cs),
(162,716,o),
(52,634,o),
(52,510,c),
(200,500,l),
(200,561,o),
(252,603,o),
(326,603,cs),
(395,603,o),
(442,566,o),
(442,512,cs),
(442,458,o),
(395,421,o),
(325,421,cs),
(240,421,l),
(240,308,l),
(325,308,ls),
(410,308,o),
(466,267,o),
(466,203,cs),
(466,139,o),
(412,97,o),
(330,97,cs),
(239,97,o),
(176,151,o),
(176,229,c),
(28,219,l),
(28,78,o),
(150,-16,o),
(334,-16,cs)
);
}
);
width = 646;
},
{
layerId = m007;
shapes = (
{
closed = 1;
nodes = (
(436,-16,o),
(535,66,o),
(535,185,cs),
(535,292,o),
(457,368,o),
(348,368,c),
(348,360,l),
(443,360,o),
(511,430,o),
(511,528,cs),
(511,639,o),
(422,716,o),
(293,716,cs),
(174,716,o),
(86,651,o),
(66,550,c),
(124,540,l),
(133,615,o),
(199,663,o),
(291,663,cs),
(388,663,o),
(453,609,o),
(453,528,cs),
(453,446,o),
(385,391,o),
(283,391,cs),
(213,391,l),
(213,338,l),
(283,338,ls),
(399,338,o),
(477,278,o),
(477,188,cs),
(477,100,o),
(402,39,o),
(293,39,cs),
(183,39,o),
(105,100,o),
(97,193,c),
(39,183,l),
(48,63,o),
(149,-16,o),
(291,-16,cs)
);
}
);
width = 579;
},
{
layerId = m004;
shapes = (
{
closed = 1;
nodes = (
(412,-16,o),
(525,78,o),
(525,202,cs),
(525,302,o),
(451,374,o),
(346,374,c),
(352,354,l),
(476,354,o),
(564,431,o),
(564,541,cs),
(564,646,o),
(484,716,o),
(365,716,cs),
(243,716,o),
(138,642,o),
(115,539,c),
(191,529,l),
(209,597,o),
(276,643,o),
(358,643,cs),
(437,643,o),
(488,600,o),
(488,534,cs),
(488,454,o),
(415,400,o),
(306,400,cs),
(236,400,l),
(222,327,l),
(282,327,ls),
(382,327,o),
(448,277,o),
(448,202,cs),
(448,120,o),
(370,57,o),
(269,57,cs),
(173,57,o),
(107,115,o),
(104,204,c),
(24,194,l),
(28,67,o),
(122,-16,o),
(262,-16,cs)
);
}
);
width = 578;
},
{
layerId = m008;
shapes = (
{
closed = 1;
nodes = (
(465,-16,o),
(590,79,o),
(590,204,cs),
(590,309,o),
(503,380,o),
(376,380,c),
(379,347,l),
(529,347,o),
(629,418,o),
(629,524,cs),
(629,635,o),
(521,716,o),
(375,716,cs),
(231,716,o),
(127,637,o),
(102,510,c),
(248,500,l),
(260,564,o),
(307,603,o),
(374,603,cs),
(437,603,o),
(482,568,o),
(482,519,cs),
(482,463,o),
(425,421,o),
(348,421,cs),
(273,421,l),
(251,308,l),
(326,308,ls),
(403,308,o),
(447,276,o),
(447,221,cs),
(447,154,o),
(382,97,o),
(304,97,cs),
(230,97,o),
(178,149,o),
(171,229,c),
(22,219,l),
(25,78,o),
(136,-16,o),
(300,-16,cs)
);
}
);
width = 634;
},
{
layerId = m006;
shapes = (
{
closed = 1;
nodes = (
(407,-16,o),
(509,73,o),
(509,197,cs),
(509,294,o),
(447,366,o),
(365,366,c),
(384,362,l),
(472,362,o),
(554,453,o),
(554,552,cs),
(554,649,o),
(474,716,o),
(360,716,cs),
(248,716,o),
(155,651,o),
(124,550,c),
(180,540,l),
(204,613,o),
(277,663,o),
(361,663,cs),
(442,663,o),
(496,616,o),
(496,544,cs),
(496,455,o),
(414,391,o),
(300,391,cs),
(240,391,l),
(230,338,l),
(300,338,ls),
(391,338,o),
(454,281,o),
(454,200,cs),
(454,108,o),
(372,39,o),
(264,39,cs),
(162,39,o),
(91,100,o),
(85,193,c),
(26,183,l),
(36,63,o),
(130,-16,o),
(264,-16,cs)
);
}
);
width = 567;
}
);
unicode = 51;
},
{
glyphname = four;
kernLeft = four;
kernRight = four;
layers = (
{
layerId = m01;
shapes = (
{
closed = 1;
nodes = (
(634,193,l),
(634,266,l),
(92,266,l),
(92,216,l),
(216,298,o),
(276,456,o),
(276,700,c),
(198,700,l),
(198,476,o),
(153,344,o),
(50,266,c),
(50,193,l)
);
},
{
closed = 1;
nodes = (
(524,0,l),
(524,700,l),
(446,700,l),
(446,0,l)
);
}
);
width = 654;
},
{
layerId = m005;
shapes = (
{
closed = 1;
nodes = (
(696,173,l),
(696,286,l),
(82,286,l),
(110,224,l),
(251,297,o),
(318,450,o),
(318,700,c),
(180,700,l),
(180,476,o),
(140,356,o),
(42,286,c),
(42,173,l)
);
},
{
closed = 1;
nodes = (
(586,0,l),
(586,700,l),
(448,700,l),
(448,0,l)
);
}
);
width = 712;
},
{
layerId = m007;
shapes = (
{
closed = 1;
nodes = (
(618,203,l),
(618,256,l),
(103,256,l),
(92,231,l),
(202,323,o),
(250,466,o),
(250,700,c),
(192,700,l),
(192,482,o),
(150,346,o),
(54,256,c),
(54,203,l)
);
},
{
closed = 1;
nodes = (
(498,0,l),
(498,700,l),
(440,700,l),
(440,0,l)
);
}
);
width = 640;
},
{
layerId = m004;
shapes = (
{
closed = 1;
nodes = (
(643,193,l),
(658,266,l),
(106,266,l),
(70,216,l),
(239,296,o),
(346,456,o),
(394,700,c),
(316,700,l),
(274,482,o),
(191,344,o),
(54,266,c),
(39,193,l)
);
},
{
closed = 1;
nodes = (
(486,0,l),
(622,700,l),
(544,700,l),
(408,0,l)
);
}
);
width = 675;
},
{
layerId = m008;
shapes = (
{
closed = 1;
nodes = (
(691,173,l),
(713,286,l),
(109,286,l),
(77,229,l),
(271,285,o),
(396,445,o),
(445,700,c),
(307,700,l),
(265,483,o),
(183,352,o),
(49,286,c),
(27,173,l)
);
},
{
closed = 1;
nodes = (
(537,0,l),
(673,700,l),
(535,700,l),
(399,0,l)
);
}
);
width = 722;
},
{
layerId = m006;
shapes = (
{
closed = 1;
nodes = (
(629,203,l),
(640,256,l),
(105,256,l),
(89,231,l),
(239,315,o),
(333,468,o),
(378,700,c),
(320,700,l),
(277,480,o),
(193,339,o),
(56,256,c),
(45,203,l)
);
},
{
closed = 1;
nodes = (
(470,0,l),
(606,700,l),
(548,700,l),
(412,0,l)
);
}
);
width = 661;
}
);
unicode = 52;
},
{
glyphname = five;
kernLeft = five;
kernRight = five;
layers = (
{
layerId = m01;
shapes = (
{
closed = 1;
nodes = (
(443,-16,o),
(548,86,o),
(548,234,cs),
(548,378,o),
(451,478,o),
(312,478,cs),
(227,478,o),
(156,441,o),
(121,378,c),
(142,378,l),
(180,627,l),
(495,627,l),
(495,700,l),
(111,700,l),
(63,322,l),
(139,312,l),
(164,371,o),
(229,409,o),
(304,409,cs),
(404,409,o),
(470,339,o),
(470,234,cs),
(470,126,o),
(401,56,o),
(297,56,cs),
(198,56,o),
(128,118,o),
(128,204,c),
(50,194,l),
(60,68,o),
(157,-16,o),
(293,-16,cs)
);
}
);
width = 588;
},
{
layerId = m005;
shapes = (
{
closed = 1;
nodes = (
(489,-16,o),
(607,86,o),
(607,231,cs),
(607,369,o),
(500,468,o),
(349,468,cs),
(246,468,o),
(169,422,o),
(133,338,c),
(188,338,l),
(226,587,l),
(554,587,l),
(554,700,l),
(107,700,l),
(55,312,l),
(190,302,l),
(214,338,o),
(260,359,o),
(315,359,cs),
(402,359,o),
(459,307,o),
(459,228,cs),
(459,149,o),
(404,96,o),
(323,96,cs),
(246,96,o),
(189,144,o),
(189,209,c),
(40,199,l),
(61,67,o),
(171,-16,o),
(322,-16,cs)
);
}
);
width = 639;
},
{
layerId = m007;
shapes = (
{
closed = 1;
nodes = (
(437,-16,o),
(533,82,o),
(533,228,cs),
(533,370,o),
(439,468,o),
(304,468,cs),
(216,468,o),
(145,428,o),
(109,358,c),
(125,353,l),
(166,647,l),
(480,647,l),
(480,700,l),
(115,700,l),
(69,332,l),
(128,322,l),
(159,382,o),
(225,419,o),
(299,419,cs),
(405,419,o),
(475,343,o),
(475,229,cs),
(475,112,o),
(403,36,o),
(293,36,cs),
(189,36,o),
(113,103,o),
(113,193,c),
(55,183,l),
(65,66,o),
(163,-16,o),
(294,-16,cs)
);
}
);
width = 577;
},
{
layerId = m004;
shapes = (
{
closed = 1;
nodes = (
(424,-16,o),
(533,95,o),
(533,254,cs),
(533,389,o),
(455,478,o),
(335,478,cs),
(253,478,o),
(179,437,o),
(155,378,c),
(166,378,l),
(233,627,l),
(558,627,l),
(572,700,l),
(178,700,l),
(73,312,l),
(151,312,l),
(182,367,o),
(258,409,o),
(327,409,cs),
(408,409,o),
(456,353,o),
(456,259,cs),
(456,141,o),
(380,56,o),
(274,56,cs),
(185,56,o),
(122,116,o),
(119,204,c),
(39,194,l),
(36,72,o),
(133,-16,o),
(270,-16,cs)
);
}
);
width = 578;
},
{
layerId = m008;
shapes = (
{
closed = 1;
nodes = (
(467,-16,o),
(589,93,o),
(589,247,cs),
(589,380,o),
(499,468,o),
(363,468,cs),
(250,468,o),
(151,408,o),
(116,318,c),
(210,338,l),
(276,587,l),
(609,587,l),
(631,700,l),
(169,700,l),
(58,302,l),
(200,302,l),
(232,337,o),
(281,359,o),
(327,359,cs),
(395,359,o),
(442,309,o),
(442,238,cs),
(442,158,o),
(382,96,o),
(303,96,cs),
(237,96,o),
(190,139,o),
(181,209,c),
(30,199,l),
(30,73,o),
(140,-16,o),
(295,-16,cs)
);
}
);
width = 627;
},
{
layerId = m006;
shapes = (
{
closed = 1;
nodes = (
(408,-16,o),
(517,100,o),
(517,258,cs),
(517,387,o),
(445,468,o),
(332,468,cs),
(251,468,o),
(169,427,o),
(131,368,c),
(145,353,l),
(223,647,l),
(547,647,l),
(557,700,l),
(182,700,l),
(81,322,l),
(142,322,l),
(179,378,o),
(257,419,o),
(326,419,cs),
(409,419,o),
(460,359,o),
(460,260,cs),
(460,132,o),
(374,36,o),
(261,36,cs),
(174,36,o),
(115,94,o),
(101,193,c),
(42,183,l),
(45,66,o),
(135,-16,o),
(260,-16,cs)
);
}
);
width = 566;
}
);
unicode = 53;
},
